<?xml version="1.0" standalone="no"?>
<!DOCTYPE svg PUBLIC "-//W3C//DTD SVG 20010904//EN"
 "http://www.w3.org/TR/2001/REC-SVG-20010904/DTD/svg10.dtd">
<svg version="1.0" xmlns="http://www.w3.org/2000/svg"
 width="300.000000pt" height="300.000000pt" viewBox="0 0 300.000000 300.000000"
 preserveAspectRatio="xMidYMid meet">
<metadata>
Created by potrace 1.11, written by Peter Selinger 2001-2013
</metadata>
<g transform="translate(0.000000,300.000000) scale(0.100000,-0.100000)"
fill="#000000" stroke="none">
<path d="M2110 2497 l-174 -102 -3 -132 c-3 -154 -4 -152 102 -208 39 -21 82
-46 97 -56 l26 -19 -1 -414 c-2 -304 -5 -409 -13 -397 -21 31 -46 109 -47 151
l-2 42 -116 69 c-64 38 -122 69 -128 69 -11 0 -334 -182 -358 -202 -9 -7 -13
-40 -13 -97 l0 -86 -33 75 c-31 72 -99 184 -118 196 -19 11 -6 24 74 70 119
69 119 69 112 128 -23 199 -117 396 -252 528 -72 72 -89 83 -321 217 -221 128
-249 141 -322 146 -84 7 -134 -12 -289 -106 -14 -9 -66 -40 -116 -68 -101 -59
-127 -80 -160 -132 -70 -109 -60 -309 25 -495 31 -68 83 -157 107 -182 7 -7
13 -17 13 -22 0 -5 -34 -28 -76 -51 -42 -23 -88 -52 -102 -64 l-26 -22 13 -74
c46 -257 177 -466 381 -603 83 -56 311 -187 384 -220 144 -66 192 -58 415 71
199 115 253 153 281 198 25 41 27 41 60 15 14 -11 29 -20 33 -20 5 0 40 -19
79 -42 58 -34 74 -40 95 -32 21 8 31 3 76 -39 59 -56 160 -117 232 -140 92
-30 225 -8 295 48 8 7 35 24 60 37 96 54 247 145 269 164 12 10 33 37 46 59
47 79 52 142 54 607 0 238 4 435 8 439 5 4 55 34 113 66 l105 59 1 129 c1 72
-2 137 -7 146 -5 10 -37 33 -71 52 -35 19 -81 44 -103 57 -46 26 -295 172
-405 238 -41 24 -86 46 -100 48 -18 3 -75 -26 -200 -99z m199 -340 l300 -172
1 -108 0 -109 -47 28 c-139 81 -163 93 -170 81 -8 -13 -10 -108 -12 -758 -2
-431 -6 -474 -57 -556 -39 -64 -99 -94 -186 -95 -75 -1 -150 28 -233 91 -43
33 -71 60 -167 162 -10 11 -18 24 -18 31 0 28 -13 -5 -16 -39 -4 -59 -4 -59
-12 -48 -8 12 -130 85 -141 85 -27 0 -32 36 -33 259 -1 127 1 233 3 236 6 6
171 -92 181 -108 4 -7 8 -22 8 -33 0 -32 35 -134 61 -180 70 -121 183 -205
278 -206 61 0 93 21 123 82 22 44 22 47 22 623 1 318 -1 582 -4 586 -3 4 -53
34 -112 67 l-108 59 0 103 c0 98 1 103 19 97 11 -3 155 -83 320 -178z m-1983
68 c45 -13 80 -32 294 -155 183 -105 268 -173 347 -280 51 -67 116 -196 137
-270 19 -69 31 -154 19 -148 -4 3 -46 27 -93 53 -47 27 -86 49 -88 50 -1 1 -5
13 -7 26 -13 68 -20 88 -44 129 -14 25 -47 65 -72 90 -47 45 -364 237 -427
258 -47 16 -100 -4 -130 -48 -21 -30 -23 -44 -19 -101 6 -90 43 -167 110 -232
37 -35 117 -88 248 -162 216 -123 293 -186 375 -307 108 -159 155 -298 150
-442 -4 -101 -19 -148 -66 -196 -75 -76 -177 -75 -322 5 -360 199 -486 299
-580 460 -54 94 -97 210 -104 279 -3 28 -7 53 -10 58 -3 4 -2 8 2 8 10 0 183
-100 189 -109 2 -5 7 -26 10 -47 13 -83 82 -188 162 -242 47 -33 325 -188 364
-204 96 -39 172 29 163 147 -6 73 -63 183 -123 237 -26 24 -103 74 -171 112
-164 92 -284 173 -348 237 -150 148 -244 353 -244 535 -1 209 108 310 278 259z"/>
</g>
</svg>
