<?xml version="1.0" standalone="no"?>
<svg xmlns="http://www.w3.org/2000/svg" version="1.1" width="244" height="244">
	<!-- Created with https://api.qrserver.com (QR Code API, see goQR.me/api for information) -->
	<title>QR Code</title>
	<desc>BEGIN:VCARD
VERSION:2.1
FN:Sujeet Jaiswal
N:Jaiswal;Sujeet
TITLE:Specialist Programmer
TEL;CELL:886130100
EMAIL;HOME;INTERNET:er.sujeetkumarjaiswal@gmail.com
EMAIL;WORK;INTERNET:contact@sujeetjaiswal.com
URL:http://sujeetjaiswal.com
ADR:;;BTM Layout;Bengaluru;;560076;INDIA
ORG:Infosys Limited
END:VCARD
</desc>
	<rect style="fill:rgb(255, 255, 255);fill-opacity:1" x="0" y="0" width="244" height="244" />
	<g id="elements">
		<path style="fill:rgb(0, 0, 0)" d="M 0,0 l 4,0 0,4 -4,0 z M 4,0 l 4,0 0,4 -4,0 z M 8,0 l 4,0 0,4 -4,0 z M 12,0 l 4,0 0,4 -4,0 z M 16,0 l 4,0 0,4 -4,0 z M 20,0 l 4,0 0,4 -4,0 z M 24,0 l 4,0 0,4 -4,0 z M 36,0 l 4,0 0,4 -4,0 z M 40,0 l 4,0 0,4 -4,0 z M 44,0 l 4,0 0,4 -4,0 z M 48,0 l 4,0 0,4 -4,0 z M 52,0 l 4,0 0,4 -4,0 z M 60,0 l 4,0 0,4 -4,0 z M 68,0 l 4,0 0,4 -4,0 z M 80,0 l 4,0 0,4 -4,0 z M 100,0 l 4,0 0,4 -4,0 z M 104,0 l 4,0 0,4 -4,0 z M 108,0 l 4,0 0,4 -4,0 z M 116,0 l 4,0 0,4 -4,0 z M 120,0 l 4,0 0,4 -4,0 z M 124,0 l 4,0 0,4 -4,0 z M 132,0 l 4,0 0,4 -4,0 z M 136,0 l 4,0 0,4 -4,0 z M 140,0 l 4,0 0,4 -4,0 z M 144,0 l 4,0 0,4 -4,0 z M 156,0 l 4,0 0,4 -4,0 z M 160,0 l 4,0 0,4 -4,0 z M 164,0 l 4,0 0,4 -4,0 z M 172,0 l 4,0 0,4 -4,0 z M 188,0 l 4,0 0,4 -4,0 z M 192,0 l 4,0 0,4 -4,0 z M 204,0 l 4,0 0,4 -4,0 z M 208,0 l 4,0 0,4 -4,0 z M 216,0 l 4,0 0,4 -4,0 z M 220,0 l 4,0 0,4 -4,0 z M 224,0 l 4,0 0,4 -4,0 z M 228,0 l 4,0 0,4 -4,0 z M 232,0 l 4,0 0,4 -4,0 z M 236,0 l 4,0 0,4 -4,0 z M 240,0 l 4,0 0,4 -4,0 z M 0,4 l 4,0 0,4 -4,0 z M 24,4 l 4,0 0,4 -4,0 z M 32,4 l 4,0 0,4 -4,0 z M 36,4 l 4,0 0,4 -4,0 z M 48,4 l 4,0 0,4 -4,0 z M 52,4 l 4,0 0,4 -4,0 z M 80,4 l 4,0 0,4 -4,0 z M 100,4 l 4,0 0,4 -4,0 z M 104,4 l 4,0 0,4 -4,0 z M 108,4 l 4,0 0,4 -4,0 z M 112,4 l 4,0 0,4 -4,0 z M 116,4 l 4,0 0,4 -4,0 z M 136,4 l 4,0 0,4 -4,0 z M 140,4 l 4,0 0,4 -4,0 z M 148,4 l 4,0 0,4 -4,0 z M 168,4 l 4,0 0,4 -4,0 z M 180,4 l 4,0 0,4 -4,0 z M 192,4 l 4,0 0,4 -4,0 z M 196,4 l 4,0 0,4 -4,0 z M 204,4 l 4,0 0,4 -4,0 z M 208,4 l 4,0 0,4 -4,0 z M 216,4 l 4,0 0,4 -4,0 z M 240,4 l 4,0 0,4 -4,0 z M 0,8 l 4,0 0,4 -4,0 z M 8,8 l 4,0 0,4 -4,0 z M 12,8 l 4,0 0,4 -4,0 z M 16,8 l 4,0 0,4 -4,0 z M 24,8 l 4,0 0,4 -4,0 z M 40,8 l 4,0 0,4 -4,0 z M 48,8 l 4,0 0,4 -4,0 z M 56,8 l 4,0 0,4 -4,0 z M 60,8 l 4,0 0,4 -4,0 z M 68,8 l 4,0 0,4 -4,0 z M 72,8 l 4,0 0,4 -4,0 z M 76,8 l 4,0 0,4 -4,0 z M 84,8 l 4,0 0,4 -4,0 z M 92,8 l 4,0 0,4 -4,0 z M 108,8 l 4,0 0,4 -4,0 z M 112,8 l 4,0 0,4 -4,0 z M 120,8 l 4,0 0,4 -4,0 z M 128,8 l 4,0 0,4 -4,0 z M 132,8 l 4,0 0,4 -4,0 z M 136,8 l 4,0 0,4 -4,0 z M 156,8 l 4,0 0,4 -4,0 z M 160,8 l 4,0 0,4 -4,0 z M 168,8 l 4,0 0,4 -4,0 z M 172,8 l 4,0 0,4 -4,0 z M 180,8 l 4,0 0,4 -4,0 z M 184,8 l 4,0 0,4 -4,0 z M 196,8 l 4,0 0,4 -4,0 z M 200,8 l 4,0 0,4 -4,0 z M 204,8 l 4,0 0,4 -4,0 z M 208,8 l 4,0 0,4 -4,0 z M 216,8 l 4,0 0,4 -4,0 z M 224,8 l 4,0 0,4 -4,0 z M 228,8 l 4,0 0,4 -4,0 z M 232,8 l 4,0 0,4 -4,0 z M 240,8 l 4,0 0,4 -4,0 z M 0,12 l 4,0 0,4 -4,0 z M 8,12 l 4,0 0,4 -4,0 z M 12,12 l 4,0 0,4 -4,0 z M 16,12 l 4,0 0,4 -4,0 z M 24,12 l 4,0 0,4 -4,0 z M 32,12 l 4,0 0,4 -4,0 z M 36,12 l 4,0 0,4 -4,0 z M 48,12 l 4,0 0,4 -4,0 z M 52,12 l 4,0 0,4 -4,0 z M 56,12 l 4,0 0,4 -4,0 z M 60,12 l 4,0 0,4 -4,0 z M 64,12 l 4,0 0,4 -4,0 z M 76,12 l 4,0 0,4 -4,0 z M 104,12 l 4,0 0,4 -4,0 z M 116,12 l 4,0 0,4 -4,0 z M 124,12 l 4,0 0,4 -4,0 z M 144,12 l 4,0 0,4 -4,0 z M 148,12 l 4,0 0,4 -4,0 z M 152,12 l 4,0 0,4 -4,0 z M 156,12 l 4,0 0,4 -4,0 z M 168,12 l 4,0 0,4 -4,0 z M 180,12 l 4,0 0,4 -4,0 z M 188,12 l 4,0 0,4 -4,0 z M 200,12 l 4,0 0,4 -4,0 z M 208,12 l 4,0 0,4 -4,0 z M 216,12 l 4,0 0,4 -4,0 z M 224,12 l 4,0 0,4 -4,0 z M 228,12 l 4,0 0,4 -4,0 z M 232,12 l 4,0 0,4 -4,0 z M 240,12 l 4,0 0,4 -4,0 z M 0,16 l 4,0 0,4 -4,0 z M 8,16 l 4,0 0,4 -4,0 z M 12,16 l 4,0 0,4 -4,0 z M 16,16 l 4,0 0,4 -4,0 z M 24,16 l 4,0 0,4 -4,0 z M 36,16 l 4,0 0,4 -4,0 z M 44,16 l 4,0 0,4 -4,0 z M 52,16 l 4,0 0,4 -4,0 z M 56,16 l 4,0 0,4 -4,0 z M 64,16 l 4,0 0,4 -4,0 z M 72,16 l 4,0 0,4 -4,0 z M 100,16 l 4,0 0,4 -4,0 z M 104,16 l 4,0 0,4 -4,0 z M 112,16 l 4,0 0,4 -4,0 z M 116,16 l 4,0 0,4 -4,0 z M 120,16 l 4,0 0,4 -4,0 z M 124,16 l 4,0 0,4 -4,0 z M 128,16 l 4,0 0,4 -4,0 z M 132,16 l 4,0 0,4 -4,0 z M 136,16 l 4,0 0,4 -4,0 z M 140,16 l 4,0 0,4 -4,0 z M 144,16 l 4,0 0,4 -4,0 z M 152,16 l 4,0 0,4 -4,0 z M 156,16 l 4,0 0,4 -4,0 z M 164,16 l 4,0 0,4 -4,0 z M 168,16 l 4,0 0,4 -4,0 z M 180,16 l 4,0 0,4 -4,0 z M 192,16 l 4,0 0,4 -4,0 z M 196,16 l 4,0 0,4 -4,0 z M 200,16 l 4,0 0,4 -4,0 z M 204,16 l 4,0 0,4 -4,0 z M 216,16 l 4,0 0,4 -4,0 z M 224,16 l 4,0 0,4 -4,0 z M 228,16 l 4,0 0,4 -4,0 z M 232,16 l 4,0 0,4 -4,0 z M 240,16 l 4,0 0,4 -4,0 z M 0,20 l 4,0 0,4 -4,0 z M 24,20 l 4,0 0,4 -4,0 z M 32,20 l 4,0 0,4 -4,0 z M 44,20 l 4,0 0,4 -4,0 z M 48,20 l 4,0 0,4 -4,0 z M 52,20 l 4,0 0,4 -4,0 z M 60,20 l 4,0 0,4 -4,0 z M 68,20 l 4,0 0,4 -4,0 z M 80,20 l 4,0 0,4 -4,0 z M 92,20 l 4,0 0,4 -4,0 z M 96,20 l 4,0 0,4 -4,0 z M 104,20 l 4,0 0,4 -4,0 z M 108,20 l 4,0 0,4 -4,0 z M 112,20 l 4,0 0,4 -4,0 z M 128,20 l 4,0 0,4 -4,0 z M 136,20 l 4,0 0,4 -4,0 z M 140,20 l 4,0 0,4 -4,0 z M 144,20 l 4,0 0,4 -4,0 z M 148,20 l 4,0 0,4 -4,0 z M 152,20 l 4,0 0,4 -4,0 z M 172,20 l 4,0 0,4 -4,0 z M 180,20 l 4,0 0,4 -4,0 z M 188,20 l 4,0 0,4 -4,0 z M 192,20 l 4,0 0,4 -4,0 z M 196,20 l 4,0 0,4 -4,0 z M 200,20 l 4,0 0,4 -4,0 z M 216,20 l 4,0 0,4 -4,0 z M 240,20 l 4,0 0,4 -4,0 z M 0,24 l 4,0 0,4 -4,0 z M 4,24 l 4,0 0,4 -4,0 z M 8,24 l 4,0 0,4 -4,0 z M 12,24 l 4,0 0,4 -4,0 z M 16,24 l 4,0 0,4 -4,0 z M 20,24 l 4,0 0,4 -4,0 z M 24,24 l 4,0 0,4 -4,0 z M 32,24 l 4,0 0,4 -4,0 z M 40,24 l 4,0 0,4 -4,0 z M 48,24 l 4,0 0,4 -4,0 z M 56,24 l 4,0 0,4 -4,0 z M 64,24 l 4,0 0,4 -4,0 z M 72,24 l 4,0 0,4 -4,0 z M 80,24 l 4,0 0,4 -4,0 z M 88,24 l 4,0 0,4 -4,0 z M 96,24 l 4,0 0,4 -4,0 z M 104,24 l 4,0 0,4 -4,0 z M 112,24 l 4,0 0,4 -4,0 z M 120,24 l 4,0 0,4 -4,0 z M 128,24 l 4,0 0,4 -4,0 z M 136,24 l 4,0 0,4 -4,0 z M 144,24 l 4,0 0,4 -4,0 z M 152,24 l 4,0 0,4 -4,0 z M 160,24 l 4,0 0,4 -4,0 z M 168,24 l 4,0 0,4 -4,0 z M 176,24 l 4,0 0,4 -4,0 z M 184,24 l 4,0 0,4 -4,0 z M 192,24 l 4,0 0,4 -4,0 z M 200,24 l 4,0 0,4 -4,0 z M 208,24 l 4,0 0,4 -4,0 z M 216,24 l 4,0 0,4 -4,0 z M 220,24 l 4,0 0,4 -4,0 z M 224,24 l 4,0 0,4 -4,0 z M 228,24 l 4,0 0,4 -4,0 z M 232,24 l 4,0 0,4 -4,0 z M 236,24 l 4,0 0,4 -4,0 z M 240,24 l 4,0 0,4 -4,0 z M 40,28 l 4,0 0,4 -4,0 z M 52,28 l 4,0 0,4 -4,0 z M 60,28 l 4,0 0,4 -4,0 z M 64,28 l 4,0 0,4 -4,0 z M 76,28 l 4,0 0,4 -4,0 z M 84,28 l 4,0 0,4 -4,0 z M 96,28 l 4,0 0,4 -4,0 z M 108,28 l 4,0 0,4 -4,0 z M 112,28 l 4,0 0,4 -4,0 z M 128,28 l 4,0 0,4 -4,0 z M 132,28 l 4,0 0,4 -4,0 z M 148,28 l 4,0 0,4 -4,0 z M 156,28 l 4,0 0,4 -4,0 z M 164,28 l 4,0 0,4 -4,0 z M 168,28 l 4,0 0,4 -4,0 z M 172,28 l 4,0 0,4 -4,0 z M 176,28 l 4,0 0,4 -4,0 z M 184,28 l 4,0 0,4 -4,0 z M 192,28 l 4,0 0,4 -4,0 z M 196,28 l 4,0 0,4 -4,0 z M 0,32 l 4,0 0,4 -4,0 z M 4,32 l 4,0 0,4 -4,0 z M 8,32 l 4,0 0,4 -4,0 z M 12,32 l 4,0 0,4 -4,0 z M 16,32 l 4,0 0,4 -4,0 z M 24,32 l 4,0 0,4 -4,0 z M 28,32 l 4,0 0,4 -4,0 z M 32,32 l 4,0 0,4 -4,0 z M 44,32 l 4,0 0,4 -4,0 z M 60,32 l 4,0 0,4 -4,0 z M 68,32 l 4,0 0,4 -4,0 z M 76,32 l 4,0 0,4 -4,0 z M 84,32 l 4,0 0,4 -4,0 z M 88,32 l 4,0 0,4 -4,0 z M 92,32 l 4,0 0,4 -4,0 z M 104,32 l 4,0 0,4 -4,0 z M 112,32 l 4,0 0,4 -4,0 z M 116,32 l 4,0 0,4 -4,0 z M 120,32 l 4,0 0,4 -4,0 z M 124,32 l 4,0 0,4 -4,0 z M 128,32 l 4,0 0,4 -4,0 z M 136,32 l 4,0 0,4 -4,0 z M 140,32 l 4,0 0,4 -4,0 z M 148,32 l 4,0 0,4 -4,0 z M 156,32 l 4,0 0,4 -4,0 z M 160,32 l 4,0 0,4 -4,0 z M 164,32 l 4,0 0,4 -4,0 z M 200,32 l 4,0 0,4 -4,0 z M 212,32 l 4,0 0,4 -4,0 z M 220,32 l 4,0 0,4 -4,0 z M 228,32 l 4,0 0,4 -4,0 z M 236,32 l 4,0 0,4 -4,0 z M 8,36 l 4,0 0,4 -4,0 z M 12,36 l 4,0 0,4 -4,0 z M 20,36 l 4,0 0,4 -4,0 z M 44,36 l 4,0 0,4 -4,0 z M 56,36 l 4,0 0,4 -4,0 z M 60,36 l 4,0 0,4 -4,0 z M 64,36 l 4,0 0,4 -4,0 z M 72,36 l 4,0 0,4 -4,0 z M 88,36 l 4,0 0,4 -4,0 z M 128,36 l 4,0 0,4 -4,0 z M 132,36 l 4,0 0,4 -4,0 z M 136,36 l 4,0 0,4 -4,0 z M 144,36 l 4,0 0,4 -4,0 z M 152,36 l 4,0 0,4 -4,0 z M 164,36 l 4,0 0,4 -4,0 z M 168,36 l 4,0 0,4 -4,0 z M 172,36 l 4,0 0,4 -4,0 z M 180,36 l 4,0 0,4 -4,0 z M 184,36 l 4,0 0,4 -4,0 z M 188,36 l 4,0 0,4 -4,0 z M 192,36 l 4,0 0,4 -4,0 z M 204,36 l 4,0 0,4 -4,0 z M 208,36 l 4,0 0,4 -4,0 z M 212,36 l 4,0 0,4 -4,0 z M 216,36 l 4,0 0,4 -4,0 z M 220,36 l 4,0 0,4 -4,0 z M 236,36 l 4,0 0,4 -4,0 z M 0,40 l 4,0 0,4 -4,0 z M 4,40 l 4,0 0,4 -4,0 z M 8,40 l 4,0 0,4 -4,0 z M 12,40 l 4,0 0,4 -4,0 z M 16,40 l 4,0 0,4 -4,0 z M 24,40 l 4,0 0,4 -4,0 z M 28,40 l 4,0 0,4 -4,0 z M 36,40 l 4,0 0,4 -4,0 z M 40,40 l 4,0 0,4 -4,0 z M 56,40 l 4,0 0,4 -4,0 z M 60,40 l 4,0 0,4 -4,0 z M 64,40 l 4,0 0,4 -4,0 z M 68,40 l 4,0 0,4 -4,0 z M 72,40 l 4,0 0,4 -4,0 z M 76,40 l 4,0 0,4 -4,0 z M 84,40 l 4,0 0,4 -4,0 z M 88,40 l 4,0 0,4 -4,0 z M 96,40 l 4,0 0,4 -4,0 z M 100,40 l 4,0 0,4 -4,0 z M 108,40 l 4,0 0,4 -4,0 z M 112,40 l 4,0 0,4 -4,0 z M 116,40 l 4,0 0,4 -4,0 z M 120,40 l 4,0 0,4 -4,0 z M 128,40 l 4,0 0,4 -4,0 z M 132,40 l 4,0 0,4 -4,0 z M 136,40 l 4,0 0,4 -4,0 z M 140,40 l 4,0 0,4 -4,0 z M 144,40 l 4,0 0,4 -4,0 z M 152,40 l 4,0 0,4 -4,0 z M 156,40 l 4,0 0,4 -4,0 z M 160,40 l 4,0 0,4 -4,0 z M 164,40 l 4,0 0,4 -4,0 z M 168,40 l 4,0 0,4 -4,0 z M 172,40 l 4,0 0,4 -4,0 z M 184,40 l 4,0 0,4 -4,0 z M 188,40 l 4,0 0,4 -4,0 z M 204,40 l 4,0 0,4 -4,0 z M 216,40 l 4,0 0,4 -4,0 z M 220,40 l 4,0 0,4 -4,0 z M 224,40 l 4,0 0,4 -4,0 z M 228,40 l 4,0 0,4 -4,0 z M 232,40 l 4,0 0,4 -4,0 z M 236,40 l 4,0 0,4 -4,0 z M 240,40 l 4,0 0,4 -4,0 z M 4,44 l 4,0 0,4 -4,0 z M 8,44 l 4,0 0,4 -4,0 z M 16,44 l 4,0 0,4 -4,0 z M 28,44 l 4,0 0,4 -4,0 z M 32,44 l 4,0 0,4 -4,0 z M 96,44 l 4,0 0,4 -4,0 z M 104,44 l 4,0 0,4 -4,0 z M 108,44 l 4,0 0,4 -4,0 z M 124,44 l 4,0 0,4 -4,0 z M 140,44 l 4,0 0,4 -4,0 z M 144,44 l 4,0 0,4 -4,0 z M 152,44 l 4,0 0,4 -4,0 z M 164,44 l 4,0 0,4 -4,0 z M 168,44 l 4,0 0,4 -4,0 z M 184,44 l 4,0 0,4 -4,0 z M 192,44 l 4,0 0,4 -4,0 z M 200,44 l 4,0 0,4 -4,0 z M 212,44 l 4,0 0,4 -4,0 z M 216,44 l 4,0 0,4 -4,0 z M 220,44 l 4,0 0,4 -4,0 z M 224,44 l 4,0 0,4 -4,0 z M 232,44 l 4,0 0,4 -4,0 z M 236,44 l 4,0 0,4 -4,0 z M 240,44 l 4,0 0,4 -4,0 z M 0,48 l 4,0 0,4 -4,0 z M 4,48 l 4,0 0,4 -4,0 z M 8,48 l 4,0 0,4 -4,0 z M 16,48 l 4,0 0,4 -4,0 z M 20,48 l 4,0 0,4 -4,0 z M 24,48 l 4,0 0,4 -4,0 z M 28,48 l 4,0 0,4 -4,0 z M 40,48 l 4,0 0,4 -4,0 z M 48,48 l 4,0 0,4 -4,0 z M 52,48 l 4,0 0,4 -4,0 z M 56,48 l 4,0 0,4 -4,0 z M 60,48 l 4,0 0,4 -4,0 z M 64,48 l 4,0 0,4 -4,0 z M 68,48 l 4,0 0,4 -4,0 z M 76,48 l 4,0 0,4 -4,0 z M 80,48 l 4,0 0,4 -4,0 z M 84,48 l 4,0 0,4 -4,0 z M 88,48 l 4,0 0,4 -4,0 z M 96,48 l 4,0 0,4 -4,0 z M 100,48 l 4,0 0,4 -4,0 z M 108,48 l 4,0 0,4 -4,0 z M 136,48 l 4,0 0,4 -4,0 z M 148,48 l 4,0 0,4 -4,0 z M 168,48 l 4,0 0,4 -4,0 z M 180,48 l 4,0 0,4 -4,0 z M 192,48 l 4,0 0,4 -4,0 z M 196,48 l 4,0 0,4 -4,0 z M 204,48 l 4,0 0,4 -4,0 z M 208,48 l 4,0 0,4 -4,0 z M 216,48 l 4,0 0,4 -4,0 z M 224,48 l 4,0 0,4 -4,0 z M 236,48 l 4,0 0,4 -4,0 z M 240,48 l 4,0 0,4 -4,0 z M 8,52 l 4,0 0,4 -4,0 z M 12,52 l 4,0 0,4 -4,0 z M 20,52 l 4,0 0,4 -4,0 z M 32,52 l 4,0 0,4 -4,0 z M 44,52 l 4,0 0,4 -4,0 z M 48,52 l 4,0 0,4 -4,0 z M 56,52 l 4,0 0,4 -4,0 z M 60,52 l 4,0 0,4 -4,0 z M 72,52 l 4,0 0,4 -4,0 z M 80,52 l 4,0 0,4 -4,0 z M 84,52 l 4,0 0,4 -4,0 z M 92,52 l 4,0 0,4 -4,0 z M 100,52 l 4,0 0,4 -4,0 z M 108,52 l 4,0 0,4 -4,0 z M 116,52 l 4,0 0,4 -4,0 z M 120,52 l 4,0 0,4 -4,0 z M 128,52 l 4,0 0,4 -4,0 z M 140,52 l 4,0 0,4 -4,0 z M 144,52 l 4,0 0,4 -4,0 z M 156,52 l 4,0 0,4 -4,0 z M 184,52 l 4,0 0,4 -4,0 z M 192,52 l 4,0 0,4 -4,0 z M 196,52 l 4,0 0,4 -4,0 z M 200,52 l 4,0 0,4 -4,0 z M 204,52 l 4,0 0,4 -4,0 z M 208,52 l 4,0 0,4 -4,0 z M 212,52 l 4,0 0,4 -4,0 z M 216,52 l 4,0 0,4 -4,0 z M 220,52 l 4,0 0,4 -4,0 z M 236,52 l 4,0 0,4 -4,0 z M 240,52 l 4,0 0,4 -4,0 z M 8,56 l 4,0 0,4 -4,0 z M 12,56 l 4,0 0,4 -4,0 z M 16,56 l 4,0 0,4 -4,0 z M 20,56 l 4,0 0,4 -4,0 z M 24,56 l 4,0 0,4 -4,0 z M 28,56 l 4,0 0,4 -4,0 z M 32,56 l 4,0 0,4 -4,0 z M 40,56 l 4,0 0,4 -4,0 z M 44,56 l 4,0 0,4 -4,0 z M 48,56 l 4,0 0,4 -4,0 z M 52,56 l 4,0 0,4 -4,0 z M 56,56 l 4,0 0,4 -4,0 z M 64,56 l 4,0 0,4 -4,0 z M 72,56 l 4,0 0,4 -4,0 z M 84,56 l 4,0 0,4 -4,0 z M 88,56 l 4,0 0,4 -4,0 z M 96,56 l 4,0 0,4 -4,0 z M 100,56 l 4,0 0,4 -4,0 z M 112,56 l 4,0 0,4 -4,0 z M 116,56 l 4,0 0,4 -4,0 z M 120,56 l 4,0 0,4 -4,0 z M 124,56 l 4,0 0,4 -4,0 z M 128,56 l 4,0 0,4 -4,0 z M 132,56 l 4,0 0,4 -4,0 z M 136,56 l 4,0 0,4 -4,0 z M 148,56 l 4,0 0,4 -4,0 z M 152,56 l 4,0 0,4 -4,0 z M 164,56 l 4,0 0,4 -4,0 z M 168,56 l 4,0 0,4 -4,0 z M 180,56 l 4,0 0,4 -4,0 z M 184,56 l 4,0 0,4 -4,0 z M 192,56 l 4,0 0,4 -4,0 z M 200,56 l 4,0 0,4 -4,0 z M 204,56 l 4,0 0,4 -4,0 z M 212,56 l 4,0 0,4 -4,0 z M 216,56 l 4,0 0,4 -4,0 z M 220,56 l 4,0 0,4 -4,0 z M 228,56 l 4,0 0,4 -4,0 z M 236,56 l 4,0 0,4 -4,0 z M 240,56 l 4,0 0,4 -4,0 z M 4,60 l 4,0 0,4 -4,0 z M 8,60 l 4,0 0,4 -4,0 z M 12,60 l 4,0 0,4 -4,0 z M 20,60 l 4,0 0,4 -4,0 z M 28,60 l 4,0 0,4 -4,0 z M 36,60 l 4,0 0,4 -4,0 z M 48,60 l 4,0 0,4 -4,0 z M 56,60 l 4,0 0,4 -4,0 z M 72,60 l 4,0 0,4 -4,0 z M 84,60 l 4,0 0,4 -4,0 z M 88,60 l 4,0 0,4 -4,0 z M 92,60 l 4,0 0,4 -4,0 z M 96,60 l 4,0 0,4 -4,0 z M 100,60 l 4,0 0,4 -4,0 z M 108,60 l 4,0 0,4 -4,0 z M 112,60 l 4,0 0,4 -4,0 z M 136,60 l 4,0 0,4 -4,0 z M 144,60 l 4,0 0,4 -4,0 z M 148,60 l 4,0 0,4 -4,0 z M 156,60 l 4,0 0,4 -4,0 z M 160,60 l 4,0 0,4 -4,0 z M 164,60 l 4,0 0,4 -4,0 z M 180,60 l 4,0 0,4 -4,0 z M 192,60 l 4,0 0,4 -4,0 z M 196,60 l 4,0 0,4 -4,0 z M 200,60 l 4,0 0,4 -4,0 z M 204,60 l 4,0 0,4 -4,0 z M 208,60 l 4,0 0,4 -4,0 z M 212,60 l 4,0 0,4 -4,0 z M 216,60 l 4,0 0,4 -4,0 z M 224,60 l 4,0 0,4 -4,0 z M 228,60 l 4,0 0,4 -4,0 z M 232,60 l 4,0 0,4 -4,0 z M 236,60 l 4,0 0,4 -4,0 z M 240,60 l 4,0 0,4 -4,0 z M 0,64 l 4,0 0,4 -4,0 z M 8,64 l 4,0 0,4 -4,0 z M 20,64 l 4,0 0,4 -4,0 z M 24,64 l 4,0 0,4 -4,0 z M 32,64 l 4,0 0,4 -4,0 z M 44,64 l 4,0 0,4 -4,0 z M 52,64 l 4,0 0,4 -4,0 z M 56,64 l 4,0 0,4 -4,0 z M 60,64 l 4,0 0,4 -4,0 z M 76,64 l 4,0 0,4 -4,0 z M 80,64 l 4,0 0,4 -4,0 z M 84,64 l 4,0 0,4 -4,0 z M 88,64 l 4,0 0,4 -4,0 z M 104,64 l 4,0 0,4 -4,0 z M 108,64 l 4,0 0,4 -4,0 z M 116,64 l 4,0 0,4 -4,0 z M 152,64 l 4,0 0,4 -4,0 z M 156,64 l 4,0 0,4 -4,0 z M 160,64 l 4,0 0,4 -4,0 z M 164,64 l 4,0 0,4 -4,0 z M 168,64 l 4,0 0,4 -4,0 z M 180,64 l 4,0 0,4 -4,0 z M 192,64 l 4,0 0,4 -4,0 z M 200,64 l 4,0 0,4 -4,0 z M 208,64 l 4,0 0,4 -4,0 z M 212,64 l 4,0 0,4 -4,0 z M 216,64 l 4,0 0,4 -4,0 z M 228,64 l 4,0 0,4 -4,0 z M 232,64 l 4,0 0,4 -4,0 z M 4,68 l 4,0 0,4 -4,0 z M 8,68 l 4,0 0,4 -4,0 z M 12,68 l 4,0 0,4 -4,0 z M 16,68 l 4,0 0,4 -4,0 z M 32,68 l 4,0 0,4 -4,0 z M 36,68 l 4,0 0,4 -4,0 z M 40,68 l 4,0 0,4 -4,0 z M 48,68 l 4,0 0,4 -4,0 z M 64,68 l 4,0 0,4 -4,0 z M 68,68 l 4,0 0,4 -4,0 z M 80,68 l 4,0 0,4 -4,0 z M 84,68 l 4,0 0,4 -4,0 z M 92,68 l 4,0 0,4 -4,0 z M 100,68 l 4,0 0,4 -4,0 z M 104,68 l 4,0 0,4 -4,0 z M 108,68 l 4,0 0,4 -4,0 z M 112,68 l 4,0 0,4 -4,0 z M 116,68 l 4,0 0,4 -4,0 z M 120,68 l 4,0 0,4 -4,0 z M 124,68 l 4,0 0,4 -4,0 z M 132,68 l 4,0 0,4 -4,0 z M 136,68 l 4,0 0,4 -4,0 z M 140,68 l 4,0 0,4 -4,0 z M 144,68 l 4,0 0,4 -4,0 z M 152,68 l 4,0 0,4 -4,0 z M 156,68 l 4,0 0,4 -4,0 z M 164,68 l 4,0 0,4 -4,0 z M 172,68 l 4,0 0,4 -4,0 z M 180,68 l 4,0 0,4 -4,0 z M 188,68 l 4,0 0,4 -4,0 z M 192,68 l 4,0 0,4 -4,0 z M 196,68 l 4,0 0,4 -4,0 z M 220,68 l 4,0 0,4 -4,0 z M 228,68 l 4,0 0,4 -4,0 z M 12,72 l 4,0 0,4 -4,0 z M 16,72 l 4,0 0,4 -4,0 z M 24,72 l 4,0 0,4 -4,0 z M 28,72 l 4,0 0,4 -4,0 z M 36,72 l 4,0 0,4 -4,0 z M 48,72 l 4,0 0,4 -4,0 z M 52,72 l 4,0 0,4 -4,0 z M 60,72 l 4,0 0,4 -4,0 z M 64,72 l 4,0 0,4 -4,0 z M 68,72 l 4,0 0,4 -4,0 z M 76,72 l 4,0 0,4 -4,0 z M 80,72 l 4,0 0,4 -4,0 z M 84,72 l 4,0 0,4 -4,0 z M 96,72 l 4,0 0,4 -4,0 z M 100,72 l 4,0 0,4 -4,0 z M 104,72 l 4,0 0,4 -4,0 z M 112,72 l 4,0 0,4 -4,0 z M 136,72 l 4,0 0,4 -4,0 z M 148,72 l 4,0 0,4 -4,0 z M 164,72 l 4,0 0,4 -4,0 z M 168,72 l 4,0 0,4 -4,0 z M 180,72 l 4,0 0,4 -4,0 z M 192,72 l 4,0 0,4 -4,0 z M 200,72 l 4,0 0,4 -4,0 z M 212,72 l 4,0 0,4 -4,0 z M 216,72 l 4,0 0,4 -4,0 z M 224,72 l 4,0 0,4 -4,0 z M 0,76 l 4,0 0,4 -4,0 z M 4,76 l 4,0 0,4 -4,0 z M 12,76 l 4,0 0,4 -4,0 z M 16,76 l 4,0 0,4 -4,0 z M 20,76 l 4,0 0,4 -4,0 z M 28,76 l 4,0 0,4 -4,0 z M 32,76 l 4,0 0,4 -4,0 z M 44,76 l 4,0 0,4 -4,0 z M 48,76 l 4,0 0,4 -4,0 z M 52,76 l 4,0 0,4 -4,0 z M 64,76 l 4,0 0,4 -4,0 z M 68,76 l 4,0 0,4 -4,0 z M 72,76 l 4,0 0,4 -4,0 z M 88,76 l 4,0 0,4 -4,0 z M 92,76 l 4,0 0,4 -4,0 z M 100,76 l 4,0 0,4 -4,0 z M 108,76 l 4,0 0,4 -4,0 z M 112,76 l 4,0 0,4 -4,0 z M 116,76 l 4,0 0,4 -4,0 z M 124,76 l 4,0 0,4 -4,0 z M 136,76 l 4,0 0,4 -4,0 z M 156,76 l 4,0 0,4 -4,0 z M 164,76 l 4,0 0,4 -4,0 z M 172,76 l 4,0 0,4 -4,0 z M 180,76 l 4,0 0,4 -4,0 z M 188,76 l 4,0 0,4 -4,0 z M 192,76 l 4,0 0,4 -4,0 z M 200,76 l 4,0 0,4 -4,0 z M 204,76 l 4,0 0,4 -4,0 z M 212,76 l 4,0 0,4 -4,0 z M 228,76 l 4,0 0,4 -4,0 z M 240,76 l 4,0 0,4 -4,0 z M 0,80 l 4,0 0,4 -4,0 z M 16,80 l 4,0 0,4 -4,0 z M 20,80 l 4,0 0,4 -4,0 z M 24,80 l 4,0 0,4 -4,0 z M 36,80 l 4,0 0,4 -4,0 z M 44,80 l 4,0 0,4 -4,0 z M 60,80 l 4,0 0,4 -4,0 z M 76,80 l 4,0 0,4 -4,0 z M 84,80 l 4,0 0,4 -4,0 z M 88,80 l 4,0 0,4 -4,0 z M 92,80 l 4,0 0,4 -4,0 z M 96,80 l 4,0 0,4 -4,0 z M 100,80 l 4,0 0,4 -4,0 z M 104,80 l 4,0 0,4 -4,0 z M 108,80 l 4,0 0,4 -4,0 z M 112,80 l 4,0 0,4 -4,0 z M 120,80 l 4,0 0,4 -4,0 z M 128,80 l 4,0 0,4 -4,0 z M 140,80 l 4,0 0,4 -4,0 z M 144,80 l 4,0 0,4 -4,0 z M 152,80 l 4,0 0,4 -4,0 z M 156,80 l 4,0 0,4 -4,0 z M 168,80 l 4,0 0,4 -4,0 z M 172,80 l 4,0 0,4 -4,0 z M 176,80 l 4,0 0,4 -4,0 z M 180,80 l 4,0 0,4 -4,0 z M 188,80 l 4,0 0,4 -4,0 z M 196,80 l 4,0 0,4 -4,0 z M 212,80 l 4,0 0,4 -4,0 z M 216,80 l 4,0 0,4 -4,0 z M 220,80 l 4,0 0,4 -4,0 z M 232,80 l 4,0 0,4 -4,0 z M 240,80 l 4,0 0,4 -4,0 z M 0,84 l 4,0 0,4 -4,0 z M 4,84 l 4,0 0,4 -4,0 z M 16,84 l 4,0 0,4 -4,0 z M 28,84 l 4,0 0,4 -4,0 z M 56,84 l 4,0 0,4 -4,0 z M 68,84 l 4,0 0,4 -4,0 z M 80,84 l 4,0 0,4 -4,0 z M 84,84 l 4,0 0,4 -4,0 z M 88,84 l 4,0 0,4 -4,0 z M 92,84 l 4,0 0,4 -4,0 z M 108,84 l 4,0 0,4 -4,0 z M 124,84 l 4,0 0,4 -4,0 z M 128,84 l 4,0 0,4 -4,0 z M 136,84 l 4,0 0,4 -4,0 z M 140,84 l 4,0 0,4 -4,0 z M 144,84 l 4,0 0,4 -4,0 z M 164,84 l 4,0 0,4 -4,0 z M 188,84 l 4,0 0,4 -4,0 z M 192,84 l 4,0 0,4 -4,0 z M 200,84 l 4,0 0,4 -4,0 z M 204,84 l 4,0 0,4 -4,0 z M 208,84 l 4,0 0,4 -4,0 z M 212,84 l 4,0 0,4 -4,0 z M 220,84 l 4,0 0,4 -4,0 z M 228,84 l 4,0 0,4 -4,0 z M 236,84 l 4,0 0,4 -4,0 z M 240,84 l 4,0 0,4 -4,0 z M 12,88 l 4,0 0,4 -4,0 z M 16,88 l 4,0 0,4 -4,0 z M 24,88 l 4,0 0,4 -4,0 z M 32,88 l 4,0 0,4 -4,0 z M 40,88 l 4,0 0,4 -4,0 z M 52,88 l 4,0 0,4 -4,0 z M 56,88 l 4,0 0,4 -4,0 z M 72,88 l 4,0 0,4 -4,0 z M 80,88 l 4,0 0,4 -4,0 z M 84,88 l 4,0 0,4 -4,0 z M 88,88 l 4,0 0,4 -4,0 z M 92,88 l 4,0 0,4 -4,0 z M 96,88 l 4,0 0,4 -4,0 z M 108,88 l 4,0 0,4 -4,0 z M 112,88 l 4,0 0,4 -4,0 z M 116,88 l 4,0 0,4 -4,0 z M 120,88 l 4,0 0,4 -4,0 z M 124,88 l 4,0 0,4 -4,0 z M 132,88 l 4,0 0,4 -4,0 z M 140,88 l 4,0 0,4 -4,0 z M 172,88 l 4,0 0,4 -4,0 z M 180,88 l 4,0 0,4 -4,0 z M 196,88 l 4,0 0,4 -4,0 z M 212,88 l 4,0 0,4 -4,0 z M 216,88 l 4,0 0,4 -4,0 z M 220,88 l 4,0 0,4 -4,0 z M 240,88 l 4,0 0,4 -4,0 z M 0,92 l 4,0 0,4 -4,0 z M 12,92 l 4,0 0,4 -4,0 z M 20,92 l 4,0 0,4 -4,0 z M 40,92 l 4,0 0,4 -4,0 z M 44,92 l 4,0 0,4 -4,0 z M 48,92 l 4,0 0,4 -4,0 z M 52,92 l 4,0 0,4 -4,0 z M 56,92 l 4,0 0,4 -4,0 z M 60,92 l 4,0 0,4 -4,0 z M 68,92 l 4,0 0,4 -4,0 z M 72,92 l 4,0 0,4 -4,0 z M 76,92 l 4,0 0,4 -4,0 z M 92,92 l 4,0 0,4 -4,0 z M 96,92 l 4,0 0,4 -4,0 z M 108,92 l 4,0 0,4 -4,0 z M 112,92 l 4,0 0,4 -4,0 z M 124,92 l 4,0 0,4 -4,0 z M 128,92 l 4,0 0,4 -4,0 z M 148,92 l 4,0 0,4 -4,0 z M 156,92 l 4,0 0,4 -4,0 z M 160,92 l 4,0 0,4 -4,0 z M 164,92 l 4,0 0,4 -4,0 z M 168,92 l 4,0 0,4 -4,0 z M 176,92 l 4,0 0,4 -4,0 z M 184,92 l 4,0 0,4 -4,0 z M 192,92 l 4,0 0,4 -4,0 z M 196,92 l 4,0 0,4 -4,0 z M 204,92 l 4,0 0,4 -4,0 z M 208,92 l 4,0 0,4 -4,0 z M 216,92 l 4,0 0,4 -4,0 z M 8,96 l 4,0 0,4 -4,0 z M 12,96 l 4,0 0,4 -4,0 z M 16,96 l 4,0 0,4 -4,0 z M 24,96 l 4,0 0,4 -4,0 z M 32,96 l 4,0 0,4 -4,0 z M 36,96 l 4,0 0,4 -4,0 z M 44,96 l 4,0 0,4 -4,0 z M 48,96 l 4,0 0,4 -4,0 z M 64,96 l 4,0 0,4 -4,0 z M 72,96 l 4,0 0,4 -4,0 z M 84,96 l 4,0 0,4 -4,0 z M 88,96 l 4,0 0,4 -4,0 z M 92,96 l 4,0 0,4 -4,0 z M 100,96 l 4,0 0,4 -4,0 z M 108,96 l 4,0 0,4 -4,0 z M 112,96 l 4,0 0,4 -4,0 z M 116,96 l 4,0 0,4 -4,0 z M 124,96 l 4,0 0,4 -4,0 z M 132,96 l 4,0 0,4 -4,0 z M 148,96 l 4,0 0,4 -4,0 z M 156,96 l 4,0 0,4 -4,0 z M 160,96 l 4,0 0,4 -4,0 z M 176,96 l 4,0 0,4 -4,0 z M 188,96 l 4,0 0,4 -4,0 z M 192,96 l 4,0 0,4 -4,0 z M 200,96 l 4,0 0,4 -4,0 z M 208,96 l 4,0 0,4 -4,0 z M 216,96 l 4,0 0,4 -4,0 z M 220,96 l 4,0 0,4 -4,0 z M 228,96 l 4,0 0,4 -4,0 z M 236,96 l 4,0 0,4 -4,0 z M 240,96 l 4,0 0,4 -4,0 z M 4,100 l 4,0 0,4 -4,0 z M 8,100 l 4,0 0,4 -4,0 z M 20,100 l 4,0 0,4 -4,0 z M 36,100 l 4,0 0,4 -4,0 z M 44,100 l 4,0 0,4 -4,0 z M 52,100 l 4,0 0,4 -4,0 z M 56,100 l 4,0 0,4 -4,0 z M 60,100 l 4,0 0,4 -4,0 z M 64,100 l 4,0 0,4 -4,0 z M 68,100 l 4,0 0,4 -4,0 z M 72,100 l 4,0 0,4 -4,0 z M 76,100 l 4,0 0,4 -4,0 z M 80,100 l 4,0 0,4 -4,0 z M 88,100 l 4,0 0,4 -4,0 z M 96,100 l 4,0 0,4 -4,0 z M 120,100 l 4,0 0,4 -4,0 z M 124,100 l 4,0 0,4 -4,0 z M 128,100 l 4,0 0,4 -4,0 z M 132,100 l 4,0 0,4 -4,0 z M 136,100 l 4,0 0,4 -4,0 z M 144,100 l 4,0 0,4 -4,0 z M 148,100 l 4,0 0,4 -4,0 z M 152,100 l 4,0 0,4 -4,0 z M 172,100 l 4,0 0,4 -4,0 z M 176,100 l 4,0 0,4 -4,0 z M 180,100 l 4,0 0,4 -4,0 z M 184,100 l 4,0 0,4 -4,0 z M 188,100 l 4,0 0,4 -4,0 z M 192,100 l 4,0 0,4 -4,0 z M 196,100 l 4,0 0,4 -4,0 z M 204,100 l 4,0 0,4 -4,0 z M 216,100 l 4,0 0,4 -4,0 z M 220,100 l 4,0 0,4 -4,0 z M 224,100 l 4,0 0,4 -4,0 z M 236,100 l 4,0 0,4 -4,0 z M 0,104 l 4,0 0,4 -4,0 z M 12,104 l 4,0 0,4 -4,0 z M 20,104 l 4,0 0,4 -4,0 z M 24,104 l 4,0 0,4 -4,0 z M 36,104 l 4,0 0,4 -4,0 z M 40,104 l 4,0 0,4 -4,0 z M 48,104 l 4,0 0,4 -4,0 z M 52,104 l 4,0 0,4 -4,0 z M 64,104 l 4,0 0,4 -4,0 z M 68,104 l 4,0 0,4 -4,0 z M 72,104 l 4,0 0,4 -4,0 z M 80,104 l 4,0 0,4 -4,0 z M 92,104 l 4,0 0,4 -4,0 z M 96,104 l 4,0 0,4 -4,0 z M 100,104 l 4,0 0,4 -4,0 z M 116,104 l 4,0 0,4 -4,0 z M 120,104 l 4,0 0,4 -4,0 z M 132,104 l 4,0 0,4 -4,0 z M 136,104 l 4,0 0,4 -4,0 z M 144,104 l 4,0 0,4 -4,0 z M 156,104 l 4,0 0,4 -4,0 z M 184,104 l 4,0 0,4 -4,0 z M 192,104 l 4,0 0,4 -4,0 z M 200,104 l 4,0 0,4 -4,0 z M 204,104 l 4,0 0,4 -4,0 z M 216,104 l 4,0 0,4 -4,0 z M 220,104 l 4,0 0,4 -4,0 z M 228,104 l 4,0 0,4 -4,0 z M 232,104 l 4,0 0,4 -4,0 z M 236,104 l 4,0 0,4 -4,0 z M 0,108 l 4,0 0,4 -4,0 z M 8,108 l 4,0 0,4 -4,0 z M 16,108 l 4,0 0,4 -4,0 z M 32,108 l 4,0 0,4 -4,0 z M 36,108 l 4,0 0,4 -4,0 z M 56,108 l 4,0 0,4 -4,0 z M 76,108 l 4,0 0,4 -4,0 z M 80,108 l 4,0 0,4 -4,0 z M 92,108 l 4,0 0,4 -4,0 z M 96,108 l 4,0 0,4 -4,0 z M 100,108 l 4,0 0,4 -4,0 z M 104,108 l 4,0 0,4 -4,0 z M 108,108 l 4,0 0,4 -4,0 z M 112,108 l 4,0 0,4 -4,0 z M 116,108 l 4,0 0,4 -4,0 z M 124,108 l 4,0 0,4 -4,0 z M 132,108 l 4,0 0,4 -4,0 z M 140,108 l 4,0 0,4 -4,0 z M 148,108 l 4,0 0,4 -4,0 z M 152,108 l 4,0 0,4 -4,0 z M 164,108 l 4,0 0,4 -4,0 z M 168,108 l 4,0 0,4 -4,0 z M 172,108 l 4,0 0,4 -4,0 z M 184,108 l 4,0 0,4 -4,0 z M 192,108 l 4,0 0,4 -4,0 z M 204,108 l 4,0 0,4 -4,0 z M 208,108 l 4,0 0,4 -4,0 z M 212,108 l 4,0 0,4 -4,0 z M 216,108 l 4,0 0,4 -4,0 z M 224,108 l 4,0 0,4 -4,0 z M 232,108 l 4,0 0,4 -4,0 z M 236,108 l 4,0 0,4 -4,0 z M 0,112 l 4,0 0,4 -4,0 z M 8,112 l 4,0 0,4 -4,0 z M 16,112 l 4,0 0,4 -4,0 z M 20,112 l 4,0 0,4 -4,0 z M 24,112 l 4,0 0,4 -4,0 z M 28,112 l 4,0 0,4 -4,0 z M 32,112 l 4,0 0,4 -4,0 z M 36,112 l 4,0 0,4 -4,0 z M 52,112 l 4,0 0,4 -4,0 z M 56,112 l 4,0 0,4 -4,0 z M 60,112 l 4,0 0,4 -4,0 z M 76,112 l 4,0 0,4 -4,0 z M 80,112 l 4,0 0,4 -4,0 z M 84,112 l 4,0 0,4 -4,0 z M 88,112 l 4,0 0,4 -4,0 z M 96,112 l 4,0 0,4 -4,0 z M 100,112 l 4,0 0,4 -4,0 z M 112,112 l 4,0 0,4 -4,0 z M 116,112 l 4,0 0,4 -4,0 z M 120,112 l 4,0 0,4 -4,0 z M 124,112 l 4,0 0,4 -4,0 z M 128,112 l 4,0 0,4 -4,0 z M 132,112 l 4,0 0,4 -4,0 z M 136,112 l 4,0 0,4 -4,0 z M 148,112 l 4,0 0,4 -4,0 z M 160,112 l 4,0 0,4 -4,0 z M 168,112 l 4,0 0,4 -4,0 z M 180,112 l 4,0 0,4 -4,0 z M 192,112 l 4,0 0,4 -4,0 z M 196,112 l 4,0 0,4 -4,0 z M 200,112 l 4,0 0,4 -4,0 z M 204,112 l 4,0 0,4 -4,0 z M 208,112 l 4,0 0,4 -4,0 z M 212,112 l 4,0 0,4 -4,0 z M 216,112 l 4,0 0,4 -4,0 z M 220,112 l 4,0 0,4 -4,0 z M 224,112 l 4,0 0,4 -4,0 z M 236,112 l 4,0 0,4 -4,0 z M 240,112 l 4,0 0,4 -4,0 z M 0,116 l 4,0 0,4 -4,0 z M 8,116 l 4,0 0,4 -4,0 z M 12,116 l 4,0 0,4 -4,0 z M 16,116 l 4,0 0,4 -4,0 z M 32,116 l 4,0 0,4 -4,0 z M 36,116 l 4,0 0,4 -4,0 z M 40,116 l 4,0 0,4 -4,0 z M 52,116 l 4,0 0,4 -4,0 z M 60,116 l 4,0 0,4 -4,0 z M 68,116 l 4,0 0,4 -4,0 z M 72,116 l 4,0 0,4 -4,0 z M 80,116 l 4,0 0,4 -4,0 z M 84,116 l 4,0 0,4 -4,0 z M 88,116 l 4,0 0,4 -4,0 z M 92,116 l 4,0 0,4 -4,0 z M 96,116 l 4,0 0,4 -4,0 z M 108,116 l 4,0 0,4 -4,0 z M 112,116 l 4,0 0,4 -4,0 z M 128,116 l 4,0 0,4 -4,0 z M 132,116 l 4,0 0,4 -4,0 z M 140,116 l 4,0 0,4 -4,0 z M 144,116 l 4,0 0,4 -4,0 z M 148,116 l 4,0 0,4 -4,0 z M 156,116 l 4,0 0,4 -4,0 z M 164,116 l 4,0 0,4 -4,0 z M 172,116 l 4,0 0,4 -4,0 z M 176,116 l 4,0 0,4 -4,0 z M 192,116 l 4,0 0,4 -4,0 z M 196,116 l 4,0 0,4 -4,0 z M 204,116 l 4,0 0,4 -4,0 z M 208,116 l 4,0 0,4 -4,0 z M 224,116 l 4,0 0,4 -4,0 z M 240,116 l 4,0 0,4 -4,0 z M 0,120 l 4,0 0,4 -4,0 z M 12,120 l 4,0 0,4 -4,0 z M 16,120 l 4,0 0,4 -4,0 z M 24,120 l 4,0 0,4 -4,0 z M 32,120 l 4,0 0,4 -4,0 z M 36,120 l 4,0 0,4 -4,0 z M 44,120 l 4,0 0,4 -4,0 z M 52,120 l 4,0 0,4 -4,0 z M 68,120 l 4,0 0,4 -4,0 z M 72,120 l 4,0 0,4 -4,0 z M 76,120 l 4,0 0,4 -4,0 z M 84,120 l 4,0 0,4 -4,0 z M 92,120 l 4,0 0,4 -4,0 z M 96,120 l 4,0 0,4 -4,0 z M 104,120 l 4,0 0,4 -4,0 z M 112,120 l 4,0 0,4 -4,0 z M 120,120 l 4,0 0,4 -4,0 z M 128,120 l 4,0 0,4 -4,0 z M 132,120 l 4,0 0,4 -4,0 z M 140,120 l 4,0 0,4 -4,0 z M 144,120 l 4,0 0,4 -4,0 z M 168,120 l 4,0 0,4 -4,0 z M 180,120 l 4,0 0,4 -4,0 z M 188,120 l 4,0 0,4 -4,0 z M 196,120 l 4,0 0,4 -4,0 z M 200,120 l 4,0 0,4 -4,0 z M 208,120 l 4,0 0,4 -4,0 z M 216,120 l 4,0 0,4 -4,0 z M 224,120 l 4,0 0,4 -4,0 z M 228,120 l 4,0 0,4 -4,0 z M 232,120 l 4,0 0,4 -4,0 z M 240,120 l 4,0 0,4 -4,0 z M 4,124 l 4,0 0,4 -4,0 z M 16,124 l 4,0 0,4 -4,0 z M 32,124 l 4,0 0,4 -4,0 z M 44,124 l 4,0 0,4 -4,0 z M 48,124 l 4,0 0,4 -4,0 z M 52,124 l 4,0 0,4 -4,0 z M 72,124 l 4,0 0,4 -4,0 z M 76,124 l 4,0 0,4 -4,0 z M 84,124 l 4,0 0,4 -4,0 z M 92,124 l 4,0 0,4 -4,0 z M 96,124 l 4,0 0,4 -4,0 z M 104,124 l 4,0 0,4 -4,0 z M 108,124 l 4,0 0,4 -4,0 z M 112,124 l 4,0 0,4 -4,0 z M 128,124 l 4,0 0,4 -4,0 z M 140,124 l 4,0 0,4 -4,0 z M 148,124 l 4,0 0,4 -4,0 z M 156,124 l 4,0 0,4 -4,0 z M 164,124 l 4,0 0,4 -4,0 z M 168,124 l 4,0 0,4 -4,0 z M 172,124 l 4,0 0,4 -4,0 z M 200,124 l 4,0 0,4 -4,0 z M 208,124 l 4,0 0,4 -4,0 z M 224,124 l 4,0 0,4 -4,0 z M 228,124 l 4,0 0,4 -4,0 z M 236,124 l 4,0 0,4 -4,0 z M 240,124 l 4,0 0,4 -4,0 z M 4,128 l 4,0 0,4 -4,0 z M 8,128 l 4,0 0,4 -4,0 z M 16,128 l 4,0 0,4 -4,0 z M 20,128 l 4,0 0,4 -4,0 z M 24,128 l 4,0 0,4 -4,0 z M 28,128 l 4,0 0,4 -4,0 z M 32,128 l 4,0 0,4 -4,0 z M 36,128 l 4,0 0,4 -4,0 z M 40,128 l 4,0 0,4 -4,0 z M 44,128 l 4,0 0,4 -4,0 z M 56,128 l 4,0 0,4 -4,0 z M 76,128 l 4,0 0,4 -4,0 z M 80,128 l 4,0 0,4 -4,0 z M 84,128 l 4,0 0,4 -4,0 z M 92,128 l 4,0 0,4 -4,0 z M 104,128 l 4,0 0,4 -4,0 z M 108,128 l 4,0 0,4 -4,0 z M 112,128 l 4,0 0,4 -4,0 z M 116,128 l 4,0 0,4 -4,0 z M 120,128 l 4,0 0,4 -4,0 z M 124,128 l 4,0 0,4 -4,0 z M 128,128 l 4,0 0,4 -4,0 z M 132,128 l 4,0 0,4 -4,0 z M 148,128 l 4,0 0,4 -4,0 z M 152,128 l 4,0 0,4 -4,0 z M 156,128 l 4,0 0,4 -4,0 z M 164,128 l 4,0 0,4 -4,0 z M 168,128 l 4,0 0,4 -4,0 z M 172,128 l 4,0 0,4 -4,0 z M 176,128 l 4,0 0,4 -4,0 z M 180,128 l 4,0 0,4 -4,0 z M 192,128 l 4,0 0,4 -4,0 z M 196,128 l 4,0 0,4 -4,0 z M 200,128 l 4,0 0,4 -4,0 z M 208,128 l 4,0 0,4 -4,0 z M 212,128 l 4,0 0,4 -4,0 z M 216,128 l 4,0 0,4 -4,0 z M 220,128 l 4,0 0,4 -4,0 z M 224,128 l 4,0 0,4 -4,0 z M 236,128 l 4,0 0,4 -4,0 z M 0,132 l 4,0 0,4 -4,0 z M 8,132 l 4,0 0,4 -4,0 z M 28,132 l 4,0 0,4 -4,0 z M 32,132 l 4,0 0,4 -4,0 z M 36,132 l 4,0 0,4 -4,0 z M 56,132 l 4,0 0,4 -4,0 z M 60,132 l 4,0 0,4 -4,0 z M 68,132 l 4,0 0,4 -4,0 z M 84,132 l 4,0 0,4 -4,0 z M 92,132 l 4,0 0,4 -4,0 z M 100,132 l 4,0 0,4 -4,0 z M 104,132 l 4,0 0,4 -4,0 z M 112,132 l 4,0 0,4 -4,0 z M 116,132 l 4,0 0,4 -4,0 z M 120,132 l 4,0 0,4 -4,0 z M 132,132 l 4,0 0,4 -4,0 z M 144,132 l 4,0 0,4 -4,0 z M 156,132 l 4,0 0,4 -4,0 z M 160,132 l 4,0 0,4 -4,0 z M 172,132 l 4,0 0,4 -4,0 z M 204,132 l 4,0 0,4 -4,0 z M 216,132 l 4,0 0,4 -4,0 z M 220,132 l 4,0 0,4 -4,0 z M 224,132 l 4,0 0,4 -4,0 z M 8,136 l 4,0 0,4 -4,0 z M 20,136 l 4,0 0,4 -4,0 z M 24,136 l 4,0 0,4 -4,0 z M 28,136 l 4,0 0,4 -4,0 z M 40,136 l 4,0 0,4 -4,0 z M 44,136 l 4,0 0,4 -4,0 z M 56,136 l 4,0 0,4 -4,0 z M 68,136 l 4,0 0,4 -4,0 z M 92,136 l 4,0 0,4 -4,0 z M 96,136 l 4,0 0,4 -4,0 z M 100,136 l 4,0 0,4 -4,0 z M 104,136 l 4,0 0,4 -4,0 z M 116,136 l 4,0 0,4 -4,0 z M 120,136 l 4,0 0,4 -4,0 z M 124,136 l 4,0 0,4 -4,0 z M 128,136 l 4,0 0,4 -4,0 z M 132,136 l 4,0 0,4 -4,0 z M 136,136 l 4,0 0,4 -4,0 z M 144,136 l 4,0 0,4 -4,0 z M 148,136 l 4,0 0,4 -4,0 z M 152,136 l 4,0 0,4 -4,0 z M 156,136 l 4,0 0,4 -4,0 z M 172,136 l 4,0 0,4 -4,0 z M 176,136 l 4,0 0,4 -4,0 z M 180,136 l 4,0 0,4 -4,0 z M 188,136 l 4,0 0,4 -4,0 z M 200,136 l 4,0 0,4 -4,0 z M 204,136 l 4,0 0,4 -4,0 z M 212,136 l 4,0 0,4 -4,0 z M 220,136 l 4,0 0,4 -4,0 z M 228,136 l 4,0 0,4 -4,0 z M 0,140 l 4,0 0,4 -4,0 z M 4,140 l 4,0 0,4 -4,0 z M 8,140 l 4,0 0,4 -4,0 z M 16,140 l 4,0 0,4 -4,0 z M 28,140 l 4,0 0,4 -4,0 z M 32,140 l 4,0 0,4 -4,0 z M 44,140 l 4,0 0,4 -4,0 z M 52,140 l 4,0 0,4 -4,0 z M 56,140 l 4,0 0,4 -4,0 z M 60,140 l 4,0 0,4 -4,0 z M 68,140 l 4,0 0,4 -4,0 z M 72,140 l 4,0 0,4 -4,0 z M 92,140 l 4,0 0,4 -4,0 z M 96,140 l 4,0 0,4 -4,0 z M 100,140 l 4,0 0,4 -4,0 z M 108,140 l 4,0 0,4 -4,0 z M 116,140 l 4,0 0,4 -4,0 z M 120,140 l 4,0 0,4 -4,0 z M 136,140 l 4,0 0,4 -4,0 z M 144,140 l 4,0 0,4 -4,0 z M 156,140 l 4,0 0,4 -4,0 z M 160,140 l 4,0 0,4 -4,0 z M 164,140 l 4,0 0,4 -4,0 z M 172,140 l 4,0 0,4 -4,0 z M 180,140 l 4,0 0,4 -4,0 z M 192,140 l 4,0 0,4 -4,0 z M 196,140 l 4,0 0,4 -4,0 z M 200,140 l 4,0 0,4 -4,0 z M 204,140 l 4,0 0,4 -4,0 z M 216,140 l 4,0 0,4 -4,0 z M 220,140 l 4,0 0,4 -4,0 z M 228,140 l 4,0 0,4 -4,0 z M 232,140 l 4,0 0,4 -4,0 z M 12,144 l 4,0 0,4 -4,0 z M 16,144 l 4,0 0,4 -4,0 z M 24,144 l 4,0 0,4 -4,0 z M 28,144 l 4,0 0,4 -4,0 z M 52,144 l 4,0 0,4 -4,0 z M 56,144 l 4,0 0,4 -4,0 z M 76,144 l 4,0 0,4 -4,0 z M 80,144 l 4,0 0,4 -4,0 z M 84,144 l 4,0 0,4 -4,0 z M 92,144 l 4,0 0,4 -4,0 z M 96,144 l 4,0 0,4 -4,0 z M 100,144 l 4,0 0,4 -4,0 z M 104,144 l 4,0 0,4 -4,0 z M 108,144 l 4,0 0,4 -4,0 z M 112,144 l 4,0 0,4 -4,0 z M 124,144 l 4,0 0,4 -4,0 z M 140,144 l 4,0 0,4 -4,0 z M 148,144 l 4,0 0,4 -4,0 z M 156,144 l 4,0 0,4 -4,0 z M 164,144 l 4,0 0,4 -4,0 z M 168,144 l 4,0 0,4 -4,0 z M 172,144 l 4,0 0,4 -4,0 z M 180,144 l 4,0 0,4 -4,0 z M 188,144 l 4,0 0,4 -4,0 z M 196,144 l 4,0 0,4 -4,0 z M 204,144 l 4,0 0,4 -4,0 z M 212,144 l 4,0 0,4 -4,0 z M 224,144 l 4,0 0,4 -4,0 z M 228,144 l 4,0 0,4 -4,0 z M 236,144 l 4,0 0,4 -4,0 z M 240,144 l 4,0 0,4 -4,0 z M 8,148 l 4,0 0,4 -4,0 z M 16,148 l 4,0 0,4 -4,0 z M 40,148 l 4,0 0,4 -4,0 z M 48,148 l 4,0 0,4 -4,0 z M 56,148 l 4,0 0,4 -4,0 z M 60,148 l 4,0 0,4 -4,0 z M 68,148 l 4,0 0,4 -4,0 z M 88,148 l 4,0 0,4 -4,0 z M 100,148 l 4,0 0,4 -4,0 z M 128,148 l 4,0 0,4 -4,0 z M 136,148 l 4,0 0,4 -4,0 z M 140,148 l 4,0 0,4 -4,0 z M 168,148 l 4,0 0,4 -4,0 z M 180,148 l 4,0 0,4 -4,0 z M 188,148 l 4,0 0,4 -4,0 z M 192,148 l 4,0 0,4 -4,0 z M 200,148 l 4,0 0,4 -4,0 z M 212,148 l 4,0 0,4 -4,0 z M 216,148 l 4,0 0,4 -4,0 z M 224,148 l 4,0 0,4 -4,0 z M 228,148 l 4,0 0,4 -4,0 z M 4,152 l 4,0 0,4 -4,0 z M 12,152 l 4,0 0,4 -4,0 z M 16,152 l 4,0 0,4 -4,0 z M 24,152 l 4,0 0,4 -4,0 z M 36,152 l 4,0 0,4 -4,0 z M 40,152 l 4,0 0,4 -4,0 z M 48,152 l 4,0 0,4 -4,0 z M 68,152 l 4,0 0,4 -4,0 z M 80,152 l 4,0 0,4 -4,0 z M 84,152 l 4,0 0,4 -4,0 z M 88,152 l 4,0 0,4 -4,0 z M 92,152 l 4,0 0,4 -4,0 z M 96,152 l 4,0 0,4 -4,0 z M 104,152 l 4,0 0,4 -4,0 z M 120,152 l 4,0 0,4 -4,0 z M 124,152 l 4,0 0,4 -4,0 z M 128,152 l 4,0 0,4 -4,0 z M 132,152 l 4,0 0,4 -4,0 z M 136,152 l 4,0 0,4 -4,0 z M 144,152 l 4,0 0,4 -4,0 z M 152,152 l 4,0 0,4 -4,0 z M 156,152 l 4,0 0,4 -4,0 z M 172,152 l 4,0 0,4 -4,0 z M 180,152 l 4,0 0,4 -4,0 z M 188,152 l 4,0 0,4 -4,0 z M 192,152 l 4,0 0,4 -4,0 z M 204,152 l 4,0 0,4 -4,0 z M 220,152 l 4,0 0,4 -4,0 z M 224,152 l 4,0 0,4 -4,0 z M 232,152 l 4,0 0,4 -4,0 z M 240,152 l 4,0 0,4 -4,0 z M 0,156 l 4,0 0,4 -4,0 z M 4,156 l 4,0 0,4 -4,0 z M 12,156 l 4,0 0,4 -4,0 z M 20,156 l 4,0 0,4 -4,0 z M 28,156 l 4,0 0,4 -4,0 z M 32,156 l 4,0 0,4 -4,0 z M 44,156 l 4,0 0,4 -4,0 z M 48,156 l 4,0 0,4 -4,0 z M 52,156 l 4,0 0,4 -4,0 z M 76,156 l 4,0 0,4 -4,0 z M 88,156 l 4,0 0,4 -4,0 z M 92,156 l 4,0 0,4 -4,0 z M 96,156 l 4,0 0,4 -4,0 z M 104,156 l 4,0 0,4 -4,0 z M 116,156 l 4,0 0,4 -4,0 z M 128,156 l 4,0 0,4 -4,0 z M 144,156 l 4,0 0,4 -4,0 z M 148,156 l 4,0 0,4 -4,0 z M 152,156 l 4,0 0,4 -4,0 z M 164,156 l 4,0 0,4 -4,0 z M 168,156 l 4,0 0,4 -4,0 z M 176,156 l 4,0 0,4 -4,0 z M 180,156 l 4,0 0,4 -4,0 z M 184,156 l 4,0 0,4 -4,0 z M 192,156 l 4,0 0,4 -4,0 z M 196,156 l 4,0 0,4 -4,0 z M 200,156 l 4,0 0,4 -4,0 z M 204,156 l 4,0 0,4 -4,0 z M 212,156 l 4,0 0,4 -4,0 z M 216,156 l 4,0 0,4 -4,0 z M 220,156 l 4,0 0,4 -4,0 z M 236,156 l 4,0 0,4 -4,0 z M 0,160 l 4,0 0,4 -4,0 z M 4,160 l 4,0 0,4 -4,0 z M 8,160 l 4,0 0,4 -4,0 z M 12,160 l 4,0 0,4 -4,0 z M 16,160 l 4,0 0,4 -4,0 z M 24,160 l 4,0 0,4 -4,0 z M 32,160 l 4,0 0,4 -4,0 z M 40,160 l 4,0 0,4 -4,0 z M 44,160 l 4,0 0,4 -4,0 z M 52,160 l 4,0 0,4 -4,0 z M 64,160 l 4,0 0,4 -4,0 z M 68,160 l 4,0 0,4 -4,0 z M 84,160 l 4,0 0,4 -4,0 z M 88,160 l 4,0 0,4 -4,0 z M 92,160 l 4,0 0,4 -4,0 z M 104,160 l 4,0 0,4 -4,0 z M 108,160 l 4,0 0,4 -4,0 z M 112,160 l 4,0 0,4 -4,0 z M 128,160 l 4,0 0,4 -4,0 z M 132,160 l 4,0 0,4 -4,0 z M 136,160 l 4,0 0,4 -4,0 z M 140,160 l 4,0 0,4 -4,0 z M 148,160 l 4,0 0,4 -4,0 z M 160,160 l 4,0 0,4 -4,0 z M 172,160 l 4,0 0,4 -4,0 z M 176,160 l 4,0 0,4 -4,0 z M 192,160 l 4,0 0,4 -4,0 z M 196,160 l 4,0 0,4 -4,0 z M 204,160 l 4,0 0,4 -4,0 z M 208,160 l 4,0 0,4 -4,0 z M 212,160 l 4,0 0,4 -4,0 z M 216,160 l 4,0 0,4 -4,0 z M 224,160 l 4,0 0,4 -4,0 z M 232,160 l 4,0 0,4 -4,0 z M 236,160 l 4,0 0,4 -4,0 z M 240,160 l 4,0 0,4 -4,0 z M 8,164 l 4,0 0,4 -4,0 z M 16,164 l 4,0 0,4 -4,0 z M 36,164 l 4,0 0,4 -4,0 z M 52,164 l 4,0 0,4 -4,0 z M 56,164 l 4,0 0,4 -4,0 z M 60,164 l 4,0 0,4 -4,0 z M 64,164 l 4,0 0,4 -4,0 z M 72,164 l 4,0 0,4 -4,0 z M 88,164 l 4,0 0,4 -4,0 z M 96,164 l 4,0 0,4 -4,0 z M 108,164 l 4,0 0,4 -4,0 z M 112,164 l 4,0 0,4 -4,0 z M 116,164 l 4,0 0,4 -4,0 z M 132,164 l 4,0 0,4 -4,0 z M 148,164 l 4,0 0,4 -4,0 z M 152,164 l 4,0 0,4 -4,0 z M 164,164 l 4,0 0,4 -4,0 z M 168,164 l 4,0 0,4 -4,0 z M 184,164 l 4,0 0,4 -4,0 z M 192,164 l 4,0 0,4 -4,0 z M 200,164 l 4,0 0,4 -4,0 z M 204,164 l 4,0 0,4 -4,0 z M 208,164 l 4,0 0,4 -4,0 z M 212,164 l 4,0 0,4 -4,0 z M 216,164 l 4,0 0,4 -4,0 z M 224,164 l 4,0 0,4 -4,0 z M 0,168 l 4,0 0,4 -4,0 z M 4,168 l 4,0 0,4 -4,0 z M 8,168 l 4,0 0,4 -4,0 z M 16,168 l 4,0 0,4 -4,0 z M 20,168 l 4,0 0,4 -4,0 z M 24,168 l 4,0 0,4 -4,0 z M 28,168 l 4,0 0,4 -4,0 z M 32,168 l 4,0 0,4 -4,0 z M 36,168 l 4,0 0,4 -4,0 z M 44,168 l 4,0 0,4 -4,0 z M 48,168 l 4,0 0,4 -4,0 z M 68,168 l 4,0 0,4 -4,0 z M 72,168 l 4,0 0,4 -4,0 z M 92,168 l 4,0 0,4 -4,0 z M 96,168 l 4,0 0,4 -4,0 z M 108,168 l 4,0 0,4 -4,0 z M 112,168 l 4,0 0,4 -4,0 z M 124,168 l 4,0 0,4 -4,0 z M 128,168 l 4,0 0,4 -4,0 z M 140,168 l 4,0 0,4 -4,0 z M 144,168 l 4,0 0,4 -4,0 z M 148,168 l 4,0 0,4 -4,0 z M 164,168 l 4,0 0,4 -4,0 z M 168,168 l 4,0 0,4 -4,0 z M 172,168 l 4,0 0,4 -4,0 z M 192,168 l 4,0 0,4 -4,0 z M 196,168 l 4,0 0,4 -4,0 z M 200,168 l 4,0 0,4 -4,0 z M 212,168 l 4,0 0,4 -4,0 z M 228,168 l 4,0 0,4 -4,0 z M 232,168 l 4,0 0,4 -4,0 z M 236,168 l 4,0 0,4 -4,0 z M 240,168 l 4,0 0,4 -4,0 z M 0,172 l 4,0 0,4 -4,0 z M 12,172 l 4,0 0,4 -4,0 z M 20,172 l 4,0 0,4 -4,0 z M 32,172 l 4,0 0,4 -4,0 z M 36,172 l 4,0 0,4 -4,0 z M 44,172 l 4,0 0,4 -4,0 z M 48,172 l 4,0 0,4 -4,0 z M 52,172 l 4,0 0,4 -4,0 z M 56,172 l 4,0 0,4 -4,0 z M 60,172 l 4,0 0,4 -4,0 z M 68,172 l 4,0 0,4 -4,0 z M 112,172 l 4,0 0,4 -4,0 z M 132,172 l 4,0 0,4 -4,0 z M 152,172 l 4,0 0,4 -4,0 z M 160,172 l 4,0 0,4 -4,0 z M 168,172 l 4,0 0,4 -4,0 z M 172,172 l 4,0 0,4 -4,0 z M 180,172 l 4,0 0,4 -4,0 z M 192,172 l 4,0 0,4 -4,0 z M 196,172 l 4,0 0,4 -4,0 z M 200,172 l 4,0 0,4 -4,0 z M 208,172 l 4,0 0,4 -4,0 z M 212,172 l 4,0 0,4 -4,0 z M 216,172 l 4,0 0,4 -4,0 z M 236,172 l 4,0 0,4 -4,0 z M 240,172 l 4,0 0,4 -4,0 z M 4,176 l 4,0 0,4 -4,0 z M 12,176 l 4,0 0,4 -4,0 z M 24,176 l 4,0 0,4 -4,0 z M 28,176 l 4,0 0,4 -4,0 z M 32,176 l 4,0 0,4 -4,0 z M 36,176 l 4,0 0,4 -4,0 z M 40,176 l 4,0 0,4 -4,0 z M 44,176 l 4,0 0,4 -4,0 z M 48,176 l 4,0 0,4 -4,0 z M 52,176 l 4,0 0,4 -4,0 z M 56,176 l 4,0 0,4 -4,0 z M 60,176 l 4,0 0,4 -4,0 z M 72,176 l 4,0 0,4 -4,0 z M 88,176 l 4,0 0,4 -4,0 z M 92,176 l 4,0 0,4 -4,0 z M 96,176 l 4,0 0,4 -4,0 z M 104,176 l 4,0 0,4 -4,0 z M 108,176 l 4,0 0,4 -4,0 z M 112,176 l 4,0 0,4 -4,0 z M 124,176 l 4,0 0,4 -4,0 z M 128,176 l 4,0 0,4 -4,0 z M 132,176 l 4,0 0,4 -4,0 z M 144,176 l 4,0 0,4 -4,0 z M 148,176 l 4,0 0,4 -4,0 z M 160,176 l 4,0 0,4 -4,0 z M 164,176 l 4,0 0,4 -4,0 z M 180,176 l 4,0 0,4 -4,0 z M 192,176 l 4,0 0,4 -4,0 z M 204,176 l 4,0 0,4 -4,0 z M 208,176 l 4,0 0,4 -4,0 z M 216,176 l 4,0 0,4 -4,0 z M 220,176 l 4,0 0,4 -4,0 z M 224,176 l 4,0 0,4 -4,0 z M 240,176 l 4,0 0,4 -4,0 z M 0,180 l 4,0 0,4 -4,0 z M 8,180 l 4,0 0,4 -4,0 z M 16,180 l 4,0 0,4 -4,0 z M 36,180 l 4,0 0,4 -4,0 z M 48,180 l 4,0 0,4 -4,0 z M 60,180 l 4,0 0,4 -4,0 z M 68,180 l 4,0 0,4 -4,0 z M 80,180 l 4,0 0,4 -4,0 z M 84,180 l 4,0 0,4 -4,0 z M 104,180 l 4,0 0,4 -4,0 z M 108,180 l 4,0 0,4 -4,0 z M 116,180 l 4,0 0,4 -4,0 z M 124,180 l 4,0 0,4 -4,0 z M 132,180 l 4,0 0,4 -4,0 z M 140,180 l 4,0 0,4 -4,0 z M 144,180 l 4,0 0,4 -4,0 z M 156,180 l 4,0 0,4 -4,0 z M 180,180 l 4,0 0,4 -4,0 z M 192,180 l 4,0 0,4 -4,0 z M 196,180 l 4,0 0,4 -4,0 z M 204,180 l 4,0 0,4 -4,0 z M 216,180 l 4,0 0,4 -4,0 z M 220,180 l 4,0 0,4 -4,0 z M 232,180 l 4,0 0,4 -4,0 z M 4,184 l 4,0 0,4 -4,0 z M 12,184 l 4,0 0,4 -4,0 z M 20,184 l 4,0 0,4 -4,0 z M 24,184 l 4,0 0,4 -4,0 z M 28,184 l 4,0 0,4 -4,0 z M 40,184 l 4,0 0,4 -4,0 z M 44,184 l 4,0 0,4 -4,0 z M 48,184 l 4,0 0,4 -4,0 z M 52,184 l 4,0 0,4 -4,0 z M 56,184 l 4,0 0,4 -4,0 z M 60,184 l 4,0 0,4 -4,0 z M 64,184 l 4,0 0,4 -4,0 z M 68,184 l 4,0 0,4 -4,0 z M 72,184 l 4,0 0,4 -4,0 z M 76,184 l 4,0 0,4 -4,0 z M 84,184 l 4,0 0,4 -4,0 z M 96,184 l 4,0 0,4 -4,0 z M 100,184 l 4,0 0,4 -4,0 z M 112,184 l 4,0 0,4 -4,0 z M 120,184 l 4,0 0,4 -4,0 z M 148,184 l 4,0 0,4 -4,0 z M 164,184 l 4,0 0,4 -4,0 z M 188,184 l 4,0 0,4 -4,0 z M 216,184 l 4,0 0,4 -4,0 z M 224,184 l 4,0 0,4 -4,0 z M 236,184 l 4,0 0,4 -4,0 z M 0,188 l 4,0 0,4 -4,0 z M 8,188 l 4,0 0,4 -4,0 z M 12,188 l 4,0 0,4 -4,0 z M 16,188 l 4,0 0,4 -4,0 z M 28,188 l 4,0 0,4 -4,0 z M 32,188 l 4,0 0,4 -4,0 z M 36,188 l 4,0 0,4 -4,0 z M 40,188 l 4,0 0,4 -4,0 z M 48,188 l 4,0 0,4 -4,0 z M 56,188 l 4,0 0,4 -4,0 z M 60,188 l 4,0 0,4 -4,0 z M 76,188 l 4,0 0,4 -4,0 z M 80,188 l 4,0 0,4 -4,0 z M 84,188 l 4,0 0,4 -4,0 z M 92,188 l 4,0 0,4 -4,0 z M 96,188 l 4,0 0,4 -4,0 z M 104,188 l 4,0 0,4 -4,0 z M 108,188 l 4,0 0,4 -4,0 z M 116,188 l 4,0 0,4 -4,0 z M 120,188 l 4,0 0,4 -4,0 z M 128,188 l 4,0 0,4 -4,0 z M 132,188 l 4,0 0,4 -4,0 z M 136,188 l 4,0 0,4 -4,0 z M 140,188 l 4,0 0,4 -4,0 z M 148,188 l 4,0 0,4 -4,0 z M 156,188 l 4,0 0,4 -4,0 z M 180,188 l 4,0 0,4 -4,0 z M 200,188 l 4,0 0,4 -4,0 z M 204,188 l 4,0 0,4 -4,0 z M 212,188 l 4,0 0,4 -4,0 z M 216,188 l 4,0 0,4 -4,0 z M 220,188 l 4,0 0,4 -4,0 z M 224,188 l 4,0 0,4 -4,0 z M 228,188 l 4,0 0,4 -4,0 z M 232,188 l 4,0 0,4 -4,0 z M 240,188 l 4,0 0,4 -4,0 z M 16,192 l 4,0 0,4 -4,0 z M 20,192 l 4,0 0,4 -4,0 z M 24,192 l 4,0 0,4 -4,0 z M 32,192 l 4,0 0,4 -4,0 z M 36,192 l 4,0 0,4 -4,0 z M 44,192 l 4,0 0,4 -4,0 z M 48,192 l 4,0 0,4 -4,0 z M 52,192 l 4,0 0,4 -4,0 z M 60,192 l 4,0 0,4 -4,0 z M 72,192 l 4,0 0,4 -4,0 z M 80,192 l 4,0 0,4 -4,0 z M 84,192 l 4,0 0,4 -4,0 z M 92,192 l 4,0 0,4 -4,0 z M 104,192 l 4,0 0,4 -4,0 z M 108,192 l 4,0 0,4 -4,0 z M 116,192 l 4,0 0,4 -4,0 z M 148,192 l 4,0 0,4 -4,0 z M 152,192 l 4,0 0,4 -4,0 z M 164,192 l 4,0 0,4 -4,0 z M 168,192 l 4,0 0,4 -4,0 z M 176,192 l 4,0 0,4 -4,0 z M 180,192 l 4,0 0,4 -4,0 z M 188,192 l 4,0 0,4 -4,0 z M 192,192 l 4,0 0,4 -4,0 z M 196,192 l 4,0 0,4 -4,0 z M 204,192 l 4,0 0,4 -4,0 z M 216,192 l 4,0 0,4 -4,0 z M 228,192 l 4,0 0,4 -4,0 z M 232,192 l 4,0 0,4 -4,0 z M 236,192 l 4,0 0,4 -4,0 z M 0,196 l 4,0 0,4 -4,0 z M 8,196 l 4,0 0,4 -4,0 z M 12,196 l 4,0 0,4 -4,0 z M 20,196 l 4,0 0,4 -4,0 z M 28,196 l 4,0 0,4 -4,0 z M 36,196 l 4,0 0,4 -4,0 z M 48,196 l 4,0 0,4 -4,0 z M 64,196 l 4,0 0,4 -4,0 z M 68,196 l 4,0 0,4 -4,0 z M 72,196 l 4,0 0,4 -4,0 z M 84,196 l 4,0 0,4 -4,0 z M 88,196 l 4,0 0,4 -4,0 z M 100,196 l 4,0 0,4 -4,0 z M 104,196 l 4,0 0,4 -4,0 z M 108,196 l 4,0 0,4 -4,0 z M 112,196 l 4,0 0,4 -4,0 z M 116,196 l 4,0 0,4 -4,0 z M 120,196 l 4,0 0,4 -4,0 z M 124,196 l 4,0 0,4 -4,0 z M 128,196 l 4,0 0,4 -4,0 z M 140,196 l 4,0 0,4 -4,0 z M 144,196 l 4,0 0,4 -4,0 z M 148,196 l 4,0 0,4 -4,0 z M 160,196 l 4,0 0,4 -4,0 z M 172,196 l 4,0 0,4 -4,0 z M 180,196 l 4,0 0,4 -4,0 z M 184,196 l 4,0 0,4 -4,0 z M 192,196 l 4,0 0,4 -4,0 z M 212,196 l 4,0 0,4 -4,0 z M 224,196 l 4,0 0,4 -4,0 z M 228,196 l 4,0 0,4 -4,0 z M 8,200 l 4,0 0,4 -4,0 z M 12,200 l 4,0 0,4 -4,0 z M 16,200 l 4,0 0,4 -4,0 z M 20,200 l 4,0 0,4 -4,0 z M 24,200 l 4,0 0,4 -4,0 z M 32,200 l 4,0 0,4 -4,0 z M 40,200 l 4,0 0,4 -4,0 z M 52,200 l 4,0 0,4 -4,0 z M 60,200 l 4,0 0,4 -4,0 z M 64,200 l 4,0 0,4 -4,0 z M 68,200 l 4,0 0,4 -4,0 z M 72,200 l 4,0 0,4 -4,0 z M 80,200 l 4,0 0,4 -4,0 z M 100,200 l 4,0 0,4 -4,0 z M 112,200 l 4,0 0,4 -4,0 z M 116,200 l 4,0 0,4 -4,0 z M 120,200 l 4,0 0,4 -4,0 z M 140,200 l 4,0 0,4 -4,0 z M 144,200 l 4,0 0,4 -4,0 z M 148,200 l 4,0 0,4 -4,0 z M 152,200 l 4,0 0,4 -4,0 z M 164,200 l 4,0 0,4 -4,0 z M 168,200 l 4,0 0,4 -4,0 z M 172,200 l 4,0 0,4 -4,0 z M 180,200 l 4,0 0,4 -4,0 z M 184,200 l 4,0 0,4 -4,0 z M 196,200 l 4,0 0,4 -4,0 z M 200,200 l 4,0 0,4 -4,0 z M 204,200 l 4,0 0,4 -4,0 z M 220,200 l 4,0 0,4 -4,0 z M 0,204 l 4,0 0,4 -4,0 z M 4,204 l 4,0 0,4 -4,0 z M 8,204 l 4,0 0,4 -4,0 z M 16,204 l 4,0 0,4 -4,0 z M 28,204 l 4,0 0,4 -4,0 z M 32,204 l 4,0 0,4 -4,0 z M 48,204 l 4,0 0,4 -4,0 z M 52,204 l 4,0 0,4 -4,0 z M 56,204 l 4,0 0,4 -4,0 z M 64,204 l 4,0 0,4 -4,0 z M 72,204 l 4,0 0,4 -4,0 z M 76,204 l 4,0 0,4 -4,0 z M 88,204 l 4,0 0,4 -4,0 z M 92,204 l 4,0 0,4 -4,0 z M 100,204 l 4,0 0,4 -4,0 z M 108,204 l 4,0 0,4 -4,0 z M 116,204 l 4,0 0,4 -4,0 z M 120,204 l 4,0 0,4 -4,0 z M 124,204 l 4,0 0,4 -4,0 z M 140,204 l 4,0 0,4 -4,0 z M 144,204 l 4,0 0,4 -4,0 z M 148,204 l 4,0 0,4 -4,0 z M 152,204 l 4,0 0,4 -4,0 z M 164,204 l 4,0 0,4 -4,0 z M 168,204 l 4,0 0,4 -4,0 z M 176,204 l 4,0 0,4 -4,0 z M 180,204 l 4,0 0,4 -4,0 z M 188,204 l 4,0 0,4 -4,0 z M 192,204 l 4,0 0,4 -4,0 z M 196,204 l 4,0 0,4 -4,0 z M 212,204 l 4,0 0,4 -4,0 z M 228,204 l 4,0 0,4 -4,0 z M 0,208 l 4,0 0,4 -4,0 z M 4,208 l 4,0 0,4 -4,0 z M 8,208 l 4,0 0,4 -4,0 z M 12,208 l 4,0 0,4 -4,0 z M 24,208 l 4,0 0,4 -4,0 z M 28,208 l 4,0 0,4 -4,0 z M 32,208 l 4,0 0,4 -4,0 z M 44,208 l 4,0 0,4 -4,0 z M 60,208 l 4,0 0,4 -4,0 z M 72,208 l 4,0 0,4 -4,0 z M 76,208 l 4,0 0,4 -4,0 z M 84,208 l 4,0 0,4 -4,0 z M 92,208 l 4,0 0,4 -4,0 z M 96,208 l 4,0 0,4 -4,0 z M 104,208 l 4,0 0,4 -4,0 z M 108,208 l 4,0 0,4 -4,0 z M 112,208 l 4,0 0,4 -4,0 z M 116,208 l 4,0 0,4 -4,0 z M 120,208 l 4,0 0,4 -4,0 z M 124,208 l 4,0 0,4 -4,0 z M 128,208 l 4,0 0,4 -4,0 z M 148,208 l 4,0 0,4 -4,0 z M 156,208 l 4,0 0,4 -4,0 z M 164,208 l 4,0 0,4 -4,0 z M 168,208 l 4,0 0,4 -4,0 z M 176,208 l 4,0 0,4 -4,0 z M 180,208 l 4,0 0,4 -4,0 z M 188,208 l 4,0 0,4 -4,0 z M 196,208 l 4,0 0,4 -4,0 z M 208,208 l 4,0 0,4 -4,0 z M 212,208 l 4,0 0,4 -4,0 z M 216,208 l 4,0 0,4 -4,0 z M 220,208 l 4,0 0,4 -4,0 z M 224,208 l 4,0 0,4 -4,0 z M 232,208 l 4,0 0,4 -4,0 z M 240,208 l 4,0 0,4 -4,0 z M 32,212 l 4,0 0,4 -4,0 z M 36,212 l 4,0 0,4 -4,0 z M 40,212 l 4,0 0,4 -4,0 z M 48,212 l 4,0 0,4 -4,0 z M 52,212 l 4,0 0,4 -4,0 z M 56,212 l 4,0 0,4 -4,0 z M 60,212 l 4,0 0,4 -4,0 z M 76,212 l 4,0 0,4 -4,0 z M 84,212 l 4,0 0,4 -4,0 z M 104,212 l 4,0 0,4 -4,0 z M 112,212 l 4,0 0,4 -4,0 z M 128,212 l 4,0 0,4 -4,0 z M 136,212 l 4,0 0,4 -4,0 z M 168,212 l 4,0 0,4 -4,0 z M 184,212 l 4,0 0,4 -4,0 z M 188,212 l 4,0 0,4 -4,0 z M 192,212 l 4,0 0,4 -4,0 z M 200,212 l 4,0 0,4 -4,0 z M 204,212 l 4,0 0,4 -4,0 z M 208,212 l 4,0 0,4 -4,0 z M 224,212 l 4,0 0,4 -4,0 z M 228,212 l 4,0 0,4 -4,0 z M 232,212 l 4,0 0,4 -4,0 z M 236,212 l 4,0 0,4 -4,0 z M 0,216 l 4,0 0,4 -4,0 z M 4,216 l 4,0 0,4 -4,0 z M 8,216 l 4,0 0,4 -4,0 z M 12,216 l 4,0 0,4 -4,0 z M 16,216 l 4,0 0,4 -4,0 z M 20,216 l 4,0 0,4 -4,0 z M 24,216 l 4,0 0,4 -4,0 z M 32,216 l 4,0 0,4 -4,0 z M 40,216 l 4,0 0,4 -4,0 z M 48,216 l 4,0 0,4 -4,0 z M 56,216 l 4,0 0,4 -4,0 z M 72,216 l 4,0 0,4 -4,0 z M 80,216 l 4,0 0,4 -4,0 z M 84,216 l 4,0 0,4 -4,0 z M 92,216 l 4,0 0,4 -4,0 z M 96,216 l 4,0 0,4 -4,0 z M 100,216 l 4,0 0,4 -4,0 z M 104,216 l 4,0 0,4 -4,0 z M 112,216 l 4,0 0,4 -4,0 z M 120,216 l 4,0 0,4 -4,0 z M 128,216 l 4,0 0,4 -4,0 z M 132,216 l 4,0 0,4 -4,0 z M 140,216 l 4,0 0,4 -4,0 z M 144,216 l 4,0 0,4 -4,0 z M 156,216 l 4,0 0,4 -4,0 z M 160,216 l 4,0 0,4 -4,0 z M 164,216 l 4,0 0,4 -4,0 z M 180,216 l 4,0 0,4 -4,0 z M 192,216 l 4,0 0,4 -4,0 z M 196,216 l 4,0 0,4 -4,0 z M 200,216 l 4,0 0,4 -4,0 z M 204,216 l 4,0 0,4 -4,0 z M 208,216 l 4,0 0,4 -4,0 z M 216,216 l 4,0 0,4 -4,0 z M 224,216 l 4,0 0,4 -4,0 z M 228,216 l 4,0 0,4 -4,0 z M 232,216 l 4,0 0,4 -4,0 z M 236,216 l 4,0 0,4 -4,0 z M 240,216 l 4,0 0,4 -4,0 z M 0,220 l 4,0 0,4 -4,0 z M 24,220 l 4,0 0,4 -4,0 z M 48,220 l 4,0 0,4 -4,0 z M 52,220 l 4,0 0,4 -4,0 z M 56,220 l 4,0 0,4 -4,0 z M 60,220 l 4,0 0,4 -4,0 z M 64,220 l 4,0 0,4 -4,0 z M 68,220 l 4,0 0,4 -4,0 z M 72,220 l 4,0 0,4 -4,0 z M 76,220 l 4,0 0,4 -4,0 z M 84,220 l 4,0 0,4 -4,0 z M 100,220 l 4,0 0,4 -4,0 z M 108,220 l 4,0 0,4 -4,0 z M 112,220 l 4,0 0,4 -4,0 z M 128,220 l 4,0 0,4 -4,0 z M 140,220 l 4,0 0,4 -4,0 z M 144,220 l 4,0 0,4 -4,0 z M 148,220 l 4,0 0,4 -4,0 z M 152,220 l 4,0 0,4 -4,0 z M 164,220 l 4,0 0,4 -4,0 z M 168,220 l 4,0 0,4 -4,0 z M 176,220 l 4,0 0,4 -4,0 z M 180,220 l 4,0 0,4 -4,0 z M 188,220 l 4,0 0,4 -4,0 z M 192,220 l 4,0 0,4 -4,0 z M 196,220 l 4,0 0,4 -4,0 z M 204,220 l 4,0 0,4 -4,0 z M 208,220 l 4,0 0,4 -4,0 z M 224,220 l 4,0 0,4 -4,0 z M 232,220 l 4,0 0,4 -4,0 z M 0,224 l 4,0 0,4 -4,0 z M 8,224 l 4,0 0,4 -4,0 z M 12,224 l 4,0 0,4 -4,0 z M 16,224 l 4,0 0,4 -4,0 z M 24,224 l 4,0 0,4 -4,0 z M 32,224 l 4,0 0,4 -4,0 z M 40,224 l 4,0 0,4 -4,0 z M 44,224 l 4,0 0,4 -4,0 z M 48,224 l 4,0 0,4 -4,0 z M 52,224 l 4,0 0,4 -4,0 z M 64,224 l 4,0 0,4 -4,0 z M 72,224 l 4,0 0,4 -4,0 z M 84,224 l 4,0 0,4 -4,0 z M 88,224 l 4,0 0,4 -4,0 z M 92,224 l 4,0 0,4 -4,0 z M 100,224 l 4,0 0,4 -4,0 z M 108,224 l 4,0 0,4 -4,0 z M 112,224 l 4,0 0,4 -4,0 z M 116,224 l 4,0 0,4 -4,0 z M 120,224 l 4,0 0,4 -4,0 z M 124,224 l 4,0 0,4 -4,0 z M 128,224 l 4,0 0,4 -4,0 z M 132,224 l 4,0 0,4 -4,0 z M 136,224 l 4,0 0,4 -4,0 z M 144,224 l 4,0 0,4 -4,0 z M 148,224 l 4,0 0,4 -4,0 z M 156,224 l 4,0 0,4 -4,0 z M 160,224 l 4,0 0,4 -4,0 z M 172,224 l 4,0 0,4 -4,0 z M 192,224 l 4,0 0,4 -4,0 z M 204,224 l 4,0 0,4 -4,0 z M 208,224 l 4,0 0,4 -4,0 z M 212,224 l 4,0 0,4 -4,0 z M 216,224 l 4,0 0,4 -4,0 z M 220,224 l 4,0 0,4 -4,0 z M 224,224 l 4,0 0,4 -4,0 z M 232,224 l 4,0 0,4 -4,0 z M 236,224 l 4,0 0,4 -4,0 z M 240,224 l 4,0 0,4 -4,0 z M 0,228 l 4,0 0,4 -4,0 z M 8,228 l 4,0 0,4 -4,0 z M 12,228 l 4,0 0,4 -4,0 z M 16,228 l 4,0 0,4 -4,0 z M 24,228 l 4,0 0,4 -4,0 z M 32,228 l 4,0 0,4 -4,0 z M 48,228 l 4,0 0,4 -4,0 z M 56,228 l 4,0 0,4 -4,0 z M 60,228 l 4,0 0,4 -4,0 z M 68,228 l 4,0 0,4 -4,0 z M 72,228 l 4,0 0,4 -4,0 z M 76,228 l 4,0 0,4 -4,0 z M 88,228 l 4,0 0,4 -4,0 z M 116,228 l 4,0 0,4 -4,0 z M 124,228 l 4,0 0,4 -4,0 z M 132,228 l 4,0 0,4 -4,0 z M 136,228 l 4,0 0,4 -4,0 z M 152,228 l 4,0 0,4 -4,0 z M 164,228 l 4,0 0,4 -4,0 z M 168,228 l 4,0 0,4 -4,0 z M 180,228 l 4,0 0,4 -4,0 z M 184,228 l 4,0 0,4 -4,0 z M 188,228 l 4,0 0,4 -4,0 z M 204,228 l 4,0 0,4 -4,0 z M 208,228 l 4,0 0,4 -4,0 z M 216,228 l 4,0 0,4 -4,0 z M 224,228 l 4,0 0,4 -4,0 z M 240,228 l 4,0 0,4 -4,0 z M 0,232 l 4,0 0,4 -4,0 z M 8,232 l 4,0 0,4 -4,0 z M 12,232 l 4,0 0,4 -4,0 z M 16,232 l 4,0 0,4 -4,0 z M 24,232 l 4,0 0,4 -4,0 z M 32,232 l 4,0 0,4 -4,0 z M 40,232 l 4,0 0,4 -4,0 z M 44,232 l 4,0 0,4 -4,0 z M 48,232 l 4,0 0,4 -4,0 z M 64,232 l 4,0 0,4 -4,0 z M 68,232 l 4,0 0,4 -4,0 z M 72,232 l 4,0 0,4 -4,0 z M 76,232 l 4,0 0,4 -4,0 z M 88,232 l 4,0 0,4 -4,0 z M 96,232 l 4,0 0,4 -4,0 z M 100,232 l 4,0 0,4 -4,0 z M 116,232 l 4,0 0,4 -4,0 z M 120,232 l 4,0 0,4 -4,0 z M 124,232 l 4,0 0,4 -4,0 z M 140,232 l 4,0 0,4 -4,0 z M 144,232 l 4,0 0,4 -4,0 z M 164,232 l 4,0 0,4 -4,0 z M 168,232 l 4,0 0,4 -4,0 z M 172,232 l 4,0 0,4 -4,0 z M 180,232 l 4,0 0,4 -4,0 z M 200,232 l 4,0 0,4 -4,0 z M 208,232 l 4,0 0,4 -4,0 z M 216,232 l 4,0 0,4 -4,0 z M 224,232 l 4,0 0,4 -4,0 z M 232,232 l 4,0 0,4 -4,0 z M 240,232 l 4,0 0,4 -4,0 z M 0,236 l 4,0 0,4 -4,0 z M 24,236 l 4,0 0,4 -4,0 z M 32,236 l 4,0 0,4 -4,0 z M 36,236 l 4,0 0,4 -4,0 z M 52,236 l 4,0 0,4 -4,0 z M 56,236 l 4,0 0,4 -4,0 z M 68,236 l 4,0 0,4 -4,0 z M 96,236 l 4,0 0,4 -4,0 z M 100,236 l 4,0 0,4 -4,0 z M 112,236 l 4,0 0,4 -4,0 z M 116,236 l 4,0 0,4 -4,0 z M 120,236 l 4,0 0,4 -4,0 z M 124,236 l 4,0 0,4 -4,0 z M 128,236 l 4,0 0,4 -4,0 z M 148,236 l 4,0 0,4 -4,0 z M 152,236 l 4,0 0,4 -4,0 z M 156,236 l 4,0 0,4 -4,0 z M 164,236 l 4,0 0,4 -4,0 z M 168,236 l 4,0 0,4 -4,0 z M 172,236 l 4,0 0,4 -4,0 z M 176,236 l 4,0 0,4 -4,0 z M 180,236 l 4,0 0,4 -4,0 z M 184,236 l 4,0 0,4 -4,0 z M 188,236 l 4,0 0,4 -4,0 z M 192,236 l 4,0 0,4 -4,0 z M 204,236 l 4,0 0,4 -4,0 z M 216,236 l 4,0 0,4 -4,0 z M 220,236 l 4,0 0,4 -4,0 z M 224,236 l 4,0 0,4 -4,0 z M 228,236 l 4,0 0,4 -4,0 z M 0,240 l 4,0 0,4 -4,0 z M 4,240 l 4,0 0,4 -4,0 z M 8,240 l 4,0 0,4 -4,0 z M 12,240 l 4,0 0,4 -4,0 z M 16,240 l 4,0 0,4 -4,0 z M 20,240 l 4,0 0,4 -4,0 z M 24,240 l 4,0 0,4 -4,0 z M 32,240 l 4,0 0,4 -4,0 z M 36,240 l 4,0 0,4 -4,0 z M 60,240 l 4,0 0,4 -4,0 z M 68,240 l 4,0 0,4 -4,0 z M 72,240 l 4,0 0,4 -4,0 z M 76,240 l 4,0 0,4 -4,0 z M 88,240 l 4,0 0,4 -4,0 z M 96,240 l 4,0 0,4 -4,0 z M 100,240 l 4,0 0,4 -4,0 z M 108,240 l 4,0 0,4 -4,0 z M 116,240 l 4,0 0,4 -4,0 z M 120,240 l 4,0 0,4 -4,0 z M 128,240 l 4,0 0,4 -4,0 z M 140,240 l 4,0 0,4 -4,0 z M 156,240 l 4,0 0,4 -4,0 z M 160,240 l 4,0 0,4 -4,0 z M 168,240 l 4,0 0,4 -4,0 z M 180,240 l 4,0 0,4 -4,0 z M 184,240 l 4,0 0,4 -4,0 z M 188,240 l 4,0 0,4 -4,0 z M 200,240 l 4,0 0,4 -4,0 z M 204,240 l 4,0 0,4 -4,0 z M 216,240 l 4,0 0,4 -4,0 z M 224,240 l 4,0 0,4 -4,0 z M 228,240 l 4,0 0,4 -4,0 z M 232,240 l 4,0 0,4 -4,0 z M 240,240 l 4,0 0,4 -4,0 z " />
	</g>
</svg>
