<?xml version="1.0" standalone="no"?>
<svg xmlns="http://www.w3.org/2000/svg" version="1.1" width="252" height="252">
	<!-- Created with https://api.qrserver.com (QR Code API, see goQR.me/api for information) -->
	<title>QR Code</title>
	<desc>BEGIN:VCARD
VERSION:2.1
FN:Sujeet Jaiswal
N:Jaiswal;Sujeet
TITLE:Mr
TEL;CELL:+918861301007
EMAIL;HOME;INTERNET:contact@sujeetjaiswal.com
EMAIL;WORK;INTERNET:er.sujeetkumarjaiswal@gmail.com
URL:https://sujeetjaiswal.com
ADR;HOME:;;;Bengaluru;;;India
ORG:Infosys
END:VCARD
</desc>
	<rect style="fill:rgb(255, 255, 255);fill-opacity:1" x="0" y="0" width="252" height="252" />
	<g id="elements">
		<path style="fill:rgb(0, 0, 0)" d="M 4,4 l 4,0 0,4 -4,0 z M 8,4 l 4,0 0,4 -4,0 z M 12,4 l 4,0 0,4 -4,0 z M 16,4 l 4,0 0,4 -4,0 z M 20,4 l 4,0 0,4 -4,0 z M 24,4 l 4,0 0,4 -4,0 z M 28,4 l 4,0 0,4 -4,0 z M 40,4 l 4,0 0,4 -4,0 z M 48,4 l 4,0 0,4 -4,0 z M 52,4 l 4,0 0,4 -4,0 z M 68,4 l 4,0 0,4 -4,0 z M 80,4 l 4,0 0,4 -4,0 z M 84,4 l 4,0 0,4 -4,0 z M 100,4 l 4,0 0,4 -4,0 z M 108,4 l 4,0 0,4 -4,0 z M 112,4 l 4,0 0,4 -4,0 z M 128,4 l 4,0 0,4 -4,0 z M 136,4 l 4,0 0,4 -4,0 z M 140,4 l 4,0 0,4 -4,0 z M 160,4 l 4,0 0,4 -4,0 z M 164,4 l 4,0 0,4 -4,0 z M 180,4 l 4,0 0,4 -4,0 z M 192,4 l 4,0 0,4 -4,0 z M 196,4 l 4,0 0,4 -4,0 z M 200,4 l 4,0 0,4 -4,0 z M 208,4 l 4,0 0,4 -4,0 z M 212,4 l 4,0 0,4 -4,0 z M 220,4 l 4,0 0,4 -4,0 z M 224,4 l 4,0 0,4 -4,0 z M 228,4 l 4,0 0,4 -4,0 z M 232,4 l 4,0 0,4 -4,0 z M 236,4 l 4,0 0,4 -4,0 z M 240,4 l 4,0 0,4 -4,0 z M 244,4 l 4,0 0,4 -4,0 z M 4,8 l 4,0 0,4 -4,0 z M 28,8 l 4,0 0,4 -4,0 z M 36,8 l 4,0 0,4 -4,0 z M 40,8 l 4,0 0,4 -4,0 z M 44,8 l 4,0 0,4 -4,0 z M 48,8 l 4,0 0,4 -4,0 z M 64,8 l 4,0 0,4 -4,0 z M 68,8 l 4,0 0,4 -4,0 z M 76,8 l 4,0 0,4 -4,0 z M 80,8 l 4,0 0,4 -4,0 z M 96,8 l 4,0 0,4 -4,0 z M 100,8 l 4,0 0,4 -4,0 z M 108,8 l 4,0 0,4 -4,0 z M 112,8 l 4,0 0,4 -4,0 z M 116,8 l 4,0 0,4 -4,0 z M 120,8 l 4,0 0,4 -4,0 z M 152,8 l 4,0 0,4 -4,0 z M 168,8 l 4,0 0,4 -4,0 z M 172,8 l 4,0 0,4 -4,0 z M 184,8 l 4,0 0,4 -4,0 z M 196,8 l 4,0 0,4 -4,0 z M 200,8 l 4,0 0,4 -4,0 z M 208,8 l 4,0 0,4 -4,0 z M 212,8 l 4,0 0,4 -4,0 z M 220,8 l 4,0 0,4 -4,0 z M 244,8 l 4,0 0,4 -4,0 z M 4,12 l 4,0 0,4 -4,0 z M 12,12 l 4,0 0,4 -4,0 z M 16,12 l 4,0 0,4 -4,0 z M 20,12 l 4,0 0,4 -4,0 z M 28,12 l 4,0 0,4 -4,0 z M 40,12 l 4,0 0,4 -4,0 z M 48,12 l 4,0 0,4 -4,0 z M 56,12 l 4,0 0,4 -4,0 z M 68,12 l 4,0 0,4 -4,0 z M 76,12 l 4,0 0,4 -4,0 z M 84,12 l 4,0 0,4 -4,0 z M 88,12 l 4,0 0,4 -4,0 z M 100,12 l 4,0 0,4 -4,0 z M 104,12 l 4,0 0,4 -4,0 z M 108,12 l 4,0 0,4 -4,0 z M 112,12 l 4,0 0,4 -4,0 z M 120,12 l 4,0 0,4 -4,0 z M 124,12 l 4,0 0,4 -4,0 z M 132,12 l 4,0 0,4 -4,0 z M 136,12 l 4,0 0,4 -4,0 z M 156,12 l 4,0 0,4 -4,0 z M 184,12 l 4,0 0,4 -4,0 z M 196,12 l 4,0 0,4 -4,0 z M 200,12 l 4,0 0,4 -4,0 z M 204,12 l 4,0 0,4 -4,0 z M 208,12 l 4,0 0,4 -4,0 z M 212,12 l 4,0 0,4 -4,0 z M 220,12 l 4,0 0,4 -4,0 z M 228,12 l 4,0 0,4 -4,0 z M 232,12 l 4,0 0,4 -4,0 z M 236,12 l 4,0 0,4 -4,0 z M 244,12 l 4,0 0,4 -4,0 z M 4,16 l 4,0 0,4 -4,0 z M 12,16 l 4,0 0,4 -4,0 z M 16,16 l 4,0 0,4 -4,0 z M 20,16 l 4,0 0,4 -4,0 z M 28,16 l 4,0 0,4 -4,0 z M 36,16 l 4,0 0,4 -4,0 z M 40,16 l 4,0 0,4 -4,0 z M 44,16 l 4,0 0,4 -4,0 z M 52,16 l 4,0 0,4 -4,0 z M 96,16 l 4,0 0,4 -4,0 z M 100,16 l 4,0 0,4 -4,0 z M 104,16 l 4,0 0,4 -4,0 z M 108,16 l 4,0 0,4 -4,0 z M 128,16 l 4,0 0,4 -4,0 z M 152,16 l 4,0 0,4 -4,0 z M 156,16 l 4,0 0,4 -4,0 z M 160,16 l 4,0 0,4 -4,0 z M 172,16 l 4,0 0,4 -4,0 z M 184,16 l 4,0 0,4 -4,0 z M 188,16 l 4,0 0,4 -4,0 z M 196,16 l 4,0 0,4 -4,0 z M 204,16 l 4,0 0,4 -4,0 z M 212,16 l 4,0 0,4 -4,0 z M 220,16 l 4,0 0,4 -4,0 z M 228,16 l 4,0 0,4 -4,0 z M 232,16 l 4,0 0,4 -4,0 z M 236,16 l 4,0 0,4 -4,0 z M 244,16 l 4,0 0,4 -4,0 z M 4,20 l 4,0 0,4 -4,0 z M 12,20 l 4,0 0,4 -4,0 z M 16,20 l 4,0 0,4 -4,0 z M 20,20 l 4,0 0,4 -4,0 z M 28,20 l 4,0 0,4 -4,0 z M 48,20 l 4,0 0,4 -4,0 z M 52,20 l 4,0 0,4 -4,0 z M 64,20 l 4,0 0,4 -4,0 z M 68,20 l 4,0 0,4 -4,0 z M 72,20 l 4,0 0,4 -4,0 z M 76,20 l 4,0 0,4 -4,0 z M 80,20 l 4,0 0,4 -4,0 z M 84,20 l 4,0 0,4 -4,0 z M 100,20 l 4,0 0,4 -4,0 z M 104,20 l 4,0 0,4 -4,0 z M 116,20 l 4,0 0,4 -4,0 z M 120,20 l 4,0 0,4 -4,0 z M 124,20 l 4,0 0,4 -4,0 z M 128,20 l 4,0 0,4 -4,0 z M 132,20 l 4,0 0,4 -4,0 z M 136,20 l 4,0 0,4 -4,0 z M 144,20 l 4,0 0,4 -4,0 z M 156,20 l 4,0 0,4 -4,0 z M 172,20 l 4,0 0,4 -4,0 z M 188,20 l 4,0 0,4 -4,0 z M 196,20 l 4,0 0,4 -4,0 z M 204,20 l 4,0 0,4 -4,0 z M 208,20 l 4,0 0,4 -4,0 z M 220,20 l 4,0 0,4 -4,0 z M 228,20 l 4,0 0,4 -4,0 z M 232,20 l 4,0 0,4 -4,0 z M 236,20 l 4,0 0,4 -4,0 z M 244,20 l 4,0 0,4 -4,0 z M 4,24 l 4,0 0,4 -4,0 z M 28,24 l 4,0 0,4 -4,0 z M 36,24 l 4,0 0,4 -4,0 z M 40,24 l 4,0 0,4 -4,0 z M 56,24 l 4,0 0,4 -4,0 z M 60,24 l 4,0 0,4 -4,0 z M 64,24 l 4,0 0,4 -4,0 z M 76,24 l 4,0 0,4 -4,0 z M 88,24 l 4,0 0,4 -4,0 z M 92,24 l 4,0 0,4 -4,0 z M 104,24 l 4,0 0,4 -4,0 z M 108,24 l 4,0 0,4 -4,0 z M 112,24 l 4,0 0,4 -4,0 z M 116,24 l 4,0 0,4 -4,0 z M 132,24 l 4,0 0,4 -4,0 z M 156,24 l 4,0 0,4 -4,0 z M 160,24 l 4,0 0,4 -4,0 z M 172,24 l 4,0 0,4 -4,0 z M 200,24 l 4,0 0,4 -4,0 z M 204,24 l 4,0 0,4 -4,0 z M 220,24 l 4,0 0,4 -4,0 z M 244,24 l 4,0 0,4 -4,0 z M 4,28 l 4,0 0,4 -4,0 z M 8,28 l 4,0 0,4 -4,0 z M 12,28 l 4,0 0,4 -4,0 z M 16,28 l 4,0 0,4 -4,0 z M 20,28 l 4,0 0,4 -4,0 z M 24,28 l 4,0 0,4 -4,0 z M 28,28 l 4,0 0,4 -4,0 z M 36,28 l 4,0 0,4 -4,0 z M 44,28 l 4,0 0,4 -4,0 z M 52,28 l 4,0 0,4 -4,0 z M 60,28 l 4,0 0,4 -4,0 z M 68,28 l 4,0 0,4 -4,0 z M 76,28 l 4,0 0,4 -4,0 z M 84,28 l 4,0 0,4 -4,0 z M 92,28 l 4,0 0,4 -4,0 z M 100,28 l 4,0 0,4 -4,0 z M 108,28 l 4,0 0,4 -4,0 z M 116,28 l 4,0 0,4 -4,0 z M 124,28 l 4,0 0,4 -4,0 z M 132,28 l 4,0 0,4 -4,0 z M 140,28 l 4,0 0,4 -4,0 z M 148,28 l 4,0 0,4 -4,0 z M 156,28 l 4,0 0,4 -4,0 z M 164,28 l 4,0 0,4 -4,0 z M 172,28 l 4,0 0,4 -4,0 z M 180,28 l 4,0 0,4 -4,0 z M 188,28 l 4,0 0,4 -4,0 z M 196,28 l 4,0 0,4 -4,0 z M 204,28 l 4,0 0,4 -4,0 z M 212,28 l 4,0 0,4 -4,0 z M 220,28 l 4,0 0,4 -4,0 z M 224,28 l 4,0 0,4 -4,0 z M 228,28 l 4,0 0,4 -4,0 z M 232,28 l 4,0 0,4 -4,0 z M 236,28 l 4,0 0,4 -4,0 z M 240,28 l 4,0 0,4 -4,0 z M 244,28 l 4,0 0,4 -4,0 z M 40,32 l 4,0 0,4 -4,0 z M 44,32 l 4,0 0,4 -4,0 z M 52,32 l 4,0 0,4 -4,0 z M 68,32 l 4,0 0,4 -4,0 z M 72,32 l 4,0 0,4 -4,0 z M 76,32 l 4,0 0,4 -4,0 z M 80,32 l 4,0 0,4 -4,0 z M 88,32 l 4,0 0,4 -4,0 z M 92,32 l 4,0 0,4 -4,0 z M 100,32 l 4,0 0,4 -4,0 z M 108,32 l 4,0 0,4 -4,0 z M 112,32 l 4,0 0,4 -4,0 z M 116,32 l 4,0 0,4 -4,0 z M 132,32 l 4,0 0,4 -4,0 z M 136,32 l 4,0 0,4 -4,0 z M 152,32 l 4,0 0,4 -4,0 z M 156,32 l 4,0 0,4 -4,0 z M 168,32 l 4,0 0,4 -4,0 z M 172,32 l 4,0 0,4 -4,0 z M 176,32 l 4,0 0,4 -4,0 z M 180,32 l 4,0 0,4 -4,0 z M 184,32 l 4,0 0,4 -4,0 z M 188,32 l 4,0 0,4 -4,0 z M 192,32 l 4,0 0,4 -4,0 z M 196,32 l 4,0 0,4 -4,0 z M 200,32 l 4,0 0,4 -4,0 z M 208,32 l 4,0 0,4 -4,0 z M 212,32 l 4,0 0,4 -4,0 z M 4,36 l 4,0 0,4 -4,0 z M 8,36 l 4,0 0,4 -4,0 z M 12,36 l 4,0 0,4 -4,0 z M 16,36 l 4,0 0,4 -4,0 z M 20,36 l 4,0 0,4 -4,0 z M 28,36 l 4,0 0,4 -4,0 z M 32,36 l 4,0 0,4 -4,0 z M 36,36 l 4,0 0,4 -4,0 z M 44,36 l 4,0 0,4 -4,0 z M 60,36 l 4,0 0,4 -4,0 z M 76,36 l 4,0 0,4 -4,0 z M 88,36 l 4,0 0,4 -4,0 z M 92,36 l 4,0 0,4 -4,0 z M 96,36 l 4,0 0,4 -4,0 z M 104,36 l 4,0 0,4 -4,0 z M 108,36 l 4,0 0,4 -4,0 z M 116,36 l 4,0 0,4 -4,0 z M 120,36 l 4,0 0,4 -4,0 z M 124,36 l 4,0 0,4 -4,0 z M 128,36 l 4,0 0,4 -4,0 z M 132,36 l 4,0 0,4 -4,0 z M 140,36 l 4,0 0,4 -4,0 z M 144,36 l 4,0 0,4 -4,0 z M 160,36 l 4,0 0,4 -4,0 z M 168,36 l 4,0 0,4 -4,0 z M 184,36 l 4,0 0,4 -4,0 z M 192,36 l 4,0 0,4 -4,0 z M 196,36 l 4,0 0,4 -4,0 z M 204,36 l 4,0 0,4 -4,0 z M 216,36 l 4,0 0,4 -4,0 z M 224,36 l 4,0 0,4 -4,0 z M 232,36 l 4,0 0,4 -4,0 z M 240,36 l 4,0 0,4 -4,0 z M 8,40 l 4,0 0,4 -4,0 z M 12,40 l 4,0 0,4 -4,0 z M 24,40 l 4,0 0,4 -4,0 z M 40,40 l 4,0 0,4 -4,0 z M 44,40 l 4,0 0,4 -4,0 z M 52,40 l 4,0 0,4 -4,0 z M 72,40 l 4,0 0,4 -4,0 z M 76,40 l 4,0 0,4 -4,0 z M 80,40 l 4,0 0,4 -4,0 z M 84,40 l 4,0 0,4 -4,0 z M 96,40 l 4,0 0,4 -4,0 z M 100,40 l 4,0 0,4 -4,0 z M 120,40 l 4,0 0,4 -4,0 z M 128,40 l 4,0 0,4 -4,0 z M 136,40 l 4,0 0,4 -4,0 z M 140,40 l 4,0 0,4 -4,0 z M 148,40 l 4,0 0,4 -4,0 z M 168,40 l 4,0 0,4 -4,0 z M 172,40 l 4,0 0,4 -4,0 z M 176,40 l 4,0 0,4 -4,0 z M 192,40 l 4,0 0,4 -4,0 z M 216,40 l 4,0 0,4 -4,0 z M 220,40 l 4,0 0,4 -4,0 z M 224,40 l 4,0 0,4 -4,0 z M 236,40 l 4,0 0,4 -4,0 z M 240,40 l 4,0 0,4 -4,0 z M 8,44 l 4,0 0,4 -4,0 z M 12,44 l 4,0 0,4 -4,0 z M 24,44 l 4,0 0,4 -4,0 z M 28,44 l 4,0 0,4 -4,0 z M 40,44 l 4,0 0,4 -4,0 z M 52,44 l 4,0 0,4 -4,0 z M 56,44 l 4,0 0,4 -4,0 z M 60,44 l 4,0 0,4 -4,0 z M 76,44 l 4,0 0,4 -4,0 z M 84,44 l 4,0 0,4 -4,0 z M 88,44 l 4,0 0,4 -4,0 z M 104,44 l 4,0 0,4 -4,0 z M 124,44 l 4,0 0,4 -4,0 z M 136,44 l 4,0 0,4 -4,0 z M 140,44 l 4,0 0,4 -4,0 z M 144,44 l 4,0 0,4 -4,0 z M 148,44 l 4,0 0,4 -4,0 z M 152,44 l 4,0 0,4 -4,0 z M 164,44 l 4,0 0,4 -4,0 z M 168,44 l 4,0 0,4 -4,0 z M 172,44 l 4,0 0,4 -4,0 z M 176,44 l 4,0 0,4 -4,0 z M 208,44 l 4,0 0,4 -4,0 z M 212,44 l 4,0 0,4 -4,0 z M 220,44 l 4,0 0,4 -4,0 z M 224,44 l 4,0 0,4 -4,0 z M 228,44 l 4,0 0,4 -4,0 z M 240,44 l 4,0 0,4 -4,0 z M 244,44 l 4,0 0,4 -4,0 z M 8,48 l 4,0 0,4 -4,0 z M 12,48 l 4,0 0,4 -4,0 z M 16,48 l 4,0 0,4 -4,0 z M 20,48 l 4,0 0,4 -4,0 z M 24,48 l 4,0 0,4 -4,0 z M 32,48 l 4,0 0,4 -4,0 z M 48,48 l 4,0 0,4 -4,0 z M 52,48 l 4,0 0,4 -4,0 z M 56,48 l 4,0 0,4 -4,0 z M 64,48 l 4,0 0,4 -4,0 z M 68,48 l 4,0 0,4 -4,0 z M 72,48 l 4,0 0,4 -4,0 z M 80,48 l 4,0 0,4 -4,0 z M 84,48 l 4,0 0,4 -4,0 z M 92,48 l 4,0 0,4 -4,0 z M 108,48 l 4,0 0,4 -4,0 z M 112,48 l 4,0 0,4 -4,0 z M 120,48 l 4,0 0,4 -4,0 z M 128,48 l 4,0 0,4 -4,0 z M 136,48 l 4,0 0,4 -4,0 z M 148,48 l 4,0 0,4 -4,0 z M 152,48 l 4,0 0,4 -4,0 z M 156,48 l 4,0 0,4 -4,0 z M 172,48 l 4,0 0,4 -4,0 z M 180,48 l 4,0 0,4 -4,0 z M 192,48 l 4,0 0,4 -4,0 z M 196,48 l 4,0 0,4 -4,0 z M 204,48 l 4,0 0,4 -4,0 z M 208,48 l 4,0 0,4 -4,0 z M 212,48 l 4,0 0,4 -4,0 z M 224,48 l 4,0 0,4 -4,0 z M 240,48 l 4,0 0,4 -4,0 z M 244,48 l 4,0 0,4 -4,0 z M 20,52 l 4,0 0,4 -4,0 z M 28,52 l 4,0 0,4 -4,0 z M 44,52 l 4,0 0,4 -4,0 z M 48,52 l 4,0 0,4 -4,0 z M 56,52 l 4,0 0,4 -4,0 z M 64,52 l 4,0 0,4 -4,0 z M 80,52 l 4,0 0,4 -4,0 z M 92,52 l 4,0 0,4 -4,0 z M 100,52 l 4,0 0,4 -4,0 z M 104,52 l 4,0 0,4 -4,0 z M 120,52 l 4,0 0,4 -4,0 z M 124,52 l 4,0 0,4 -4,0 z M 140,52 l 4,0 0,4 -4,0 z M 144,52 l 4,0 0,4 -4,0 z M 156,52 l 4,0 0,4 -4,0 z M 160,52 l 4,0 0,4 -4,0 z M 168,52 l 4,0 0,4 -4,0 z M 172,52 l 4,0 0,4 -4,0 z M 180,52 l 4,0 0,4 -4,0 z M 184,52 l 4,0 0,4 -4,0 z M 196,52 l 4,0 0,4 -4,0 z M 200,52 l 4,0 0,4 -4,0 z M 204,52 l 4,0 0,4 -4,0 z M 212,52 l 4,0 0,4 -4,0 z M 228,52 l 4,0 0,4 -4,0 z M 232,52 l 4,0 0,4 -4,0 z M 240,52 l 4,0 0,4 -4,0 z M 244,52 l 4,0 0,4 -4,0 z M 8,56 l 4,0 0,4 -4,0 z M 16,56 l 4,0 0,4 -4,0 z M 36,56 l 4,0 0,4 -4,0 z M 44,56 l 4,0 0,4 -4,0 z M 52,56 l 4,0 0,4 -4,0 z M 72,56 l 4,0 0,4 -4,0 z M 80,56 l 4,0 0,4 -4,0 z M 84,56 l 4,0 0,4 -4,0 z M 96,56 l 4,0 0,4 -4,0 z M 104,56 l 4,0 0,4 -4,0 z M 112,56 l 4,0 0,4 -4,0 z M 120,56 l 4,0 0,4 -4,0 z M 128,56 l 4,0 0,4 -4,0 z M 152,56 l 4,0 0,4 -4,0 z M 156,56 l 4,0 0,4 -4,0 z M 164,56 l 4,0 0,4 -4,0 z M 172,56 l 4,0 0,4 -4,0 z M 176,56 l 4,0 0,4 -4,0 z M 184,56 l 4,0 0,4 -4,0 z M 188,56 l 4,0 0,4 -4,0 z M 196,56 l 4,0 0,4 -4,0 z M 200,56 l 4,0 0,4 -4,0 z M 208,56 l 4,0 0,4 -4,0 z M 216,56 l 4,0 0,4 -4,0 z M 220,56 l 4,0 0,4 -4,0 z M 228,56 l 4,0 0,4 -4,0 z M 232,56 l 4,0 0,4 -4,0 z M 236,56 l 4,0 0,4 -4,0 z M 240,56 l 4,0 0,4 -4,0 z M 244,56 l 4,0 0,4 -4,0 z M 8,60 l 4,0 0,4 -4,0 z M 16,60 l 4,0 0,4 -4,0 z M 24,60 l 4,0 0,4 -4,0 z M 28,60 l 4,0 0,4 -4,0 z M 32,60 l 4,0 0,4 -4,0 z M 64,60 l 4,0 0,4 -4,0 z M 68,60 l 4,0 0,4 -4,0 z M 72,60 l 4,0 0,4 -4,0 z M 76,60 l 4,0 0,4 -4,0 z M 84,60 l 4,0 0,4 -4,0 z M 92,60 l 4,0 0,4 -4,0 z M 100,60 l 4,0 0,4 -4,0 z M 108,60 l 4,0 0,4 -4,0 z M 128,60 l 4,0 0,4 -4,0 z M 144,60 l 4,0 0,4 -4,0 z M 160,60 l 4,0 0,4 -4,0 z M 164,60 l 4,0 0,4 -4,0 z M 180,60 l 4,0 0,4 -4,0 z M 184,60 l 4,0 0,4 -4,0 z M 188,60 l 4,0 0,4 -4,0 z M 196,60 l 4,0 0,4 -4,0 z M 208,60 l 4,0 0,4 -4,0 z M 220,60 l 4,0 0,4 -4,0 z M 232,60 l 4,0 0,4 -4,0 z M 236,60 l 4,0 0,4 -4,0 z M 240,60 l 4,0 0,4 -4,0 z M 4,64 l 4,0 0,4 -4,0 z M 8,64 l 4,0 0,4 -4,0 z M 12,64 l 4,0 0,4 -4,0 z M 16,64 l 4,0 0,4 -4,0 z M 20,64 l 4,0 0,4 -4,0 z M 24,64 l 4,0 0,4 -4,0 z M 36,64 l 4,0 0,4 -4,0 z M 56,64 l 4,0 0,4 -4,0 z M 68,64 l 4,0 0,4 -4,0 z M 80,64 l 4,0 0,4 -4,0 z M 84,64 l 4,0 0,4 -4,0 z M 88,64 l 4,0 0,4 -4,0 z M 92,64 l 4,0 0,4 -4,0 z M 96,64 l 4,0 0,4 -4,0 z M 100,64 l 4,0 0,4 -4,0 z M 108,64 l 4,0 0,4 -4,0 z M 116,64 l 4,0 0,4 -4,0 z M 120,64 l 4,0 0,4 -4,0 z M 132,64 l 4,0 0,4 -4,0 z M 136,64 l 4,0 0,4 -4,0 z M 140,64 l 4,0 0,4 -4,0 z M 144,64 l 4,0 0,4 -4,0 z M 148,64 l 4,0 0,4 -4,0 z M 152,64 l 4,0 0,4 -4,0 z M 160,64 l 4,0 0,4 -4,0 z M 164,64 l 4,0 0,4 -4,0 z M 168,64 l 4,0 0,4 -4,0 z M 172,64 l 4,0 0,4 -4,0 z M 184,64 l 4,0 0,4 -4,0 z M 196,64 l 4,0 0,4 -4,0 z M 200,64 l 4,0 0,4 -4,0 z M 204,64 l 4,0 0,4 -4,0 z M 212,64 l 4,0 0,4 -4,0 z M 224,64 l 4,0 0,4 -4,0 z M 232,64 l 4,0 0,4 -4,0 z M 236,64 l 4,0 0,4 -4,0 z M 8,68 l 4,0 0,4 -4,0 z M 16,68 l 4,0 0,4 -4,0 z M 20,68 l 4,0 0,4 -4,0 z M 24,68 l 4,0 0,4 -4,0 z M 28,68 l 4,0 0,4 -4,0 z M 40,68 l 4,0 0,4 -4,0 z M 52,68 l 4,0 0,4 -4,0 z M 92,68 l 4,0 0,4 -4,0 z M 100,68 l 4,0 0,4 -4,0 z M 104,68 l 4,0 0,4 -4,0 z M 112,68 l 4,0 0,4 -4,0 z M 124,68 l 4,0 0,4 -4,0 z M 132,68 l 4,0 0,4 -4,0 z M 144,68 l 4,0 0,4 -4,0 z M 148,68 l 4,0 0,4 -4,0 z M 156,68 l 4,0 0,4 -4,0 z M 160,68 l 4,0 0,4 -4,0 z M 164,68 l 4,0 0,4 -4,0 z M 168,68 l 4,0 0,4 -4,0 z M 172,68 l 4,0 0,4 -4,0 z M 176,68 l 4,0 0,4 -4,0 z M 184,68 l 4,0 0,4 -4,0 z M 196,68 l 4,0 0,4 -4,0 z M 212,68 l 4,0 0,4 -4,0 z M 216,68 l 4,0 0,4 -4,0 z M 224,68 l 4,0 0,4 -4,0 z M 240,68 l 4,0 0,4 -4,0 z M 8,72 l 4,0 0,4 -4,0 z M 24,72 l 4,0 0,4 -4,0 z M 40,72 l 4,0 0,4 -4,0 z M 48,72 l 4,0 0,4 -4,0 z M 56,72 l 4,0 0,4 -4,0 z M 64,72 l 4,0 0,4 -4,0 z M 72,72 l 4,0 0,4 -4,0 z M 80,72 l 4,0 0,4 -4,0 z M 88,72 l 4,0 0,4 -4,0 z M 96,72 l 4,0 0,4 -4,0 z M 108,72 l 4,0 0,4 -4,0 z M 112,72 l 4,0 0,4 -4,0 z M 116,72 l 4,0 0,4 -4,0 z M 120,72 l 4,0 0,4 -4,0 z M 124,72 l 4,0 0,4 -4,0 z M 144,72 l 4,0 0,4 -4,0 z M 148,72 l 4,0 0,4 -4,0 z M 156,72 l 4,0 0,4 -4,0 z M 160,72 l 4,0 0,4 -4,0 z M 168,72 l 4,0 0,4 -4,0 z M 172,72 l 4,0 0,4 -4,0 z M 176,72 l 4,0 0,4 -4,0 z M 180,72 l 4,0 0,4 -4,0 z M 184,72 l 4,0 0,4 -4,0 z M 192,72 l 4,0 0,4 -4,0 z M 196,72 l 4,0 0,4 -4,0 z M 200,72 l 4,0 0,4 -4,0 z M 204,72 l 4,0 0,4 -4,0 z M 216,72 l 4,0 0,4 -4,0 z M 220,72 l 4,0 0,4 -4,0 z M 224,72 l 4,0 0,4 -4,0 z M 232,72 l 4,0 0,4 -4,0 z M 240,72 l 4,0 0,4 -4,0 z M 244,72 l 4,0 0,4 -4,0 z M 4,76 l 4,0 0,4 -4,0 z M 8,76 l 4,0 0,4 -4,0 z M 16,76 l 4,0 0,4 -4,0 z M 20,76 l 4,0 0,4 -4,0 z M 24,76 l 4,0 0,4 -4,0 z M 28,76 l 4,0 0,4 -4,0 z M 32,76 l 4,0 0,4 -4,0 z M 40,76 l 4,0 0,4 -4,0 z M 48,76 l 4,0 0,4 -4,0 z M 56,76 l 4,0 0,4 -4,0 z M 80,76 l 4,0 0,4 -4,0 z M 84,76 l 4,0 0,4 -4,0 z M 88,76 l 4,0 0,4 -4,0 z M 108,76 l 4,0 0,4 -4,0 z M 144,76 l 4,0 0,4 -4,0 z M 152,76 l 4,0 0,4 -4,0 z M 168,76 l 4,0 0,4 -4,0 z M 172,76 l 4,0 0,4 -4,0 z M 180,76 l 4,0 0,4 -4,0 z M 184,76 l 4,0 0,4 -4,0 z M 196,76 l 4,0 0,4 -4,0 z M 200,76 l 4,0 0,4 -4,0 z M 216,76 l 4,0 0,4 -4,0 z M 220,76 l 4,0 0,4 -4,0 z M 224,76 l 4,0 0,4 -4,0 z M 228,76 l 4,0 0,4 -4,0 z M 232,76 l 4,0 0,4 -4,0 z M 236,76 l 4,0 0,4 -4,0 z M 240,76 l 4,0 0,4 -4,0 z M 244,76 l 4,0 0,4 -4,0 z M 12,80 l 4,0 0,4 -4,0 z M 16,80 l 4,0 0,4 -4,0 z M 20,80 l 4,0 0,4 -4,0 z M 36,80 l 4,0 0,4 -4,0 z M 40,80 l 4,0 0,4 -4,0 z M 52,80 l 4,0 0,4 -4,0 z M 60,80 l 4,0 0,4 -4,0 z M 64,80 l 4,0 0,4 -4,0 z M 72,80 l 4,0 0,4 -4,0 z M 76,80 l 4,0 0,4 -4,0 z M 92,80 l 4,0 0,4 -4,0 z M 96,80 l 4,0 0,4 -4,0 z M 104,80 l 4,0 0,4 -4,0 z M 108,80 l 4,0 0,4 -4,0 z M 120,80 l 4,0 0,4 -4,0 z M 128,80 l 4,0 0,4 -4,0 z M 132,80 l 4,0 0,4 -4,0 z M 140,80 l 4,0 0,4 -4,0 z M 160,80 l 4,0 0,4 -4,0 z M 172,80 l 4,0 0,4 -4,0 z M 180,80 l 4,0 0,4 -4,0 z M 184,80 l 4,0 0,4 -4,0 z M 196,80 l 4,0 0,4 -4,0 z M 204,80 l 4,0 0,4 -4,0 z M 208,80 l 4,0 0,4 -4,0 z M 220,80 l 4,0 0,4 -4,0 z M 240,80 l 4,0 0,4 -4,0 z M 244,80 l 4,0 0,4 -4,0 z M 4,84 l 4,0 0,4 -4,0 z M 12,84 l 4,0 0,4 -4,0 z M 16,84 l 4,0 0,4 -4,0 z M 24,84 l 4,0 0,4 -4,0 z M 28,84 l 4,0 0,4 -4,0 z M 32,84 l 4,0 0,4 -4,0 z M 40,84 l 4,0 0,4 -4,0 z M 44,84 l 4,0 0,4 -4,0 z M 48,84 l 4,0 0,4 -4,0 z M 72,84 l 4,0 0,4 -4,0 z M 76,84 l 4,0 0,4 -4,0 z M 80,84 l 4,0 0,4 -4,0 z M 88,84 l 4,0 0,4 -4,0 z M 92,84 l 4,0 0,4 -4,0 z M 96,84 l 4,0 0,4 -4,0 z M 100,84 l 4,0 0,4 -4,0 z M 104,84 l 4,0 0,4 -4,0 z M 112,84 l 4,0 0,4 -4,0 z M 124,84 l 4,0 0,4 -4,0 z M 132,84 l 4,0 0,4 -4,0 z M 136,84 l 4,0 0,4 -4,0 z M 140,84 l 4,0 0,4 -4,0 z M 148,84 l 4,0 0,4 -4,0 z M 156,84 l 4,0 0,4 -4,0 z M 164,84 l 4,0 0,4 -4,0 z M 172,84 l 4,0 0,4 -4,0 z M 184,84 l 4,0 0,4 -4,0 z M 200,84 l 4,0 0,4 -4,0 z M 216,84 l 4,0 0,4 -4,0 z M 240,84 l 4,0 0,4 -4,0 z M 4,88 l 4,0 0,4 -4,0 z M 8,88 l 4,0 0,4 -4,0 z M 12,88 l 4,0 0,4 -4,0 z M 20,88 l 4,0 0,4 -4,0 z M 24,88 l 4,0 0,4 -4,0 z M 36,88 l 4,0 0,4 -4,0 z M 52,88 l 4,0 0,4 -4,0 z M 56,88 l 4,0 0,4 -4,0 z M 72,88 l 4,0 0,4 -4,0 z M 76,88 l 4,0 0,4 -4,0 z M 80,88 l 4,0 0,4 -4,0 z M 88,88 l 4,0 0,4 -4,0 z M 92,88 l 4,0 0,4 -4,0 z M 96,88 l 4,0 0,4 -4,0 z M 112,88 l 4,0 0,4 -4,0 z M 116,88 l 4,0 0,4 -4,0 z M 124,88 l 4,0 0,4 -4,0 z M 128,88 l 4,0 0,4 -4,0 z M 132,88 l 4,0 0,4 -4,0 z M 140,88 l 4,0 0,4 -4,0 z M 144,88 l 4,0 0,4 -4,0 z M 160,88 l 4,0 0,4 -4,0 z M 164,88 l 4,0 0,4 -4,0 z M 172,88 l 4,0 0,4 -4,0 z M 180,88 l 4,0 0,4 -4,0 z M 204,88 l 4,0 0,4 -4,0 z M 216,88 l 4,0 0,4 -4,0 z M 232,88 l 4,0 0,4 -4,0 z M 240,88 l 4,0 0,4 -4,0 z M 244,88 l 4,0 0,4 -4,0 z M 4,92 l 4,0 0,4 -4,0 z M 8,92 l 4,0 0,4 -4,0 z M 24,92 l 4,0 0,4 -4,0 z M 28,92 l 4,0 0,4 -4,0 z M 36,92 l 4,0 0,4 -4,0 z M 44,92 l 4,0 0,4 -4,0 z M 48,92 l 4,0 0,4 -4,0 z M 52,92 l 4,0 0,4 -4,0 z M 56,92 l 4,0 0,4 -4,0 z M 72,92 l 4,0 0,4 -4,0 z M 88,92 l 4,0 0,4 -4,0 z M 112,92 l 4,0 0,4 -4,0 z M 116,92 l 4,0 0,4 -4,0 z M 120,92 l 4,0 0,4 -4,0 z M 124,92 l 4,0 0,4 -4,0 z M 128,92 l 4,0 0,4 -4,0 z M 136,92 l 4,0 0,4 -4,0 z M 164,92 l 4,0 0,4 -4,0 z M 172,92 l 4,0 0,4 -4,0 z M 176,92 l 4,0 0,4 -4,0 z M 184,92 l 4,0 0,4 -4,0 z M 188,92 l 4,0 0,4 -4,0 z M 196,92 l 4,0 0,4 -4,0 z M 200,92 l 4,0 0,4 -4,0 z M 208,92 l 4,0 0,4 -4,0 z M 212,92 l 4,0 0,4 -4,0 z M 216,92 l 4,0 0,4 -4,0 z M 220,92 l 4,0 0,4 -4,0 z M 224,92 l 4,0 0,4 -4,0 z M 228,92 l 4,0 0,4 -4,0 z M 240,92 l 4,0 0,4 -4,0 z M 244,92 l 4,0 0,4 -4,0 z M 12,96 l 4,0 0,4 -4,0 z M 16,96 l 4,0 0,4 -4,0 z M 32,96 l 4,0 0,4 -4,0 z M 36,96 l 4,0 0,4 -4,0 z M 40,96 l 4,0 0,4 -4,0 z M 52,96 l 4,0 0,4 -4,0 z M 68,96 l 4,0 0,4 -4,0 z M 80,96 l 4,0 0,4 -4,0 z M 88,96 l 4,0 0,4 -4,0 z M 92,96 l 4,0 0,4 -4,0 z M 96,96 l 4,0 0,4 -4,0 z M 104,96 l 4,0 0,4 -4,0 z M 112,96 l 4,0 0,4 -4,0 z M 116,96 l 4,0 0,4 -4,0 z M 120,96 l 4,0 0,4 -4,0 z M 124,96 l 4,0 0,4 -4,0 z M 128,96 l 4,0 0,4 -4,0 z M 132,96 l 4,0 0,4 -4,0 z M 152,96 l 4,0 0,4 -4,0 z M 156,96 l 4,0 0,4 -4,0 z M 168,96 l 4,0 0,4 -4,0 z M 172,96 l 4,0 0,4 -4,0 z M 180,96 l 4,0 0,4 -4,0 z M 184,96 l 4,0 0,4 -4,0 z M 188,96 l 4,0 0,4 -4,0 z M 192,96 l 4,0 0,4 -4,0 z M 196,96 l 4,0 0,4 -4,0 z M 200,96 l 4,0 0,4 -4,0 z M 208,96 l 4,0 0,4 -4,0 z M 220,96 l 4,0 0,4 -4,0 z M 240,96 l 4,0 0,4 -4,0 z M 16,100 l 4,0 0,4 -4,0 z M 24,100 l 4,0 0,4 -4,0 z M 28,100 l 4,0 0,4 -4,0 z M 32,100 l 4,0 0,4 -4,0 z M 36,100 l 4,0 0,4 -4,0 z M 44,100 l 4,0 0,4 -4,0 z M 60,100 l 4,0 0,4 -4,0 z M 72,100 l 4,0 0,4 -4,0 z M 80,100 l 4,0 0,4 -4,0 z M 96,100 l 4,0 0,4 -4,0 z M 112,100 l 4,0 0,4 -4,0 z M 116,100 l 4,0 0,4 -4,0 z M 120,100 l 4,0 0,4 -4,0 z M 128,100 l 4,0 0,4 -4,0 z M 136,100 l 4,0 0,4 -4,0 z M 160,100 l 4,0 0,4 -4,0 z M 180,100 l 4,0 0,4 -4,0 z M 184,100 l 4,0 0,4 -4,0 z M 188,100 l 4,0 0,4 -4,0 z M 192,100 l 4,0 0,4 -4,0 z M 204,100 l 4,0 0,4 -4,0 z M 220,100 l 4,0 0,4 -4,0 z M 224,100 l 4,0 0,4 -4,0 z M 232,100 l 4,0 0,4 -4,0 z M 16,104 l 4,0 0,4 -4,0 z M 24,104 l 4,0 0,4 -4,0 z M 36,104 l 4,0 0,4 -4,0 z M 40,104 l 4,0 0,4 -4,0 z M 44,104 l 4,0 0,4 -4,0 z M 60,104 l 4,0 0,4 -4,0 z M 64,104 l 4,0 0,4 -4,0 z M 76,104 l 4,0 0,4 -4,0 z M 104,104 l 4,0 0,4 -4,0 z M 120,104 l 4,0 0,4 -4,0 z M 136,104 l 4,0 0,4 -4,0 z M 140,104 l 4,0 0,4 -4,0 z M 148,104 l 4,0 0,4 -4,0 z M 152,104 l 4,0 0,4 -4,0 z M 156,104 l 4,0 0,4 -4,0 z M 176,104 l 4,0 0,4 -4,0 z M 180,104 l 4,0 0,4 -4,0 z M 192,104 l 4,0 0,4 -4,0 z M 196,104 l 4,0 0,4 -4,0 z M 200,104 l 4,0 0,4 -4,0 z M 220,104 l 4,0 0,4 -4,0 z M 224,104 l 4,0 0,4 -4,0 z M 228,104 l 4,0 0,4 -4,0 z M 232,104 l 4,0 0,4 -4,0 z M 236,104 l 4,0 0,4 -4,0 z M 240,104 l 4,0 0,4 -4,0 z M 8,108 l 4,0 0,4 -4,0 z M 12,108 l 4,0 0,4 -4,0 z M 28,108 l 4,0 0,4 -4,0 z M 32,108 l 4,0 0,4 -4,0 z M 36,108 l 4,0 0,4 -4,0 z M 52,108 l 4,0 0,4 -4,0 z M 56,108 l 4,0 0,4 -4,0 z M 64,108 l 4,0 0,4 -4,0 z M 68,108 l 4,0 0,4 -4,0 z M 76,108 l 4,0 0,4 -4,0 z M 80,108 l 4,0 0,4 -4,0 z M 88,108 l 4,0 0,4 -4,0 z M 104,108 l 4,0 0,4 -4,0 z M 112,108 l 4,0 0,4 -4,0 z M 120,108 l 4,0 0,4 -4,0 z M 124,108 l 4,0 0,4 -4,0 z M 128,108 l 4,0 0,4 -4,0 z M 132,108 l 4,0 0,4 -4,0 z M 136,108 l 4,0 0,4 -4,0 z M 140,108 l 4,0 0,4 -4,0 z M 148,108 l 4,0 0,4 -4,0 z M 164,108 l 4,0 0,4 -4,0 z M 204,108 l 4,0 0,4 -4,0 z M 208,108 l 4,0 0,4 -4,0 z M 220,108 l 4,0 0,4 -4,0 z M 224,108 l 4,0 0,4 -4,0 z M 236,108 l 4,0 0,4 -4,0 z M 240,108 l 4,0 0,4 -4,0 z M 12,112 l 4,0 0,4 -4,0 z M 32,112 l 4,0 0,4 -4,0 z M 40,112 l 4,0 0,4 -4,0 z M 52,112 l 4,0 0,4 -4,0 z M 56,112 l 4,0 0,4 -4,0 z M 64,112 l 4,0 0,4 -4,0 z M 68,112 l 4,0 0,4 -4,0 z M 92,112 l 4,0 0,4 -4,0 z M 104,112 l 4,0 0,4 -4,0 z M 108,112 l 4,0 0,4 -4,0 z M 116,112 l 4,0 0,4 -4,0 z M 120,112 l 4,0 0,4 -4,0 z M 132,112 l 4,0 0,4 -4,0 z M 136,112 l 4,0 0,4 -4,0 z M 144,112 l 4,0 0,4 -4,0 z M 148,112 l 4,0 0,4 -4,0 z M 160,112 l 4,0 0,4 -4,0 z M 180,112 l 4,0 0,4 -4,0 z M 184,112 l 4,0 0,4 -4,0 z M 188,112 l 4,0 0,4 -4,0 z M 204,112 l 4,0 0,4 -4,0 z M 208,112 l 4,0 0,4 -4,0 z M 212,112 l 4,0 0,4 -4,0 z M 216,112 l 4,0 0,4 -4,0 z M 220,112 l 4,0 0,4 -4,0 z M 240,112 l 4,0 0,4 -4,0 z M 12,116 l 4,0 0,4 -4,0 z M 20,116 l 4,0 0,4 -4,0 z M 24,116 l 4,0 0,4 -4,0 z M 28,116 l 4,0 0,4 -4,0 z M 32,116 l 4,0 0,4 -4,0 z M 36,116 l 4,0 0,4 -4,0 z M 44,116 l 4,0 0,4 -4,0 z M 48,116 l 4,0 0,4 -4,0 z M 52,116 l 4,0 0,4 -4,0 z M 68,116 l 4,0 0,4 -4,0 z M 76,116 l 4,0 0,4 -4,0 z M 100,116 l 4,0 0,4 -4,0 z M 104,116 l 4,0 0,4 -4,0 z M 112,116 l 4,0 0,4 -4,0 z M 116,116 l 4,0 0,4 -4,0 z M 120,116 l 4,0 0,4 -4,0 z M 124,116 l 4,0 0,4 -4,0 z M 128,116 l 4,0 0,4 -4,0 z M 132,116 l 4,0 0,4 -4,0 z M 140,116 l 4,0 0,4 -4,0 z M 148,116 l 4,0 0,4 -4,0 z M 152,116 l 4,0 0,4 -4,0 z M 160,116 l 4,0 0,4 -4,0 z M 168,116 l 4,0 0,4 -4,0 z M 176,116 l 4,0 0,4 -4,0 z M 180,116 l 4,0 0,4 -4,0 z M 184,116 l 4,0 0,4 -4,0 z M 196,116 l 4,0 0,4 -4,0 z M 208,116 l 4,0 0,4 -4,0 z M 212,116 l 4,0 0,4 -4,0 z M 216,116 l 4,0 0,4 -4,0 z M 220,116 l 4,0 0,4 -4,0 z M 224,116 l 4,0 0,4 -4,0 z M 228,116 l 4,0 0,4 -4,0 z M 232,116 l 4,0 0,4 -4,0 z M 240,116 l 4,0 0,4 -4,0 z M 244,116 l 4,0 0,4 -4,0 z M 8,120 l 4,0 0,4 -4,0 z M 16,120 l 4,0 0,4 -4,0 z M 20,120 l 4,0 0,4 -4,0 z M 36,120 l 4,0 0,4 -4,0 z M 40,120 l 4,0 0,4 -4,0 z M 60,120 l 4,0 0,4 -4,0 z M 76,120 l 4,0 0,4 -4,0 z M 80,120 l 4,0 0,4 -4,0 z M 84,120 l 4,0 0,4 -4,0 z M 96,120 l 4,0 0,4 -4,0 z M 100,120 l 4,0 0,4 -4,0 z M 116,120 l 4,0 0,4 -4,0 z M 132,120 l 4,0 0,4 -4,0 z M 136,120 l 4,0 0,4 -4,0 z M 144,120 l 4,0 0,4 -4,0 z M 148,120 l 4,0 0,4 -4,0 z M 164,120 l 4,0 0,4 -4,0 z M 172,120 l 4,0 0,4 -4,0 z M 180,120 l 4,0 0,4 -4,0 z M 188,120 l 4,0 0,4 -4,0 z M 192,120 l 4,0 0,4 -4,0 z M 200,120 l 4,0 0,4 -4,0 z M 208,120 l 4,0 0,4 -4,0 z M 212,120 l 4,0 0,4 -4,0 z M 228,120 l 4,0 0,4 -4,0 z M 232,120 l 4,0 0,4 -4,0 z M 236,120 l 4,0 0,4 -4,0 z M 244,120 l 4,0 0,4 -4,0 z M 4,124 l 4,0 0,4 -4,0 z M 8,124 l 4,0 0,4 -4,0 z M 20,124 l 4,0 0,4 -4,0 z M 28,124 l 4,0 0,4 -4,0 z M 36,124 l 4,0 0,4 -4,0 z M 40,124 l 4,0 0,4 -4,0 z M 44,124 l 4,0 0,4 -4,0 z M 56,124 l 4,0 0,4 -4,0 z M 68,124 l 4,0 0,4 -4,0 z M 76,124 l 4,0 0,4 -4,0 z M 84,124 l 4,0 0,4 -4,0 z M 88,124 l 4,0 0,4 -4,0 z M 96,124 l 4,0 0,4 -4,0 z M 100,124 l 4,0 0,4 -4,0 z M 108,124 l 4,0 0,4 -4,0 z M 116,124 l 4,0 0,4 -4,0 z M 124,124 l 4,0 0,4 -4,0 z M 132,124 l 4,0 0,4 -4,0 z M 136,124 l 4,0 0,4 -4,0 z M 148,124 l 4,0 0,4 -4,0 z M 152,124 l 4,0 0,4 -4,0 z M 160,124 l 4,0 0,4 -4,0 z M 168,124 l 4,0 0,4 -4,0 z M 172,124 l 4,0 0,4 -4,0 z M 176,124 l 4,0 0,4 -4,0 z M 180,124 l 4,0 0,4 -4,0 z M 212,124 l 4,0 0,4 -4,0 z M 220,124 l 4,0 0,4 -4,0 z M 228,124 l 4,0 0,4 -4,0 z M 240,124 l 4,0 0,4 -4,0 z M 8,128 l 4,0 0,4 -4,0 z M 20,128 l 4,0 0,4 -4,0 z M 36,128 l 4,0 0,4 -4,0 z M 56,128 l 4,0 0,4 -4,0 z M 60,128 l 4,0 0,4 -4,0 z M 64,128 l 4,0 0,4 -4,0 z M 80,128 l 4,0 0,4 -4,0 z M 84,128 l 4,0 0,4 -4,0 z M 96,128 l 4,0 0,4 -4,0 z M 100,128 l 4,0 0,4 -4,0 z M 108,128 l 4,0 0,4 -4,0 z M 116,128 l 4,0 0,4 -4,0 z M 132,128 l 4,0 0,4 -4,0 z M 136,128 l 4,0 0,4 -4,0 z M 140,128 l 4,0 0,4 -4,0 z M 144,128 l 4,0 0,4 -4,0 z M 148,128 l 4,0 0,4 -4,0 z M 152,128 l 4,0 0,4 -4,0 z M 160,128 l 4,0 0,4 -4,0 z M 168,128 l 4,0 0,4 -4,0 z M 172,128 l 4,0 0,4 -4,0 z M 176,128 l 4,0 0,4 -4,0 z M 184,128 l 4,0 0,4 -4,0 z M 200,128 l 4,0 0,4 -4,0 z M 204,128 l 4,0 0,4 -4,0 z M 208,128 l 4,0 0,4 -4,0 z M 212,128 l 4,0 0,4 -4,0 z M 228,128 l 4,0 0,4 -4,0 z M 20,132 l 4,0 0,4 -4,0 z M 24,132 l 4,0 0,4 -4,0 z M 28,132 l 4,0 0,4 -4,0 z M 32,132 l 4,0 0,4 -4,0 z M 36,132 l 4,0 0,4 -4,0 z M 44,132 l 4,0 0,4 -4,0 z M 56,132 l 4,0 0,4 -4,0 z M 64,132 l 4,0 0,4 -4,0 z M 88,132 l 4,0 0,4 -4,0 z M 96,132 l 4,0 0,4 -4,0 z M 100,132 l 4,0 0,4 -4,0 z M 116,132 l 4,0 0,4 -4,0 z M 120,132 l 4,0 0,4 -4,0 z M 124,132 l 4,0 0,4 -4,0 z M 128,132 l 4,0 0,4 -4,0 z M 132,132 l 4,0 0,4 -4,0 z M 144,132 l 4,0 0,4 -4,0 z M 152,132 l 4,0 0,4 -4,0 z M 156,132 l 4,0 0,4 -4,0 z M 160,132 l 4,0 0,4 -4,0 z M 172,132 l 4,0 0,4 -4,0 z M 176,132 l 4,0 0,4 -4,0 z M 180,132 l 4,0 0,4 -4,0 z M 188,132 l 4,0 0,4 -4,0 z M 196,132 l 4,0 0,4 -4,0 z M 200,132 l 4,0 0,4 -4,0 z M 212,132 l 4,0 0,4 -4,0 z M 216,132 l 4,0 0,4 -4,0 z M 220,132 l 4,0 0,4 -4,0 z M 224,132 l 4,0 0,4 -4,0 z M 228,132 l 4,0 0,4 -4,0 z M 240,132 l 4,0 0,4 -4,0 z M 8,136 l 4,0 0,4 -4,0 z M 12,136 l 4,0 0,4 -4,0 z M 20,136 l 4,0 0,4 -4,0 z M 24,136 l 4,0 0,4 -4,0 z M 36,136 l 4,0 0,4 -4,0 z M 40,136 l 4,0 0,4 -4,0 z M 44,136 l 4,0 0,4 -4,0 z M 56,136 l 4,0 0,4 -4,0 z M 60,136 l 4,0 0,4 -4,0 z M 68,136 l 4,0 0,4 -4,0 z M 72,136 l 4,0 0,4 -4,0 z M 76,136 l 4,0 0,4 -4,0 z M 84,136 l 4,0 0,4 -4,0 z M 100,136 l 4,0 0,4 -4,0 z M 112,136 l 4,0 0,4 -4,0 z M 120,136 l 4,0 0,4 -4,0 z M 124,136 l 4,0 0,4 -4,0 z M 128,136 l 4,0 0,4 -4,0 z M 132,136 l 4,0 0,4 -4,0 z M 148,136 l 4,0 0,4 -4,0 z M 160,136 l 4,0 0,4 -4,0 z M 164,136 l 4,0 0,4 -4,0 z M 176,136 l 4,0 0,4 -4,0 z M 180,136 l 4,0 0,4 -4,0 z M 184,136 l 4,0 0,4 -4,0 z M 200,136 l 4,0 0,4 -4,0 z M 204,136 l 4,0 0,4 -4,0 z M 208,136 l 4,0 0,4 -4,0 z M 216,136 l 4,0 0,4 -4,0 z M 220,136 l 4,0 0,4 -4,0 z M 224,136 l 4,0 0,4 -4,0 z M 232,136 l 4,0 0,4 -4,0 z M 236,136 l 4,0 0,4 -4,0 z M 240,136 l 4,0 0,4 -4,0 z M 244,136 l 4,0 0,4 -4,0 z M 12,140 l 4,0 0,4 -4,0 z M 16,140 l 4,0 0,4 -4,0 z M 20,140 l 4,0 0,4 -4,0 z M 24,140 l 4,0 0,4 -4,0 z M 28,140 l 4,0 0,4 -4,0 z M 36,140 l 4,0 0,4 -4,0 z M 40,140 l 4,0 0,4 -4,0 z M 44,140 l 4,0 0,4 -4,0 z M 64,140 l 4,0 0,4 -4,0 z M 68,140 l 4,0 0,4 -4,0 z M 84,140 l 4,0 0,4 -4,0 z M 96,140 l 4,0 0,4 -4,0 z M 100,140 l 4,0 0,4 -4,0 z M 116,140 l 4,0 0,4 -4,0 z M 124,140 l 4,0 0,4 -4,0 z M 128,140 l 4,0 0,4 -4,0 z M 144,140 l 4,0 0,4 -4,0 z M 152,140 l 4,0 0,4 -4,0 z M 156,140 l 4,0 0,4 -4,0 z M 160,140 l 4,0 0,4 -4,0 z M 168,140 l 4,0 0,4 -4,0 z M 172,140 l 4,0 0,4 -4,0 z M 180,140 l 4,0 0,4 -4,0 z M 192,140 l 4,0 0,4 -4,0 z M 200,140 l 4,0 0,4 -4,0 z M 216,140 l 4,0 0,4 -4,0 z M 220,140 l 4,0 0,4 -4,0 z M 236,140 l 4,0 0,4 -4,0 z M 240,140 l 4,0 0,4 -4,0 z M 12,144 l 4,0 0,4 -4,0 z M 20,144 l 4,0 0,4 -4,0 z M 32,144 l 4,0 0,4 -4,0 z M 36,144 l 4,0 0,4 -4,0 z M 44,144 l 4,0 0,4 -4,0 z M 48,144 l 4,0 0,4 -4,0 z M 52,144 l 4,0 0,4 -4,0 z M 60,144 l 4,0 0,4 -4,0 z M 68,144 l 4,0 0,4 -4,0 z M 72,144 l 4,0 0,4 -4,0 z M 80,144 l 4,0 0,4 -4,0 z M 88,144 l 4,0 0,4 -4,0 z M 100,144 l 4,0 0,4 -4,0 z M 108,144 l 4,0 0,4 -4,0 z M 120,144 l 4,0 0,4 -4,0 z M 124,144 l 4,0 0,4 -4,0 z M 128,144 l 4,0 0,4 -4,0 z M 136,144 l 4,0 0,4 -4,0 z M 172,144 l 4,0 0,4 -4,0 z M 176,144 l 4,0 0,4 -4,0 z M 180,144 l 4,0 0,4 -4,0 z M 184,144 l 4,0 0,4 -4,0 z M 188,144 l 4,0 0,4 -4,0 z M 196,144 l 4,0 0,4 -4,0 z M 204,144 l 4,0 0,4 -4,0 z M 208,144 l 4,0 0,4 -4,0 z M 220,144 l 4,0 0,4 -4,0 z M 228,144 l 4,0 0,4 -4,0 z M 232,144 l 4,0 0,4 -4,0 z M 236,144 l 4,0 0,4 -4,0 z M 244,144 l 4,0 0,4 -4,0 z M 16,148 l 4,0 0,4 -4,0 z M 20,148 l 4,0 0,4 -4,0 z M 24,148 l 4,0 0,4 -4,0 z M 28,148 l 4,0 0,4 -4,0 z M 32,148 l 4,0 0,4 -4,0 z M 36,148 l 4,0 0,4 -4,0 z M 40,148 l 4,0 0,4 -4,0 z M 56,148 l 4,0 0,4 -4,0 z M 60,148 l 4,0 0,4 -4,0 z M 92,148 l 4,0 0,4 -4,0 z M 100,148 l 4,0 0,4 -4,0 z M 108,148 l 4,0 0,4 -4,0 z M 124,148 l 4,0 0,4 -4,0 z M 148,148 l 4,0 0,4 -4,0 z M 152,148 l 4,0 0,4 -4,0 z M 156,148 l 4,0 0,4 -4,0 z M 160,148 l 4,0 0,4 -4,0 z M 176,148 l 4,0 0,4 -4,0 z M 192,148 l 4,0 0,4 -4,0 z M 200,148 l 4,0 0,4 -4,0 z M 204,148 l 4,0 0,4 -4,0 z M 208,148 l 4,0 0,4 -4,0 z M 224,148 l 4,0 0,4 -4,0 z M 240,148 l 4,0 0,4 -4,0 z M 4,152 l 4,0 0,4 -4,0 z M 8,152 l 4,0 0,4 -4,0 z M 40,152 l 4,0 0,4 -4,0 z M 44,152 l 4,0 0,4 -4,0 z M 48,152 l 4,0 0,4 -4,0 z M 52,152 l 4,0 0,4 -4,0 z M 60,152 l 4,0 0,4 -4,0 z M 64,152 l 4,0 0,4 -4,0 z M 72,152 l 4,0 0,4 -4,0 z M 76,152 l 4,0 0,4 -4,0 z M 80,152 l 4,0 0,4 -4,0 z M 104,152 l 4,0 0,4 -4,0 z M 116,152 l 4,0 0,4 -4,0 z M 120,152 l 4,0 0,4 -4,0 z M 124,152 l 4,0 0,4 -4,0 z M 132,152 l 4,0 0,4 -4,0 z M 136,152 l 4,0 0,4 -4,0 z M 144,152 l 4,0 0,4 -4,0 z M 156,152 l 4,0 0,4 -4,0 z M 172,152 l 4,0 0,4 -4,0 z M 180,152 l 4,0 0,4 -4,0 z M 184,152 l 4,0 0,4 -4,0 z M 196,152 l 4,0 0,4 -4,0 z M 200,152 l 4,0 0,4 -4,0 z M 204,152 l 4,0 0,4 -4,0 z M 220,152 l 4,0 0,4 -4,0 z M 224,152 l 4,0 0,4 -4,0 z M 228,152 l 4,0 0,4 -4,0 z M 232,152 l 4,0 0,4 -4,0 z M 240,152 l 4,0 0,4 -4,0 z M 244,152 l 4,0 0,4 -4,0 z M 4,156 l 4,0 0,4 -4,0 z M 8,156 l 4,0 0,4 -4,0 z M 12,156 l 4,0 0,4 -4,0 z M 16,156 l 4,0 0,4 -4,0 z M 20,156 l 4,0 0,4 -4,0 z M 24,156 l 4,0 0,4 -4,0 z M 28,156 l 4,0 0,4 -4,0 z M 36,156 l 4,0 0,4 -4,0 z M 60,156 l 4,0 0,4 -4,0 z M 68,156 l 4,0 0,4 -4,0 z M 76,156 l 4,0 0,4 -4,0 z M 80,156 l 4,0 0,4 -4,0 z M 88,156 l 4,0 0,4 -4,0 z M 92,156 l 4,0 0,4 -4,0 z M 100,156 l 4,0 0,4 -4,0 z M 104,156 l 4,0 0,4 -4,0 z M 108,156 l 4,0 0,4 -4,0 z M 112,156 l 4,0 0,4 -4,0 z M 116,156 l 4,0 0,4 -4,0 z M 124,156 l 4,0 0,4 -4,0 z M 128,156 l 4,0 0,4 -4,0 z M 132,156 l 4,0 0,4 -4,0 z M 148,156 l 4,0 0,4 -4,0 z M 152,156 l 4,0 0,4 -4,0 z M 160,156 l 4,0 0,4 -4,0 z M 168,156 l 4,0 0,4 -4,0 z M 172,156 l 4,0 0,4 -4,0 z M 188,156 l 4,0 0,4 -4,0 z M 192,156 l 4,0 0,4 -4,0 z M 200,156 l 4,0 0,4 -4,0 z M 208,156 l 4,0 0,4 -4,0 z M 212,156 l 4,0 0,4 -4,0 z M 216,156 l 4,0 0,4 -4,0 z M 220,156 l 4,0 0,4 -4,0 z M 228,156 l 4,0 0,4 -4,0 z M 236,156 l 4,0 0,4 -4,0 z M 240,156 l 4,0 0,4 -4,0 z M 244,156 l 4,0 0,4 -4,0 z M 4,160 l 4,0 0,4 -4,0 z M 8,160 l 4,0 0,4 -4,0 z M 16,160 l 4,0 0,4 -4,0 z M 20,160 l 4,0 0,4 -4,0 z M 24,160 l 4,0 0,4 -4,0 z M 44,160 l 4,0 0,4 -4,0 z M 48,160 l 4,0 0,4 -4,0 z M 52,160 l 4,0 0,4 -4,0 z M 56,160 l 4,0 0,4 -4,0 z M 64,160 l 4,0 0,4 -4,0 z M 68,160 l 4,0 0,4 -4,0 z M 72,160 l 4,0 0,4 -4,0 z M 76,160 l 4,0 0,4 -4,0 z M 80,160 l 4,0 0,4 -4,0 z M 96,160 l 4,0 0,4 -4,0 z M 100,160 l 4,0 0,4 -4,0 z M 108,160 l 4,0 0,4 -4,0 z M 120,160 l 4,0 0,4 -4,0 z M 132,160 l 4,0 0,4 -4,0 z M 148,160 l 4,0 0,4 -4,0 z M 152,160 l 4,0 0,4 -4,0 z M 156,160 l 4,0 0,4 -4,0 z M 168,160 l 4,0 0,4 -4,0 z M 172,160 l 4,0 0,4 -4,0 z M 180,160 l 4,0 0,4 -4,0 z M 184,160 l 4,0 0,4 -4,0 z M 188,160 l 4,0 0,4 -4,0 z M 192,160 l 4,0 0,4 -4,0 z M 196,160 l 4,0 0,4 -4,0 z M 200,160 l 4,0 0,4 -4,0 z M 204,160 l 4,0 0,4 -4,0 z M 208,160 l 4,0 0,4 -4,0 z M 216,160 l 4,0 0,4 -4,0 z M 220,160 l 4,0 0,4 -4,0 z M 228,160 l 4,0 0,4 -4,0 z M 8,164 l 4,0 0,4 -4,0 z M 24,164 l 4,0 0,4 -4,0 z M 28,164 l 4,0 0,4 -4,0 z M 36,164 l 4,0 0,4 -4,0 z M 44,164 l 4,0 0,4 -4,0 z M 76,164 l 4,0 0,4 -4,0 z M 92,164 l 4,0 0,4 -4,0 z M 96,164 l 4,0 0,4 -4,0 z M 100,164 l 4,0 0,4 -4,0 z M 104,164 l 4,0 0,4 -4,0 z M 108,164 l 4,0 0,4 -4,0 z M 116,164 l 4,0 0,4 -4,0 z M 128,164 l 4,0 0,4 -4,0 z M 132,164 l 4,0 0,4 -4,0 z M 136,164 l 4,0 0,4 -4,0 z M 140,164 l 4,0 0,4 -4,0 z M 144,164 l 4,0 0,4 -4,0 z M 156,164 l 4,0 0,4 -4,0 z M 160,164 l 4,0 0,4 -4,0 z M 176,164 l 4,0 0,4 -4,0 z M 180,164 l 4,0 0,4 -4,0 z M 188,164 l 4,0 0,4 -4,0 z M 196,164 l 4,0 0,4 -4,0 z M 200,164 l 4,0 0,4 -4,0 z M 216,164 l 4,0 0,4 -4,0 z M 220,164 l 4,0 0,4 -4,0 z M 236,164 l 4,0 0,4 -4,0 z M 240,164 l 4,0 0,4 -4,0 z M 4,168 l 4,0 0,4 -4,0 z M 12,168 l 4,0 0,4 -4,0 z M 24,168 l 4,0 0,4 -4,0 z M 36,168 l 4,0 0,4 -4,0 z M 40,168 l 4,0 0,4 -4,0 z M 44,168 l 4,0 0,4 -4,0 z M 48,168 l 4,0 0,4 -4,0 z M 52,168 l 4,0 0,4 -4,0 z M 64,168 l 4,0 0,4 -4,0 z M 72,168 l 4,0 0,4 -4,0 z M 76,168 l 4,0 0,4 -4,0 z M 80,168 l 4,0 0,4 -4,0 z M 84,168 l 4,0 0,4 -4,0 z M 96,168 l 4,0 0,4 -4,0 z M 112,168 l 4,0 0,4 -4,0 z M 116,168 l 4,0 0,4 -4,0 z M 120,168 l 4,0 0,4 -4,0 z M 132,168 l 4,0 0,4 -4,0 z M 136,168 l 4,0 0,4 -4,0 z M 156,168 l 4,0 0,4 -4,0 z M 160,168 l 4,0 0,4 -4,0 z M 164,168 l 4,0 0,4 -4,0 z M 168,168 l 4,0 0,4 -4,0 z M 172,168 l 4,0 0,4 -4,0 z M 184,168 l 4,0 0,4 -4,0 z M 196,168 l 4,0 0,4 -4,0 z M 204,168 l 4,0 0,4 -4,0 z M 212,168 l 4,0 0,4 -4,0 z M 220,168 l 4,0 0,4 -4,0 z M 232,168 l 4,0 0,4 -4,0 z M 8,172 l 4,0 0,4 -4,0 z M 28,172 l 4,0 0,4 -4,0 z M 32,172 l 4,0 0,4 -4,0 z M 36,172 l 4,0 0,4 -4,0 z M 48,172 l 4,0 0,4 -4,0 z M 52,172 l 4,0 0,4 -4,0 z M 60,172 l 4,0 0,4 -4,0 z M 64,172 l 4,0 0,4 -4,0 z M 76,172 l 4,0 0,4 -4,0 z M 84,172 l 4,0 0,4 -4,0 z M 88,172 l 4,0 0,4 -4,0 z M 96,172 l 4,0 0,4 -4,0 z M 100,172 l 4,0 0,4 -4,0 z M 112,172 l 4,0 0,4 -4,0 z M 116,172 l 4,0 0,4 -4,0 z M 124,172 l 4,0 0,4 -4,0 z M 128,172 l 4,0 0,4 -4,0 z M 132,172 l 4,0 0,4 -4,0 z M 144,172 l 4,0 0,4 -4,0 z M 148,172 l 4,0 0,4 -4,0 z M 160,172 l 4,0 0,4 -4,0 z M 164,172 l 4,0 0,4 -4,0 z M 168,172 l 4,0 0,4 -4,0 z M 172,172 l 4,0 0,4 -4,0 z M 176,172 l 4,0 0,4 -4,0 z M 184,172 l 4,0 0,4 -4,0 z M 196,172 l 4,0 0,4 -4,0 z M 200,172 l 4,0 0,4 -4,0 z M 204,172 l 4,0 0,4 -4,0 z M 212,172 l 4,0 0,4 -4,0 z M 232,172 l 4,0 0,4 -4,0 z M 240,172 l 4,0 0,4 -4,0 z M 244,172 l 4,0 0,4 -4,0 z M 4,176 l 4,0 0,4 -4,0 z M 8,176 l 4,0 0,4 -4,0 z M 12,176 l 4,0 0,4 -4,0 z M 20,176 l 4,0 0,4 -4,0 z M 40,176 l 4,0 0,4 -4,0 z M 48,176 l 4,0 0,4 -4,0 z M 52,176 l 4,0 0,4 -4,0 z M 56,176 l 4,0 0,4 -4,0 z M 60,176 l 4,0 0,4 -4,0 z M 64,176 l 4,0 0,4 -4,0 z M 76,176 l 4,0 0,4 -4,0 z M 80,176 l 4,0 0,4 -4,0 z M 84,176 l 4,0 0,4 -4,0 z M 100,176 l 4,0 0,4 -4,0 z M 116,176 l 4,0 0,4 -4,0 z M 120,176 l 4,0 0,4 -4,0 z M 136,176 l 4,0 0,4 -4,0 z M 140,176 l 4,0 0,4 -4,0 z M 148,176 l 4,0 0,4 -4,0 z M 152,176 l 4,0 0,4 -4,0 z M 156,176 l 4,0 0,4 -4,0 z M 160,176 l 4,0 0,4 -4,0 z M 164,176 l 4,0 0,4 -4,0 z M 192,176 l 4,0 0,4 -4,0 z M 200,176 l 4,0 0,4 -4,0 z M 204,176 l 4,0 0,4 -4,0 z M 208,176 l 4,0 0,4 -4,0 z M 216,176 l 4,0 0,4 -4,0 z M 220,176 l 4,0 0,4 -4,0 z M 240,176 l 4,0 0,4 -4,0 z M 244,176 l 4,0 0,4 -4,0 z M 4,180 l 4,0 0,4 -4,0 z M 16,180 l 4,0 0,4 -4,0 z M 20,180 l 4,0 0,4 -4,0 z M 24,180 l 4,0 0,4 -4,0 z M 28,180 l 4,0 0,4 -4,0 z M 36,180 l 4,0 0,4 -4,0 z M 40,180 l 4,0 0,4 -4,0 z M 44,180 l 4,0 0,4 -4,0 z M 48,180 l 4,0 0,4 -4,0 z M 56,180 l 4,0 0,4 -4,0 z M 64,180 l 4,0 0,4 -4,0 z M 68,180 l 4,0 0,4 -4,0 z M 72,180 l 4,0 0,4 -4,0 z M 96,180 l 4,0 0,4 -4,0 z M 100,180 l 4,0 0,4 -4,0 z M 108,180 l 4,0 0,4 -4,0 z M 112,180 l 4,0 0,4 -4,0 z M 116,180 l 4,0 0,4 -4,0 z M 124,180 l 4,0 0,4 -4,0 z M 128,180 l 4,0 0,4 -4,0 z M 132,180 l 4,0 0,4 -4,0 z M 140,180 l 4,0 0,4 -4,0 z M 144,180 l 4,0 0,4 -4,0 z M 156,180 l 4,0 0,4 -4,0 z M 160,180 l 4,0 0,4 -4,0 z M 164,180 l 4,0 0,4 -4,0 z M 168,180 l 4,0 0,4 -4,0 z M 176,180 l 4,0 0,4 -4,0 z M 180,180 l 4,0 0,4 -4,0 z M 184,180 l 4,0 0,4 -4,0 z M 196,180 l 4,0 0,4 -4,0 z M 200,180 l 4,0 0,4 -4,0 z M 204,180 l 4,0 0,4 -4,0 z M 220,180 l 4,0 0,4 -4,0 z M 224,180 l 4,0 0,4 -4,0 z M 228,180 l 4,0 0,4 -4,0 z M 236,180 l 4,0 0,4 -4,0 z M 244,180 l 4,0 0,4 -4,0 z M 4,184 l 4,0 0,4 -4,0 z M 8,184 l 4,0 0,4 -4,0 z M 20,184 l 4,0 0,4 -4,0 z M 24,184 l 4,0 0,4 -4,0 z M 36,184 l 4,0 0,4 -4,0 z M 44,184 l 4,0 0,4 -4,0 z M 52,184 l 4,0 0,4 -4,0 z M 56,184 l 4,0 0,4 -4,0 z M 68,184 l 4,0 0,4 -4,0 z M 76,184 l 4,0 0,4 -4,0 z M 80,184 l 4,0 0,4 -4,0 z M 84,184 l 4,0 0,4 -4,0 z M 88,184 l 4,0 0,4 -4,0 z M 108,184 l 4,0 0,4 -4,0 z M 112,184 l 4,0 0,4 -4,0 z M 120,184 l 4,0 0,4 -4,0 z M 124,184 l 4,0 0,4 -4,0 z M 128,184 l 4,0 0,4 -4,0 z M 152,184 l 4,0 0,4 -4,0 z M 156,184 l 4,0 0,4 -4,0 z M 164,184 l 4,0 0,4 -4,0 z M 168,184 l 4,0 0,4 -4,0 z M 172,184 l 4,0 0,4 -4,0 z M 176,184 l 4,0 0,4 -4,0 z M 180,184 l 4,0 0,4 -4,0 z M 188,184 l 4,0 0,4 -4,0 z M 192,184 l 4,0 0,4 -4,0 z M 196,184 l 4,0 0,4 -4,0 z M 200,184 l 4,0 0,4 -4,0 z M 220,184 l 4,0 0,4 -4,0 z M 224,184 l 4,0 0,4 -4,0 z M 232,184 l 4,0 0,4 -4,0 z M 236,184 l 4,0 0,4 -4,0 z M 244,184 l 4,0 0,4 -4,0 z M 4,188 l 4,0 0,4 -4,0 z M 16,188 l 4,0 0,4 -4,0 z M 28,188 l 4,0 0,4 -4,0 z M 36,188 l 4,0 0,4 -4,0 z M 44,188 l 4,0 0,4 -4,0 z M 48,188 l 4,0 0,4 -4,0 z M 52,188 l 4,0 0,4 -4,0 z M 60,188 l 4,0 0,4 -4,0 z M 76,188 l 4,0 0,4 -4,0 z M 84,188 l 4,0 0,4 -4,0 z M 92,188 l 4,0 0,4 -4,0 z M 100,188 l 4,0 0,4 -4,0 z M 108,188 l 4,0 0,4 -4,0 z M 112,188 l 4,0 0,4 -4,0 z M 116,188 l 4,0 0,4 -4,0 z M 128,188 l 4,0 0,4 -4,0 z M 136,188 l 4,0 0,4 -4,0 z M 144,188 l 4,0 0,4 -4,0 z M 160,188 l 4,0 0,4 -4,0 z M 168,188 l 4,0 0,4 -4,0 z M 176,188 l 4,0 0,4 -4,0 z M 180,188 l 4,0 0,4 -4,0 z M 184,188 l 4,0 0,4 -4,0 z M 188,188 l 4,0 0,4 -4,0 z M 192,188 l 4,0 0,4 -4,0 z M 196,188 l 4,0 0,4 -4,0 z M 220,188 l 4,0 0,4 -4,0 z M 228,188 l 4,0 0,4 -4,0 z M 240,188 l 4,0 0,4 -4,0 z M 4,192 l 4,0 0,4 -4,0 z M 8,192 l 4,0 0,4 -4,0 z M 24,192 l 4,0 0,4 -4,0 z M 32,192 l 4,0 0,4 -4,0 z M 36,192 l 4,0 0,4 -4,0 z M 40,192 l 4,0 0,4 -4,0 z M 44,192 l 4,0 0,4 -4,0 z M 48,192 l 4,0 0,4 -4,0 z M 52,192 l 4,0 0,4 -4,0 z M 64,192 l 4,0 0,4 -4,0 z M 68,192 l 4,0 0,4 -4,0 z M 72,192 l 4,0 0,4 -4,0 z M 80,192 l 4,0 0,4 -4,0 z M 84,192 l 4,0 0,4 -4,0 z M 88,192 l 4,0 0,4 -4,0 z M 92,192 l 4,0 0,4 -4,0 z M 96,192 l 4,0 0,4 -4,0 z M 100,192 l 4,0 0,4 -4,0 z M 108,192 l 4,0 0,4 -4,0 z M 112,192 l 4,0 0,4 -4,0 z M 124,192 l 4,0 0,4 -4,0 z M 140,192 l 4,0 0,4 -4,0 z M 144,192 l 4,0 0,4 -4,0 z M 148,192 l 4,0 0,4 -4,0 z M 152,192 l 4,0 0,4 -4,0 z M 160,192 l 4,0 0,4 -4,0 z M 172,192 l 4,0 0,4 -4,0 z M 176,192 l 4,0 0,4 -4,0 z M 184,192 l 4,0 0,4 -4,0 z M 204,192 l 4,0 0,4 -4,0 z M 208,192 l 4,0 0,4 -4,0 z M 212,192 l 4,0 0,4 -4,0 z M 216,192 l 4,0 0,4 -4,0 z M 220,192 l 4,0 0,4 -4,0 z M 224,192 l 4,0 0,4 -4,0 z M 228,192 l 4,0 0,4 -4,0 z M 8,196 l 4,0 0,4 -4,0 z M 16,196 l 4,0 0,4 -4,0 z M 28,196 l 4,0 0,4 -4,0 z M 32,196 l 4,0 0,4 -4,0 z M 36,196 l 4,0 0,4 -4,0 z M 44,196 l 4,0 0,4 -4,0 z M 52,196 l 4,0 0,4 -4,0 z M 60,196 l 4,0 0,4 -4,0 z M 80,196 l 4,0 0,4 -4,0 z M 92,196 l 4,0 0,4 -4,0 z M 100,196 l 4,0 0,4 -4,0 z M 104,196 l 4,0 0,4 -4,0 z M 112,196 l 4,0 0,4 -4,0 z M 120,196 l 4,0 0,4 -4,0 z M 124,196 l 4,0 0,4 -4,0 z M 128,196 l 4,0 0,4 -4,0 z M 144,196 l 4,0 0,4 -4,0 z M 152,196 l 4,0 0,4 -4,0 z M 156,196 l 4,0 0,4 -4,0 z M 168,196 l 4,0 0,4 -4,0 z M 176,196 l 4,0 0,4 -4,0 z M 180,196 l 4,0 0,4 -4,0 z M 184,196 l 4,0 0,4 -4,0 z M 192,196 l 4,0 0,4 -4,0 z M 196,196 l 4,0 0,4 -4,0 z M 208,196 l 4,0 0,4 -4,0 z M 212,196 l 4,0 0,4 -4,0 z M 216,196 l 4,0 0,4 -4,0 z M 224,196 l 4,0 0,4 -4,0 z M 240,196 l 4,0 0,4 -4,0 z M 12,200 l 4,0 0,4 -4,0 z M 20,200 l 4,0 0,4 -4,0 z M 24,200 l 4,0 0,4 -4,0 z M 40,200 l 4,0 0,4 -4,0 z M 48,200 l 4,0 0,4 -4,0 z M 64,200 l 4,0 0,4 -4,0 z M 72,200 l 4,0 0,4 -4,0 z M 84,200 l 4,0 0,4 -4,0 z M 88,200 l 4,0 0,4 -4,0 z M 96,200 l 4,0 0,4 -4,0 z M 112,200 l 4,0 0,4 -4,0 z M 120,200 l 4,0 0,4 -4,0 z M 124,200 l 4,0 0,4 -4,0 z M 136,200 l 4,0 0,4 -4,0 z M 144,200 l 4,0 0,4 -4,0 z M 152,200 l 4,0 0,4 -4,0 z M 164,200 l 4,0 0,4 -4,0 z M 172,200 l 4,0 0,4 -4,0 z M 184,200 l 4,0 0,4 -4,0 z M 188,200 l 4,0 0,4 -4,0 z M 196,200 l 4,0 0,4 -4,0 z M 200,200 l 4,0 0,4 -4,0 z M 208,200 l 4,0 0,4 -4,0 z M 216,200 l 4,0 0,4 -4,0 z M 220,200 l 4,0 0,4 -4,0 z M 224,200 l 4,0 0,4 -4,0 z M 232,200 l 4,0 0,4 -4,0 z M 236,200 l 4,0 0,4 -4,0 z M 240,200 l 4,0 0,4 -4,0 z M 244,200 l 4,0 0,4 -4,0 z M 12,204 l 4,0 0,4 -4,0 z M 16,204 l 4,0 0,4 -4,0 z M 20,204 l 4,0 0,4 -4,0 z M 24,204 l 4,0 0,4 -4,0 z M 28,204 l 4,0 0,4 -4,0 z M 56,204 l 4,0 0,4 -4,0 z M 112,204 l 4,0 0,4 -4,0 z M 116,204 l 4,0 0,4 -4,0 z M 120,204 l 4,0 0,4 -4,0 z M 128,204 l 4,0 0,4 -4,0 z M 152,204 l 4,0 0,4 -4,0 z M 156,204 l 4,0 0,4 -4,0 z M 172,204 l 4,0 0,4 -4,0 z M 180,204 l 4,0 0,4 -4,0 z M 184,204 l 4,0 0,4 -4,0 z M 188,204 l 4,0 0,4 -4,0 z M 200,204 l 4,0 0,4 -4,0 z M 208,204 l 4,0 0,4 -4,0 z M 216,204 l 4,0 0,4 -4,0 z M 220,204 l 4,0 0,4 -4,0 z M 228,204 l 4,0 0,4 -4,0 z M 4,208 l 4,0 0,4 -4,0 z M 8,208 l 4,0 0,4 -4,0 z M 12,208 l 4,0 0,4 -4,0 z M 20,208 l 4,0 0,4 -4,0 z M 32,208 l 4,0 0,4 -4,0 z M 36,208 l 4,0 0,4 -4,0 z M 40,208 l 4,0 0,4 -4,0 z M 44,208 l 4,0 0,4 -4,0 z M 48,208 l 4,0 0,4 -4,0 z M 52,208 l 4,0 0,4 -4,0 z M 64,208 l 4,0 0,4 -4,0 z M 72,208 l 4,0 0,4 -4,0 z M 76,208 l 4,0 0,4 -4,0 z M 92,208 l 4,0 0,4 -4,0 z M 96,208 l 4,0 0,4 -4,0 z M 132,208 l 4,0 0,4 -4,0 z M 140,208 l 4,0 0,4 -4,0 z M 144,208 l 4,0 0,4 -4,0 z M 148,208 l 4,0 0,4 -4,0 z M 156,208 l 4,0 0,4 -4,0 z M 160,208 l 4,0 0,4 -4,0 z M 168,208 l 4,0 0,4 -4,0 z M 172,208 l 4,0 0,4 -4,0 z M 176,208 l 4,0 0,4 -4,0 z M 188,208 l 4,0 0,4 -4,0 z M 192,208 l 4,0 0,4 -4,0 z M 196,208 l 4,0 0,4 -4,0 z M 200,208 l 4,0 0,4 -4,0 z M 204,208 l 4,0 0,4 -4,0 z M 220,208 l 4,0 0,4 -4,0 z M 228,208 l 4,0 0,4 -4,0 z M 232,208 l 4,0 0,4 -4,0 z M 240,208 l 4,0 0,4 -4,0 z M 4,212 l 4,0 0,4 -4,0 z M 8,212 l 4,0 0,4 -4,0 z M 12,212 l 4,0 0,4 -4,0 z M 16,212 l 4,0 0,4 -4,0 z M 28,212 l 4,0 0,4 -4,0 z M 36,212 l 4,0 0,4 -4,0 z M 48,212 l 4,0 0,4 -4,0 z M 52,212 l 4,0 0,4 -4,0 z M 56,212 l 4,0 0,4 -4,0 z M 72,212 l 4,0 0,4 -4,0 z M 84,212 l 4,0 0,4 -4,0 z M 88,212 l 4,0 0,4 -4,0 z M 96,212 l 4,0 0,4 -4,0 z M 100,212 l 4,0 0,4 -4,0 z M 104,212 l 4,0 0,4 -4,0 z M 116,212 l 4,0 0,4 -4,0 z M 120,212 l 4,0 0,4 -4,0 z M 124,212 l 4,0 0,4 -4,0 z M 128,212 l 4,0 0,4 -4,0 z M 132,212 l 4,0 0,4 -4,0 z M 136,212 l 4,0 0,4 -4,0 z M 140,212 l 4,0 0,4 -4,0 z M 144,212 l 4,0 0,4 -4,0 z M 148,212 l 4,0 0,4 -4,0 z M 152,212 l 4,0 0,4 -4,0 z M 156,212 l 4,0 0,4 -4,0 z M 164,212 l 4,0 0,4 -4,0 z M 172,212 l 4,0 0,4 -4,0 z M 176,212 l 4,0 0,4 -4,0 z M 184,212 l 4,0 0,4 -4,0 z M 192,212 l 4,0 0,4 -4,0 z M 196,212 l 4,0 0,4 -4,0 z M 212,212 l 4,0 0,4 -4,0 z M 216,212 l 4,0 0,4 -4,0 z M 220,212 l 4,0 0,4 -4,0 z M 224,212 l 4,0 0,4 -4,0 z M 228,212 l 4,0 0,4 -4,0 z M 36,216 l 4,0 0,4 -4,0 z M 48,216 l 4,0 0,4 -4,0 z M 56,216 l 4,0 0,4 -4,0 z M 60,216 l 4,0 0,4 -4,0 z M 72,216 l 4,0 0,4 -4,0 z M 76,216 l 4,0 0,4 -4,0 z M 84,216 l 4,0 0,4 -4,0 z M 88,216 l 4,0 0,4 -4,0 z M 92,216 l 4,0 0,4 -4,0 z M 100,216 l 4,0 0,4 -4,0 z M 104,216 l 4,0 0,4 -4,0 z M 116,216 l 4,0 0,4 -4,0 z M 132,216 l 4,0 0,4 -4,0 z M 140,216 l 4,0 0,4 -4,0 z M 144,216 l 4,0 0,4 -4,0 z M 156,216 l 4,0 0,4 -4,0 z M 160,216 l 4,0 0,4 -4,0 z M 164,216 l 4,0 0,4 -4,0 z M 172,216 l 4,0 0,4 -4,0 z M 180,216 l 4,0 0,4 -4,0 z M 188,216 l 4,0 0,4 -4,0 z M 200,216 l 4,0 0,4 -4,0 z M 204,216 l 4,0 0,4 -4,0 z M 208,216 l 4,0 0,4 -4,0 z M 212,216 l 4,0 0,4 -4,0 z M 228,216 l 4,0 0,4 -4,0 z M 232,216 l 4,0 0,4 -4,0 z M 236,216 l 4,0 0,4 -4,0 z M 244,216 l 4,0 0,4 -4,0 z M 4,220 l 4,0 0,4 -4,0 z M 8,220 l 4,0 0,4 -4,0 z M 12,220 l 4,0 0,4 -4,0 z M 16,220 l 4,0 0,4 -4,0 z M 20,220 l 4,0 0,4 -4,0 z M 24,220 l 4,0 0,4 -4,0 z M 28,220 l 4,0 0,4 -4,0 z M 36,220 l 4,0 0,4 -4,0 z M 40,220 l 4,0 0,4 -4,0 z M 44,220 l 4,0 0,4 -4,0 z M 48,220 l 4,0 0,4 -4,0 z M 52,220 l 4,0 0,4 -4,0 z M 56,220 l 4,0 0,4 -4,0 z M 60,220 l 4,0 0,4 -4,0 z M 64,220 l 4,0 0,4 -4,0 z M 72,220 l 4,0 0,4 -4,0 z M 88,220 l 4,0 0,4 -4,0 z M 92,220 l 4,0 0,4 -4,0 z M 96,220 l 4,0 0,4 -4,0 z M 100,220 l 4,0 0,4 -4,0 z M 116,220 l 4,0 0,4 -4,0 z M 124,220 l 4,0 0,4 -4,0 z M 132,220 l 4,0 0,4 -4,0 z M 136,220 l 4,0 0,4 -4,0 z M 156,220 l 4,0 0,4 -4,0 z M 164,220 l 4,0 0,4 -4,0 z M 172,220 l 4,0 0,4 -4,0 z M 176,220 l 4,0 0,4 -4,0 z M 192,220 l 4,0 0,4 -4,0 z M 200,220 l 4,0 0,4 -4,0 z M 208,220 l 4,0 0,4 -4,0 z M 212,220 l 4,0 0,4 -4,0 z M 220,220 l 4,0 0,4 -4,0 z M 228,220 l 4,0 0,4 -4,0 z M 232,220 l 4,0 0,4 -4,0 z M 236,220 l 4,0 0,4 -4,0 z M 240,220 l 4,0 0,4 -4,0 z M 4,224 l 4,0 0,4 -4,0 z M 28,224 l 4,0 0,4 -4,0 z M 44,224 l 4,0 0,4 -4,0 z M 48,224 l 4,0 0,4 -4,0 z M 52,224 l 4,0 0,4 -4,0 z M 60,224 l 4,0 0,4 -4,0 z M 64,224 l 4,0 0,4 -4,0 z M 68,224 l 4,0 0,4 -4,0 z M 100,224 l 4,0 0,4 -4,0 z M 104,224 l 4,0 0,4 -4,0 z M 116,224 l 4,0 0,4 -4,0 z M 132,224 l 4,0 0,4 -4,0 z M 144,224 l 4,0 0,4 -4,0 z M 148,224 l 4,0 0,4 -4,0 z M 156,224 l 4,0 0,4 -4,0 z M 168,224 l 4,0 0,4 -4,0 z M 172,224 l 4,0 0,4 -4,0 z M 180,224 l 4,0 0,4 -4,0 z M 184,224 l 4,0 0,4 -4,0 z M 188,224 l 4,0 0,4 -4,0 z M 192,224 l 4,0 0,4 -4,0 z M 196,224 l 4,0 0,4 -4,0 z M 200,224 l 4,0 0,4 -4,0 z M 208,224 l 4,0 0,4 -4,0 z M 212,224 l 4,0 0,4 -4,0 z M 228,224 l 4,0 0,4 -4,0 z M 236,224 l 4,0 0,4 -4,0 z M 244,224 l 4,0 0,4 -4,0 z M 4,228 l 4,0 0,4 -4,0 z M 12,228 l 4,0 0,4 -4,0 z M 16,228 l 4,0 0,4 -4,0 z M 20,228 l 4,0 0,4 -4,0 z M 28,228 l 4,0 0,4 -4,0 z M 36,228 l 4,0 0,4 -4,0 z M 64,228 l 4,0 0,4 -4,0 z M 72,228 l 4,0 0,4 -4,0 z M 80,228 l 4,0 0,4 -4,0 z M 88,228 l 4,0 0,4 -4,0 z M 112,228 l 4,0 0,4 -4,0 z M 116,228 l 4,0 0,4 -4,0 z M 120,228 l 4,0 0,4 -4,0 z M 124,228 l 4,0 0,4 -4,0 z M 128,228 l 4,0 0,4 -4,0 z M 132,228 l 4,0 0,4 -4,0 z M 136,228 l 4,0 0,4 -4,0 z M 140,228 l 4,0 0,4 -4,0 z M 148,228 l 4,0 0,4 -4,0 z M 152,228 l 4,0 0,4 -4,0 z M 156,228 l 4,0 0,4 -4,0 z M 160,228 l 4,0 0,4 -4,0 z M 164,228 l 4,0 0,4 -4,0 z M 176,228 l 4,0 0,4 -4,0 z M 188,228 l 4,0 0,4 -4,0 z M 196,228 l 4,0 0,4 -4,0 z M 208,228 l 4,0 0,4 -4,0 z M 212,228 l 4,0 0,4 -4,0 z M 216,228 l 4,0 0,4 -4,0 z M 220,228 l 4,0 0,4 -4,0 z M 224,228 l 4,0 0,4 -4,0 z M 228,228 l 4,0 0,4 -4,0 z M 236,228 l 4,0 0,4 -4,0 z M 244,228 l 4,0 0,4 -4,0 z M 4,232 l 4,0 0,4 -4,0 z M 12,232 l 4,0 0,4 -4,0 z M 16,232 l 4,0 0,4 -4,0 z M 20,232 l 4,0 0,4 -4,0 z M 28,232 l 4,0 0,4 -4,0 z M 36,232 l 4,0 0,4 -4,0 z M 48,232 l 4,0 0,4 -4,0 z M 56,232 l 4,0 0,4 -4,0 z M 60,232 l 4,0 0,4 -4,0 z M 64,232 l 4,0 0,4 -4,0 z M 76,232 l 4,0 0,4 -4,0 z M 88,232 l 4,0 0,4 -4,0 z M 96,232 l 4,0 0,4 -4,0 z M 100,232 l 4,0 0,4 -4,0 z M 104,232 l 4,0 0,4 -4,0 z M 116,232 l 4,0 0,4 -4,0 z M 120,232 l 4,0 0,4 -4,0 z M 132,232 l 4,0 0,4 -4,0 z M 136,232 l 4,0 0,4 -4,0 z M 140,232 l 4,0 0,4 -4,0 z M 152,232 l 4,0 0,4 -4,0 z M 156,232 l 4,0 0,4 -4,0 z M 160,232 l 4,0 0,4 -4,0 z M 164,232 l 4,0 0,4 -4,0 z M 168,232 l 4,0 0,4 -4,0 z M 172,232 l 4,0 0,4 -4,0 z M 184,232 l 4,0 0,4 -4,0 z M 188,232 l 4,0 0,4 -4,0 z M 192,232 l 4,0 0,4 -4,0 z M 208,232 l 4,0 0,4 -4,0 z M 216,232 l 4,0 0,4 -4,0 z M 224,232 l 4,0 0,4 -4,0 z M 244,232 l 4,0 0,4 -4,0 z M 4,236 l 4,0 0,4 -4,0 z M 12,236 l 4,0 0,4 -4,0 z M 16,236 l 4,0 0,4 -4,0 z M 20,236 l 4,0 0,4 -4,0 z M 28,236 l 4,0 0,4 -4,0 z M 36,236 l 4,0 0,4 -4,0 z M 56,236 l 4,0 0,4 -4,0 z M 80,236 l 4,0 0,4 -4,0 z M 92,236 l 4,0 0,4 -4,0 z M 104,236 l 4,0 0,4 -4,0 z M 112,236 l 4,0 0,4 -4,0 z M 116,236 l 4,0 0,4 -4,0 z M 124,236 l 4,0 0,4 -4,0 z M 132,236 l 4,0 0,4 -4,0 z M 144,236 l 4,0 0,4 -4,0 z M 148,236 l 4,0 0,4 -4,0 z M 164,236 l 4,0 0,4 -4,0 z M 168,236 l 4,0 0,4 -4,0 z M 172,236 l 4,0 0,4 -4,0 z M 176,236 l 4,0 0,4 -4,0 z M 204,236 l 4,0 0,4 -4,0 z M 212,236 l 4,0 0,4 -4,0 z M 220,236 l 4,0 0,4 -4,0 z M 232,236 l 4,0 0,4 -4,0 z M 244,236 l 4,0 0,4 -4,0 z M 4,240 l 4,0 0,4 -4,0 z M 28,240 l 4,0 0,4 -4,0 z M 36,240 l 4,0 0,4 -4,0 z M 40,240 l 4,0 0,4 -4,0 z M 64,240 l 4,0 0,4 -4,0 z M 76,240 l 4,0 0,4 -4,0 z M 88,240 l 4,0 0,4 -4,0 z M 92,240 l 4,0 0,4 -4,0 z M 104,240 l 4,0 0,4 -4,0 z M 116,240 l 4,0 0,4 -4,0 z M 120,240 l 4,0 0,4 -4,0 z M 124,240 l 4,0 0,4 -4,0 z M 128,240 l 4,0 0,4 -4,0 z M 136,240 l 4,0 0,4 -4,0 z M 140,240 l 4,0 0,4 -4,0 z M 144,240 l 4,0 0,4 -4,0 z M 148,240 l 4,0 0,4 -4,0 z M 164,240 l 4,0 0,4 -4,0 z M 176,240 l 4,0 0,4 -4,0 z M 184,240 l 4,0 0,4 -4,0 z M 188,240 l 4,0 0,4 -4,0 z M 196,240 l 4,0 0,4 -4,0 z M 200,240 l 4,0 0,4 -4,0 z M 204,240 l 4,0 0,4 -4,0 z M 224,240 l 4,0 0,4 -4,0 z M 232,240 l 4,0 0,4 -4,0 z M 4,244 l 4,0 0,4 -4,0 z M 8,244 l 4,0 0,4 -4,0 z M 12,244 l 4,0 0,4 -4,0 z M 16,244 l 4,0 0,4 -4,0 z M 20,244 l 4,0 0,4 -4,0 z M 24,244 l 4,0 0,4 -4,0 z M 28,244 l 4,0 0,4 -4,0 z M 36,244 l 4,0 0,4 -4,0 z M 56,244 l 4,0 0,4 -4,0 z M 64,244 l 4,0 0,4 -4,0 z M 68,244 l 4,0 0,4 -4,0 z M 88,244 l 4,0 0,4 -4,0 z M 92,244 l 4,0 0,4 -4,0 z M 100,244 l 4,0 0,4 -4,0 z M 104,244 l 4,0 0,4 -4,0 z M 112,244 l 4,0 0,4 -4,0 z M 120,244 l 4,0 0,4 -4,0 z M 124,244 l 4,0 0,4 -4,0 z M 132,244 l 4,0 0,4 -4,0 z M 140,244 l 4,0 0,4 -4,0 z M 148,244 l 4,0 0,4 -4,0 z M 152,244 l 4,0 0,4 -4,0 z M 168,244 l 4,0 0,4 -4,0 z M 176,244 l 4,0 0,4 -4,0 z M 188,244 l 4,0 0,4 -4,0 z M 192,244 l 4,0 0,4 -4,0 z M 196,244 l 4,0 0,4 -4,0 z M 200,244 l 4,0 0,4 -4,0 z M 208,244 l 4,0 0,4 -4,0 z M 216,244 l 4,0 0,4 -4,0 z M 220,244 l 4,0 0,4 -4,0 z M 224,244 l 4,0 0,4 -4,0 z M 228,244 l 4,0 0,4 -4,0 z M 232,244 l 4,0 0,4 -4,0 z M 244,244 l 4,0 0,4 -4,0 z " />
	</g>
</svg>
